GeezHandwritingOutArrRules.ufo
<glyph name="quotedbl" format="2">
  <advance width="512"/>
  <unicode hex="0022"/>
  <outline>
    <contour>
      <point x="410" y="1040" type="line" smooth="yes"/>
      <point x="410" y="1010"/>
      <point x="393" y="991"/>
      <point x="358" y="989" type="curve"/>
      <point x="324" y="991"/>
      <point x="307" y="1010"/>
      <point x="307" y="1040" type="curve" smooth="yes"/>
      <point x="307" y="1280" type="line" smooth="yes"/>
      <point x="307" y="1311"/>
      <point x="324" y="1329"/>
      <point x="358" y="1331" type="curve"/>
      <point x="393" y="1329"/>
      <point x="410" y="1311"/>
      <point x="410" y="1280" type="curve" smooth="yes"/>
    </contour>
    <contour>
      <point x="205" y="1040" type="line" smooth="yes"/>
      <point x="205" y="1010"/>
      <point x="188" y="991"/>
      <point x="154" y="989" type="curve"/>
      <point x="119" y="991"/>
      <point x="102" y="1010"/>
      <point x="102" y="1040" type="curve" smooth="yes"/>
      <point x="102" y="1280" type="line" smooth="yes"/>
      <point x="102" y="1311"/>
      <point x="119" y="1329"/>
      <point x="154" y="1331" type="curve"/>
      <point x="188" y="1329"/>
      <point x="205" y="1311"/>
      <point x="205" y="1280" type="curve" smooth="yes"/>
    </contour>
  </outline>
</glyph>
<glyph name="ampersand" format="2">
  <advance width="1331"/>
  <unicode hex="0026"/>
  <outline>
    <contour>
      <point x="1204" y="55" type="curve" smooth="yes"/>
      <point x="1204" y="20"/>
      <point x="1188" y="4"/>
      <point x="1153" y="4" type="curve" smooth="yes"/>
      <point x="1139" y="4"/>
      <point x="1125.24" y="10.208"/>
      <point x="1114" y="23" type="curve" smooth="yes"/>
      <point x="1096.24" y="43.2122"/>
      <point x="1042" y="104"/>
      <point x="950" y="205" type="curve"/>
      <point x="836" y="68"/>
      <point x="702.005" y="0"/>
      <point x="553" y="0" type="curve" smooth="yes"/>
      <point x="454.997" y="0"/>
      <point x="371.908" y="29.9"/>
      <point x="307" y="90" type="curve" smooth="yes"/>
      <point x="236.906" y="154.902"/>
      <point x="203" y="244"/>
      <point x="203" y="352" type="curve" smooth="yes"/>
      <point x="203" y="438"/>
      <point x="232.952" y="514.043"/>
      <point x="295" y="582" type="curve" smooth="yes"/>
      <point x="337.952" y="629.043"/>
      <point x="408" y="680"/>
      <point x="504" y="737" type="curve"/>
      <point x="408" y="874"/>
      <point x="358" y="977"/>
      <point x="358" y="1044" type="curve" smooth="yes"/>
      <point x="358" y="1120"/>
      <point x="381.882" y="1186.11"/>
      <point x="432" y="1241" type="curve" smooth="yes"/>
      <point x="486.881" y="1301.11"/>
      <point x="559" y="1331"/>
      <point x="647" y="1331" type="curve" smooth="yes"/>
      <point x="723" y="1331"/>
      <point x="786.051" y="1304.05"/>
      <point x="836" y="1249" type="curve" smooth="yes"/>
      <point x="884.051" y="1196.05"/>
      <point x="909" y="1133"/>
      <point x="909" y="1057" type="curve" smooth="yes"/>
      <point x="909" y="967"/>
      <point x="873.097" y="886.897"/>
      <point x="801" y="819" type="curve" smooth="yes"/>
      <point x="770.097" y="789.897"/>
      <point x="721" y="754"/>
      <point x="651" y="711" type="curve"/>
      <point x="723" y="616"/>
      <point x="819" y="502"/>
      <point x="938" y="369" type="curve"/>
      <point x="973" y="432"/>
      <point x="1001.12" y="505.969"/>
      <point x="1020" y="586" type="curve" smooth="yes"/>
      <point x="1026.12" y="611.971"/>
      <point x="1040" y="625"/>
      <point x="1067" y="625" type="curve" smooth="yes"/>
      <point x="1100" y="625"/>
      <point x="1126.59" y="600.092"/>
      <point x="1118" y="561" type="curve" smooth="yes"/>
      <point x="1095.59" y="459.085"/>
      <point x="1059" y="369"/>
      <point x="1012" y="289" type="curve"/>
      <point x="1192" y="88" type="line" smooth="yes"/>
      <point x="1200.98" y="77.9775"/>
      <point x="1204" y="68"/>
    </contour>
    <contour>
      <point x="811" y="1059" type="curve" smooth="yes"/>
      <point x="811" y="1102"/>
      <point x="793.25" y="1141.25"/>
      <point x="758" y="1176" type="curve" smooth="yes"/>
      <point x="723.25" y="1210.25"/>
      <point x="686" y="1229"/>
      <point x="647" y="1229" type="curve" smooth="yes"/>
      <point x="532" y="1229"/>
      <point x="461" y="1145"/>
      <point x="461" y="1044" type="curve" smooth="yes"/>
      <point x="461" y="995"/>
      <point x="504" y="911"/>
      <point x="592" y="791" type="curve"/>
      <point x="737" y="881"/>
      <point x="811" y="971"/>
    </contour>
    <contour>
      <point x="881" y="281" type="curve"/>
      <point x="745" y="430"/>
      <point x="639" y="557"/>
      <point x="563" y="657" type="curve"/>
      <point x="391" y="551"/>
      <point x="305" y="449"/>
      <point x="305" y="352" type="curve" smooth="yes"/>
      <point x="305" y="274"/>
      <point x="329.958" y="212.956"/>
      <point x="379" y="166" type="curve" smooth="yes"/>
      <point x="423.957" y="122.956"/>
      <point x="480.997" y="102"/>
      <point x="553" y="102" type="curve" smooth="yes"/>
      <point x="676.005" y="102"/>
      <point x="784" y="162"/>
    </contour>
  </outline>
</glyph>
<glyph name="zero" format="2">
  <advance width="1024"/>
  <unicode hex="0030"/>
  <outline>
    <contour>
      <point x="979" y="680" type="curve" smooth="yes"/>
      <point x="979" y="506"/>
      <point x="942.928" y="355.044"/>
      <point x="872" y="229" type="curve" smooth="yes"/>
      <point x="785.924" y="76.0367"/>
      <point x="662" y="0"/>
      <point x="500" y="0" type="curve" smooth="yes"/>
      <point x="346" y="0"/>
      <point x="227.713" y="77.8398"/>
      <point x="145" y="236" type="curve" smooth="yes"/>
      <point x="79.7055" y="360.854"/>
      <point x="47" y="508"/>
      <point x="47" y="678" type="curve" smooth="yes"/>
      <point x="47" y="842"/>
      <point x="81.3947" y="984.781"/>
      <point x="150" y="1108" type="curve" smooth="yes"/>
      <point x="233.398" y="1257.79"/>
      <point x="350" y="1333"/>
      <point x="500" y="1333" type="curve" smooth="yes"/>
      <point x="662" y="1333"/>
      <point x="784.532" y="1261.72"/>
      <point x="870" y="1118" type="curve" smooth="yes"/>
      <point x="941.528" y="997.724"/>
      <point x="979" y="852"/>
    </contour>
    <contour>
      <point x="877" y="678" type="curve" smooth="yes"/>
      <point x="877" y="811"/>
      <point x="847.761" y="931.864"/>
      <point x="791" y="1036" type="curve" smooth="yes"/>
      <point x="720.754" y="1164.88"/>
      <point x="625" y="1229"/>
      <point x="500" y="1229" type="curve" smooth="yes"/>
      <point x="385" y="1229"/>
      <point x="294.957" y="1161.02"/>
      <point x="229" y="1028" type="curve" smooth="yes"/>
      <point x="175.958" y="921.024"/>
      <point x="150" y="805"/>
      <point x="150" y="676" type="curve" smooth="yes"/>
      <point x="150" y="543"/>
      <point x="174.551" y="419.795"/>
      <point x="225" y="311" type="curve" smooth="yes"/>
      <point x="289.55" y="171.795"/>
      <point x="381" y="102"/>
      <point x="500" y="102" type="curve" smooth="yes"/>
      <point x="621" y="102"/>
      <point x="716.165" y="171.91"/>
      <point x="788" y="309" type="curve" smooth="yes"/>
      <point x="847.168" y="421.917"/>
      <point x="877" y="545"/>
    </contour>
  </outline>
</glyph>
<glyph name="five" format="2">
  <advance width="1024"/>
  <unicode hex="0035"/>
  <outline>
    <contour>
      <point x="922" y="424" type="curve" smooth="yes"/>
      <point x="922" y="303"/>
      <point x="881.001" y="203.001"/>
      <point x="799" y="121" type="curve" smooth="yes"/>
      <point x="718.998" y="40.9985"/>
      <point x="618" y="0"/>
      <point x="498" y="0" type="curve" smooth="yes"/>
      <point x="336" y="0"/>
      <point x="191.976" y="92.9837"/>
      <point x="119" y="238" type="curve" smooth="yes"/>
      <point x="113.975" y="247.987"/>
      <point x="113.298" y="261.96"/>
      <point x="115" y="276" type="curve" smooth="yes"/>
      <point x="117.299" y="294.966"/>
      <point x="125.052" y="305.898"/>
      <point x="135" y="311" type="curve" smooth="yes"/>
      <point x="164.052" y="325.898"/>
      <point x="186" y="322"/>
      <point x="201" y="303" type="curve"/>
      <point x="250" y="182"/>
      <point x="366.995" y="102"/>
      <point x="498" y="102" type="curve" smooth="yes"/>
      <point x="588.003" y="102"/>
      <point x="663.744" y="133.25"/>
      <point x="725" y="195" type="curve" smooth="yes"/>
      <point x="787.746" y="258.252"/>
      <point x="819" y="334"/>
      <point x="819" y="424" type="curve" smooth="yes"/>
      <point x="819" y="514"/>
      <point x="786.752" y="588.75"/>
      <point x="725" y="651" type="curve" smooth="yes"/>
      <point x="662.75" y="713.752"/>
      <point x="588.004" y="745"/>
      <point x="498" y="745" type="curve" smooth="yes"/>
      <point x="384.996" y="745"/>
      <point x="297" y="698"/>
      <point x="233" y="606" type="curve"/>
      <point x="229" y="580"/>
      <point x="213" y="567"/>
      <point x="182" y="565" type="curve"/>
      <point x="147" y="567"/>
      <point x="131" y="586"/>
      <point x="131" y="616" type="curve" smooth="yes"/>
      <point x="131" y="1276" type="line" smooth="yes"/>
      <point x="131" y="1311"/>
      <point x="146.999" y="1327"/>
      <point x="182" y="1327" type="curve" smooth="yes"/>
      <point x="805" y="1327" type="line" smooth="yes"/>
      <point x="840.001" y="1327"/>
      <point x="856" y="1311"/>
      <point x="856" y="1276" type="curve" smooth="yes"/>
      <point x="856" y="1241"/>
      <point x="840" y="1225"/>
      <point x="805" y="1225" type="curve" smooth="yes"/>
      <point x="233" y="1225" type="line"/>
      <point x="233" y="756" type="line"/>
      <point x="311" y="817"/>
      <point x="398.996" y="848"/>
      <point x="498" y="848" type="curve" smooth="yes"/>
      <point x="618.004" y="848"/>
      <point x="718" y="806"/>
      <point x="799" y="725" type="curve" smooth="yes"/>
      <point x="880" y="644"/>
      <point x="922" y="545"/>
    </contour>
  </outline>
</glyph>
<glyph name="seven" format="2">
  <advance width="1024"/>
  <unicode hex="0037"/>
  <outline>
    <contour>
      <point x="885" y="1284" type="curve" smooth="yes"/>
      <point x="885" y="1270"/>
      <point x="878.221" y="1248.9"/>
      <point x="868" y="1227" type="curve" smooth="yes"/>
      <point x="307" y="25" type="line" smooth="yes"/>
      <point x="293.559" y="-3.79925"/>
      <point x="270" y="-12"/>
      <point x="238" y="0" type="curve"/>
      <point x="219" y="10"/>
      <point x="209" y="27"/>
      <point x="209" y="45" type="curve" smooth="yes"/>
      <point x="209" y="51"/>
      <point x="211" y="59"/>
      <point x="213" y="68" type="curve"/>
      <point x="756" y="1225" type="line"/>
      <point x="190" y="1225" type="line" smooth="yes"/>
      <point x="160" y="1225"/>
      <point x="141" y="1241"/>
      <point x="139" y="1276" type="curve"/>
      <point x="141" y="1311"/>
      <point x="160" y="1327"/>
      <point x="190" y="1327" type="curve" smooth="yes"/>
      <point x="834" y="1327" type="line" smooth="yes"/>
      <point x="868" y="1327"/>
      <point x="885" y="1313"/>
    </contour>
  </outline>
</glyph>
<glyph name="less" format="2">
  <advance width="1024"/>
  <unicode hex="003C"/>
  <outline>
    <contour>
      <point x="799" y="311" type="curve"/>
      <point x="784" y="293"/>
      <point x="766" y="287"/>
      <point x="748" y="289" type="curve"/>
      <point x="741" y="291"/>
      <point x="735.094" y="293.126"/>
      <point x="727" y="299" type="curve" smooth="yes"/>
      <point x="264" y="635" type="line" smooth="yes"/>
      <point x="236.15" y="655.21"/>
      <point x="225" y="676"/>
      <point x="225" y="690" type="curve" smooth="yes"/>
      <point x="225" y="702"/>
      <point x="236.093" y="720.868"/>
      <point x="264" y="741" type="curve" smooth="yes"/>
      <point x="727" y="1075" type="line" smooth="yes"/>
      <point x="735.111" y="1080.85"/>
      <point x="741" y="1083"/>
      <point x="748" y="1085" type="curve"/>
      <point x="766" y="1087"/>
      <point x="784" y="1081"/>
      <point x="799" y="1063" type="curve"/>
      <point x="815" y="1034"/>
      <point x="810.947" y="1011.07"/>
      <point x="786" y="993" type="curve" smooth="yes"/>
      <point x="365" y="688" type="line"/>
      <point x="786" y="383" type="line" smooth="yes"/>
      <point x="810.947" y="364.927"/>
      <point x="815" y="340"/>
    </contour>
  </outline>
</glyph>
<glyph name="C" format="2">
  <advance width="1434"/>
  <unicode hex="0043"/>
  <outline>
    <contour>
      <point x="1341" y="1026" type="curve" smooth="yes"/>
      <point x="1341" y="991"/>
      <point x="1325" y="975"/>
      <point x="1290" y="975" type="curve" smooth="yes"/>
      <point x="1276" y="975"/>
      <point x="1266" y="981"/>
      <point x="1255" y="991" type="curve"/>
      <point x="1141" y="1149"/>
      <point x="982.992" y="1227"/>
      <point x="784" y="1227" type="curve" smooth="yes"/>
      <point x="623" y="1227"/>
      <point x="485.002" y="1171"/>
      <point x="373" y="1059" type="curve" smooth="yes"/>
      <point x="259.997" y="945.997"/>
      <point x="205" y="809"/>
      <point x="205" y="647" type="curve" smooth="yes"/>
      <point x="205" y="485"/>
      <point x="260.219" y="354.25"/>
      <point x="373" y="254" type="curve" smooth="yes"/>
      <point x="485.225" y="154.245"/>
      <point x="623" y="102"/>
      <point x="784" y="102" type="curve" smooth="yes"/>
      <point x="974.992" y="102"/>
      <point x="1126.53" y="179.373"/>
      <point x="1245" y="330" type="curve" smooth="yes"/>
      <point x="1266.53" y="357.375"/>
      <point x="1289.96" y="358.957"/>
      <point x="1317" y="336" type="curve" smooth="yes"/>
      <point x="1342.96" y="313.956"/>
      <point x="1345.04" y="291.967"/>
      <point x="1323" y="264" type="curve" smooth="yes"/>
      <point x="1185.04" y="88.9608"/>
      <point x="1008.01" y="0"/>
      <point x="784" y="0" type="curve" smooth="yes"/>
      <point x="593.993" y="0"/>
      <point x="432.699" y="59.6707"/>
      <point x="303" y="180" type="curve" smooth="yes"/>
      <point x="169.694" y="303.676"/>
      <point x="102" y="458.996"/>
      <point x="102" y="649" type="curve" smooth="yes"/>
      <point x="102" y="839.996"/>
      <point x="167.745" y="1001.25"/>
      <point x="299" y="1133" type="curve" smooth="yes"/>
      <point x="431.751" y="1266.25"/>
      <point x="593.993" y="1331"/>
      <point x="784" y="1331" type="curve" smooth="yes"/>
      <point x="1012.01" y="1331"/>
      <point x="1194" y="1241"/>
      <point x="1327" y="1063" type="curve"/>
      <point x="1337" y="1053"/>
      <point x="1341" y="1040"/>
    </contour>
  </outline>
</glyph>
<glyph name="E" format="2">
  <advance width="1126"/>
  <unicode hex="0045"/>
  <outline>
    <contour>
      <point x="981" y="51" type="curve"/>
      <point x="979" y="16"/>
      <point x="961" y="0"/>
      <point x="930" y="0" type="curve" smooth="yes"/>
      <point x="154" y="0" type="line" smooth="yes"/>
      <point x="119" y="0"/>
      <point x="102" y="16"/>
      <point x="102" y="51" type="curve" smooth="yes"/>
      <point x="102" y="1280" type="line" smooth="yes"/>
      <point x="102" y="1315"/>
      <point x="119" y="1331"/>
      <point x="154" y="1331" type="curve" smooth="yes"/>
      <point x="930" y="1331" type="line" smooth="yes"/>
      <point x="961" y="1331"/>
      <point x="979" y="1315"/>
      <point x="981" y="1280" type="curve"/>
      <point x="979" y="1245"/>
      <point x="961" y="1229"/>
      <point x="930" y="1229" type="curve" smooth="yes"/>
      <point x="205" y="1229" type="line"/>
      <point x="205" y="735" type="line"/>
      <point x="639" y="735" type="line" smooth="yes"/>
      <point x="670" y="735"/>
      <point x="688" y="719"/>
      <point x="690" y="684" type="curve"/>
      <point x="688" y="649"/>
      <point x="670" y="633"/>
      <point x="639" y="633" type="curve" smooth="yes"/>
      <point x="205" y="633" type="line"/>
      <point x="205" y="102" type="line"/>
      <point x="930" y="102" type="line" smooth="yes"/>
      <point x="961" y="102"/>
      <point x="979" y="86"/>
    </contour>
  </outline>
</glyph>
<glyph name="F" format="2">
  <advance width="1126"/>
  <unicode hex="0046"/>
  <outline>
    <contour>
      <point x="981" y="1280" type="curve"/>
      <point x="979" y="1245"/>
      <point x="961" y="1229"/>
      <point x="930" y="1229" type="curve" smooth="yes"/>
      <point x="205" y="1229" type="line"/>
      <point x="205" y="735" type="line"/>
      <point x="639" y="735" type="line" smooth="yes"/>
      <point x="670" y="735"/>
      <point x="688" y="719"/>
      <point x="690" y="684" type="curve"/>
      <point x="688" y="649"/>
      <point x="670" y="633"/>
      <point x="639" y="633" type="curve" smooth="yes"/>
      <point x="205" y="633" type="line"/>
      <point x="205" y="51" type="line" smooth="yes"/>
      <point x="205" y="20"/>
      <point x="188" y="2"/>
      <point x="154" y="0" type="curve"/>
      <point x="119" y="2"/>
      <point x="102" y="20"/>
      <point x="102" y="51" type="curve" smooth="yes"/>
      <point x="102" y="1280" type="line" smooth="yes"/>
      <point x="102" y="1315"/>
      <point x="119" y="1331"/>
      <point x="154" y="1331" type="curve" smooth="yes"/>
      <point x="930" y="1331" type="line" smooth="yes"/>
      <point x="961" y="1331"/>
      <point x="979" y="1315"/>
    </contour>
  </outline>
</glyph>
<glyph name="I" format="2">
  <advance width="614"/>
  <unicode hex="0049"/>
  <outline>
    <contour>
      <point x="479" y="51" type="curve"/>
      <point x="477" y="16"/>
      <point x="459" y="0"/>
      <point x="428" y="0" type="curve" smooth="yes"/>
      <point x="154" y="0" type="line" smooth="yes"/>
      <point x="123" y="0"/>
      <point x="104" y="16"/>
      <point x="102" y="51" type="curve"/>
      <point x="104" y="86"/>
      <point x="123" y="102"/>
      <point x="154" y="102" type="curve" smooth="yes"/>
      <point x="240" y="102" type="line"/>
      <point x="240" y="1229" type="line"/>
      <point x="143" y="1229" type="line" smooth="yes"/>
      <point x="113" y="1229"/>
      <point x="94" y="1245"/>
      <point x="92" y="1280" type="curve"/>
      <point x="94" y="1315"/>
      <point x="113" y="1331"/>
      <point x="143" y="1331" type="curve" smooth="yes"/>
      <point x="418" y="1331" type="line" smooth="yes"/>
      <point x="449" y="1331"/>
      <point x="467" y="1315"/>
      <point x="469" y="1280" type="curve"/>
      <point x="467" y="1245"/>
      <point x="449" y="1229"/>
      <point x="418" y="1229" type="curve" smooth="yes"/>
      <point x="342" y="1229" type="line"/>
      <point x="342" y="102" type="line"/>
      <point x="428" y="102" type="line" smooth="yes"/>
      <point x="459" y="102"/>
      <point x="477" y="86"/>
    </contour>
  </outline>
</glyph>
<glyph name="T" format="2">
  <advance width="1229"/>
  <unicode hex="0054"/>
  <outline>
    <contour>
      <point x="1204" y="1280" type="curve"/>
      <point x="1202" y="1245"/>
      <point x="1184" y="1229"/>
      <point x="1153" y="1229" type="curve" smooth="yes"/>
      <point x="705" y="1229" type="line"/>
      <point x="705" y="51" type="line" smooth="yes"/>
      <point x="705" y="20"/>
      <point x="688" y="2"/>
      <point x="653" y="0" type="curve"/>
      <point x="618" y="2"/>
      <point x="602" y="20"/>
      <point x="602" y="51" type="curve" smooth="yes"/>
      <point x="602" y="1229" type="line"/>
      <point x="154" y="1229" type="line" smooth="yes"/>
      <point x="123" y="1229"/>
      <point x="104" y="1245"/>
      <point x="102" y="1280" type="curve"/>
      <point x="104" y="1315"/>
      <point x="123" y="1331"/>
      <point x="154" y="1331" type="curve" smooth="yes"/>
      <point x="1153" y="1331" type="line" smooth="yes"/>
      <point x="1184" y="1331"/>
      <point x="1202" y="1315"/>
    </contour>
  </outline>
</glyph>
<glyph name="U" format="2">
  <advance width="1229"/>
  <unicode hex="0055"/>
  <outline>
    <contour>
      <point x="1065" y="479" type="line" smooth="yes"/>
      <point x="1065" y="345.991"/>
      <point x="1018" y="231.99"/>
      <point x="924" y="139" type="curve" smooth="yes"/>
      <point x="832.007" y="47.996"/>
      <point x="717" y="0"/>
      <point x="584" y="0" type="curve" smooth="yes"/>
      <point x="449" y="0"/>
      <point x="334" y="47"/>
      <point x="242" y="139" type="curve" smooth="yes"/>
      <point x="150" y="231"/>
      <point x="102" y="345.996"/>
      <point x="102" y="481" type="curve" smooth="yes"/>
      <point x="102" y="1280" type="line" smooth="yes"/>
      <point x="102" y="1311"/>
      <point x="119" y="1329"/>
      <point x="154" y="1331" type="curve"/>
      <point x="188" y="1329"/>
      <point x="205" y="1311"/>
      <point x="205" y="1280" type="curve" smooth="yes"/>
      <point x="205" y="481" type="line" smooth="yes"/>
      <point x="205" y="374.997"/>
      <point x="240.749" y="283.75"/>
      <point x="313" y="211" type="curve" smooth="yes"/>
      <point x="385.748" y="137.75"/>
      <point x="476.996" y="102"/>
      <point x="584" y="102" type="curve" smooth="yes"/>
      <point x="690.004" y="102"/>
      <point x="780.002" y="139.001"/>
      <point x="852" y="211" type="curve" smooth="yes"/>
      <point x="925.998" y="284.998"/>
      <point x="963" y="374.993"/>
      <point x="963" y="479" type="curve" smooth="yes"/>
      <point x="963" y="1282" type="line" smooth="yes"/>
      <point x="963" y="1313"/>
      <point x="979" y="1331"/>
      <point x="1014" y="1333" type="curve"/>
      <point x="1049" y="1331"/>
      <point x="1065" y="1313"/>
      <point x="1065" y="1282" type="curve" smooth="yes"/>
    </contour>
  </outline>
</glyph>
<glyph name="X" format="2">
  <advance width="1229"/>
  <unicode hex="0058"/>
  <outline>
    <contour>
      <point x="1180" y="82" type="line" smooth="yes"/>
      <point x="1200.43" y="55.3193"/>
      <point x="1193.92" y="28.1125"/>
      <point x="1167" y="10" type="curve" smooth="yes"/>
      <point x="1138.92" y="-8.88725"/>
      <point x="1115.92" y="-3.06525"/>
      <point x="1096" y="23" type="curve" smooth="yes"/>
      <point x="649" y="608" type="line"/>
      <point x="199" y="20" type="line" smooth="yes"/>
      <point x="178.579" y="-6.68325"/>
      <point x="153.761" y="-10.3185"/>
      <point x="127" y="10" type="curve" smooth="yes"/>
      <point x="99.758" y="30.6835"/>
      <point x="96.207" y="54.8398"/>
      <point x="117" y="82" type="curve" smooth="yes"/>
      <point x="584" y="692" type="line"/>
      <point x="154" y="1255" type="line" smooth="yes"/>
      <point x="134.089" y="1281.07"/>
      <point x="141" y="1305"/>
      <point x="168" y="1323" type="curve" smooth="yes"/>
      <point x="195" y="1341"/>
      <point x="219.592" y="1337.7"/>
      <point x="240" y="1311" type="curve" smooth="yes"/>
      <point x="649" y="776" type="line"/>
      <point x="1061" y="1311" type="line" smooth="yes"/>
      <point x="1081.01" y="1336.99"/>
      <point x="1105.94" y="1341.93"/>
      <point x="1133" y="1321" type="curve" smooth="yes"/>
      <point x="1158.95" y="1300.93"/>
      <point x="1162.33" y="1276.75"/>
      <point x="1141" y="1249" type="curve" smooth="yes"/>
      <point x="713" y="692" type="line"/>
    </contour>
  </outline>
</glyph>
<glyph name="b" format="2">
  <advance width="819"/>
  <unicode hex="0062"/>
  <outline>
    <contour>
      <point x="717" y="342" type="curve" smooth="yes"/>
      <point x="717" y="252"/>
      <point x="688.14" y="173.884"/>
      <point x="631" y="106" type="curve" smooth="yes"/>
      <point x="571.138" y="34.8812"/>
      <point x="498" y="0"/>
      <point x="410" y="0" type="curve" smooth="yes"/>
      <point x="330" y="0"/>
      <point x="262" y="31"/>
      <point x="205" y="90" type="curve"/>
      <point x="205" y="51" type="line" smooth="yes"/>
      <point x="205" y="20"/>
      <point x="188" y="2"/>
      <point x="154" y="0" type="curve"/>
      <point x="119" y="2"/>
      <point x="102" y="20"/>
      <point x="102" y="51" type="curve" smooth="yes"/>
      <point x="102" y="1280" type="line" smooth="yes"/>
      <point x="102" y="1311"/>
      <point x="119" y="1329"/>
      <point x="154" y="1331" type="curve"/>
      <point x="188" y="1329"/>
      <point x="205" y="1311"/>
      <point x="205" y="1280" type="curve" smooth="yes"/>
      <point x="205" y="594" type="line"/>
      <point x="262" y="653"/>
      <point x="330" y="684"/>
      <point x="410" y="684" type="curve" smooth="yes"/>
      <point x="500" y="684"/>
      <point x="573.234" y="649.199"/>
      <point x="633" y="578" type="curve" smooth="yes"/>
      <point x="688.236" y="512.196"/>
      <point x="717" y="434"/>
    </contour>
    <contour>
      <point x="614" y="342" type="curve" smooth="yes"/>
      <point x="614" y="401"/>
      <point x="596.251" y="457.197"/>
      <point x="559" y="504" type="curve" smooth="yes"/>
      <point x="518.249" y="555.2"/>
      <point x="469" y="582"/>
      <point x="410" y="582" type="curve" smooth="yes"/>
      <point x="352" y="582"/>
      <point x="303" y="557"/>
      <point x="264" y="506" type="curve" smooth="yes"/>
      <point x="225" y="455"/>
      <point x="205" y="401"/>
      <point x="205" y="342" type="curve" smooth="yes"/>
      <point x="205" y="283"/>
      <point x="225" y="229"/>
      <point x="264" y="178" type="curve" smooth="yes"/>
      <point x="303" y="127"/>
      <point x="352" y="102"/>
      <point x="410" y="102" type="curve" smooth="yes"/>
      <point x="467" y="102"/>
      <point x="516" y="127"/>
      <point x="555" y="178" type="curve" smooth="yes"/>
      <point x="594" y="229"/>
      <point x="614" y="283"/>
    </contour>
  </outline>
</glyph>
<glyph name="g" format="2">
  <advance width="819"/>
  <unicode hex="0067"/>
  <outline>
    <contour>
      <point x="717" y="-268" type="line" smooth="yes"/>
      <point x="717" y="-369"/>
      <point x="692.18" y="-459.112"/>
      <point x="641" y="-541" type="curve" smooth="yes"/>
      <point x="582.182" y="-635.109"/>
      <point x="506.004" y="-682"/>
      <point x="412" y="-682" type="curve" smooth="yes"/>
      <point x="312.996" y="-682"/>
      <point x="227" y="-633"/>
      <point x="156" y="-535" type="curve"/>
      <point x="145" y="-524"/>
      <point x="139" y="-514"/>
      <point x="139" y="-500" type="curve" smooth="yes"/>
      <point x="139" y="-465"/>
      <point x="156" y="-449"/>
      <point x="190" y="-449" type="curve" smooth="yes"/>
      <point x="205" y="-449"/>
      <point x="216.668" y="-452.311"/>
      <point x="227" y="-463" type="curve" smooth="yes"/>
      <point x="274.674" y="-512.318"/>
      <point x="303" y="-539"/>
      <point x="309" y="-545" type="curve"/>
      <point x="340" y="-567"/>
      <point x="375" y="-580"/>
      <point x="414" y="-580" type="curve" smooth="yes"/>
      <point x="473" y="-580"/>
      <point x="522.917" y="-541.958"/>
      <point x="563" y="-471" type="curve" smooth="yes"/>
      <point x="596.919" y="-410.954"/>
      <point x="614" y="-348.004"/>
      <point x="614" y="-281" type="curve" smooth="yes"/>
      <point x="614" y="90" type="line"/>
      <point x="557" y="31"/>
      <point x="489" y="0"/>
      <point x="410" y="0" type="curve" smooth="yes"/>
      <point x="322" y="0"/>
      <point x="247.863" y="34.8812"/>
      <point x="188" y="106" type="curve" smooth="yes"/>
      <point x="130.86" y="173.884"/>
      <point x="102" y="252"/>
      <point x="102" y="342" type="curve" smooth="yes"/>
      <point x="102" y="432"/>
      <point x="130.451" y="512.614"/>
      <point x="188" y="580" type="curve" smooth="yes"/>
      <point x="247.451" y="649.613"/>
      <point x="322" y="684"/>
      <point x="410" y="684" type="curve" smooth="yes"/>
      <point x="489" y="684"/>
      <point x="557" y="653"/>
      <point x="614" y="594" type="curve"/>
      <point x="614" y="633" type="line" smooth="yes"/>
      <point x="614" y="664"/>
      <point x="631" y="682"/>
      <point x="666" y="684" type="curve"/>
      <point x="700" y="682"/>
      <point x="717" y="664"/>
      <point x="717" y="633" type="curve" smooth="yes"/>
    </contour>
    <contour>
      <point x="614" y="342" type="curve" smooth="yes"/>
      <point x="614" y="401"/>
      <point x="596.251" y="457.197"/>
      <point x="559" y="504" type="curve" smooth="yes"/>
      <point x="518.249" y="555.2"/>
      <point x="469" y="582"/>
      <point x="410" y="582" type="curve" smooth="yes"/>
      <point x="352" y="582"/>
      <point x="303" y="557"/>
      <point x="264" y="506" type="curve" smooth="yes"/>
      <point x="225" y="455"/>
      <point x="205" y="401"/>
      <point x="205" y="342" type="curve" smooth="yes"/>
      <point x="205" y="283"/>
      <point x="225" y="229"/>
      <point x="264" y="178" type="curve" smooth="yes"/>
      <point x="303" y="127"/>
      <point x="352" y="102"/>
      <point x="410" y="102" type="curve" smooth="yes"/>
      <point x="467" y="102"/>
      <point x="516" y="127"/>
      <point x="555" y="178" type="curve" smooth="yes"/>
      <point x="594" y="229"/>
      <point x="614" y="283"/>
    </contour>
  </outline>
</glyph>
<glyph name="q" format="2">
  <advance width="819"/>
  <unicode hex="0071"/>
  <outline>
    <contour>
      <point x="1192" y="-494" type="curve" smooth="yes"/>
      <point x="1192" y="-508"/>
      <point x="1184.01" y="-522.004"/>
      <point x="1169" y="-539" type="curve" smooth="yes"/>
      <point x="1086.01" y="-633.003"/>
      <point x="999.001" y="-680.133"/>
      <point x="915" y="-682" type="curve" smooth="yes"/>
      <point x="819.006" y="-684.133"/>
      <point x="744.144" y="-646.886"/>
      <point x="688" y="-575" type="curve" smooth="yes"/>
      <point x="637.147" y="-509.889"/>
      <point x="610" y="-428"/>
      <point x="610" y="-330" type="curve" smooth="yes"/>
      <point x="610" y="86" type="line"/>
      <point x="553" y="29"/>
      <point x="485" y="0"/>
      <point x="410" y="0" type="curve" smooth="yes"/>
      <point x="322" y="0"/>
      <point x="247.863" y="34.8812"/>
      <point x="188" y="106" type="curve" smooth="yes"/>
      <point x="130.86" y="173.884"/>
      <point x="102" y="252"/>
      <point x="102" y="342" type="curve" smooth="yes"/>
      <point x="102" y="432"/>
      <point x="130.451" y="512.614"/>
      <point x="188" y="580" type="curve" smooth="yes"/>
      <point x="247.451" y="649.613"/>
      <point x="322" y="684"/>
      <point x="410" y="684" type="curve" smooth="yes"/>
      <point x="485" y="684"/>
      <point x="553" y="655"/>
      <point x="610" y="598" type="curve"/>
      <point x="610" y="633" type="line" smooth="yes"/>
      <point x="610" y="664"/>
      <point x="627" y="682"/>
      <point x="662" y="684" type="curve"/>
      <point x="696" y="682"/>
      <point x="713" y="664.002"/>
      <point x="713" y="633" type="curve" smooth="yes"/>
      <point x="713" y="-330" type="line" smooth="yes"/>
      <point x="713" y="-393.004"/>
      <point x="729.987" y="-450.009"/>
      <point x="764" y="-498" type="curve" smooth="yes"/>
      <point x="802.988" y="-553.012"/>
      <point x="852" y="-580"/>
      <point x="913" y="-580" type="curve" smooth="yes"/>
      <point x="952" y="-580"/>
      <point x="985.269" y="-570.364"/>
      <point x="1014" y="-549" type="curve" smooth="yes"/>
      <point x="1024.28" y="-541.359"/>
      <point x="1049.44" y="-514.411"/>
      <point x="1090" y="-471" type="curve" smooth="yes"/>
      <point x="1106.44" y="-453.403"/>
      <point x="1122" y="-444"/>
      <point x="1139" y="-444" type="curve" smooth="yes"/>
      <point x="1163" y="-444"/>
      <point x="1192" y="-469"/>
    </contour>
    <contour>
      <point x="608" y="340" type="curve" smooth="yes"/>
      <point x="608" y="403"/>
      <point x="592.312" y="457.235"/>
      <point x="557" y="504" type="curve" smooth="yes"/>
      <point x="518.313" y="555.235"/>
      <point x="469" y="582"/>
      <point x="410" y="582" type="curve" smooth="yes"/>
      <point x="352" y="582"/>
      <point x="303" y="557"/>
      <point x="264" y="506" type="curve" smooth="yes"/>
      <point x="225" y="455"/>
      <point x="205" y="401"/>
      <point x="205" y="342" type="curve" smooth="yes"/>
      <point x="205" y="283"/>
      <point x="225" y="229"/>
      <point x="264" y="178" type="curve" smooth="yes"/>
      <point x="303" y="127"/>
      <point x="352" y="102"/>
      <point x="410" y="102" type="curve" smooth="yes"/>
      <point x="469" y="102"/>
      <point x="516.313" y="126.765"/>
      <point x="555" y="178" type="curve" smooth="yes"/>
      <point x="590.312" y="224.765"/>
      <point x="608" y="279"/>
    </contour>
  </outline>
</glyph>
<glyph name="v" format="2">
  <advance width="819"/>
  <unicode hex="0076"/>
  <outline>
    <contour>
      <point x="686" y="610" type="curve" smooth="yes"/>
      <point x="434" y="16" type="line"/>
      <point x="424" y="6"/>
      <point x="412" y="0"/>
      <point x="397" y="0" type="curve" smooth="yes"/>
      <point x="383" y="0"/>
      <point x="373" y="6"/>
      <point x="362" y="16" type="curve"/>
      <point x="113" y="610" type="line" smooth="yes"/>
      <point x="99.496" y="642.215"/>
      <point x="107.856" y="665.348"/>
      <point x="139" y="678" type="curve" smooth="yes"/>
      <point x="171.861" y="691.35"/>
      <point x="194.237" y="680.1"/>
      <point x="207" y="649" type="curve" smooth="yes"/>
      <point x="397" y="186" type="line"/>
      <point x="592" y="649" type="line" smooth="yes"/>
      <point x="605.048" y="679.982"/>
      <point x="627.023" y="691.054"/>
      <point x="657" y="678" type="curve" smooth="yes"/>
      <point x="689.025" y="664.054"/>
      <point x="699.129" y="640.946"/>
    </contour>
  </outline>
</glyph>
<glyph name="x" format="2">
  <advance width="819"/>
  <unicode hex="0078"/>
  <outline>
    <contour>
      <point x="694" y="598" type="curve" smooth="yes"/>
      <point x="475" y="342" type="line"/>
      <point x="686" y="86" type="line" smooth="yes"/>
      <point x="708.153" y="59.1227"/>
      <point x="707.247" y="34.706"/>
      <point x="680" y="12" type="curve" smooth="yes"/>
      <point x="653.244" y="-10.2962"/>
      <point x="629.946" y="-9.04445"/>
      <point x="608" y="18" type="curve" smooth="yes"/>
      <point x="410" y="262" type="line"/>
      <point x="201" y="18" type="line" smooth="yes"/>
      <point x="178.418" y="-8.36375"/>
      <point x="155.755" y="-10.2963"/>
      <point x="129" y="12" type="curve" smooth="yes"/>
      <point x="101.753" y="34.706"/>
      <point x="100.047" y="56.959"/>
      <point x="123" y="84" type="curve" smooth="yes"/>
      <point x="342" y="342" type="line"/>
      <point x="131" y="600" type="line" smooth="yes"/>
      <point x="108.951" y="626.961"/>
      <point x="111.037" y="649.956"/>
      <point x="137" y="672" type="curve" smooth="yes"/>
      <point x="164.038" y="694.957"/>
      <point x="186.855" y="692.883"/>
      <point x="209" y="666" type="curve" smooth="yes"/>
      <point x="410" y="422" type="line"/>
      <point x="616" y="664" type="line" smooth="yes"/>
      <point x="638.501" y="690.433"/>
      <point x="662.037" y="692.044"/>
      <point x="688" y="670" type="curve" smooth="yes"/>
      <point x="715.038" y="647.043"/>
      <point x="717.057" y="624.952"/>
    </contour>
  </outline>
</glyph>
<glyph name="z" format="2">
  <advance width="819"/>
  <unicode hex="007A"/>
  <outline>
    <contour>
      <point x="686" y="51" type="curve" smooth="yes"/>
      <point x="686" y="16"/>
      <point x="670.002" y="0"/>
      <point x="635" y="0" type="curve" smooth="yes"/>
      <point x="152" y="0" type="line" smooth="yes"/>
      <point x="116.999" y="0"/>
      <point x="100" y="16"/>
      <point x="100" y="51" type="curve" smooth="yes"/>
      <point x="100" y="61"/>
      <point x="102.426" y="71.6455"/>
      <point x="109" y="80" type="curve" smooth="yes"/>
      <point x="504" y="582" type="line"/>
      <point x="223" y="582" type="line" smooth="yes"/>
      <point x="193" y="582"/>
      <point x="174" y="598"/>
      <point x="172" y="633" type="curve"/>
      <point x="174" y="668"/>
      <point x="192.998" y="684"/>
      <point x="223" y="684" type="curve" smooth="yes"/>
      <point x="610" y="684" type="line" smooth="yes"/>
      <point x="645.002" y="684"/>
      <point x="662" y="668"/>
      <point x="662" y="633" type="curve" smooth="yes"/>
      <point x="662" y="627"/>
      <point x="659" y="621"/>
      <point x="655" y="610" type="curve"/>
      <point x="254" y="102" type="line"/>
      <point x="635" y="102" type="line" smooth="yes"/>
      <point x="670" y="102"/>
      <point x="686" y="86"/>
    </contour>
  </outline>
</glyph>
<glyph name="bar" format="2">
  <advance width="943"/>
  <unicode hex="007C"/>
  <outline>
    <contour>
      <point x="3000" y="1527" type="line"/>
      <point x="0" y="1527" type="line"/>
      <point x="0" y="1562" type="line"/>
      <point x="3000" y="1562" type="line"/>
    </contour>
    <contour>
      <point x="3000" y="-35" type="line"/>
      <point x="0" y="-35" type="line"/>
      <point x="0" y="0" type="line"/>
      <point x="3000" y="0" type="line"/>
    </contour>
  </outline>
</glyph>
<glyph name="exclamdown" format="2">
  <advance width="819"/>
  <unicode hex="00A1"/>
  <outline>
    <contour>
      <point x="469" y="1272" type="curve" smooth="yes"/>
      <point x="469" y="1233"/>
      <point x="449" y="1212"/>
      <point x="410" y="1212" type="curve" smooth="yes"/>
      <point x="371" y="1212"/>
      <point x="350" y="1233"/>
      <point x="350" y="1272" type="curve" smooth="yes"/>
      <point x="350" y="1311"/>
      <point x="371" y="1331"/>
      <point x="410" y="1331" type="curve" smooth="yes"/>
      <point x="449" y="1331"/>
      <point x="469" y="1311"/>
    </contour>
    <contour>
      <point x="461" y="51" type="line" smooth="yes"/>
      <point x="461" y="20"/>
      <point x="444" y="2"/>
      <point x="410" y="0" type="curve"/>
      <point x="375" y="2"/>
      <point x="358" y="20"/>
      <point x="358" y="51" type="curve" smooth="yes" name=".hr01"/>
      <point x="358" y="973" type="line" smooth="yes"/>
      <point x="358" y="1004"/>
      <point x="375" y="1022"/>
      <point x="410" y="1024" type="curve"/>
      <point x="444" y="1022"/>
      <point x="461" y="1004"/>
      <point x="461" y="973" type="curve" smooth="yes"/>
    </contour>
  </outline>
</glyph>
<glyph name="macron" format="2">
  <advance width="686"/>
  <unicode hex="00AF"/>
  <outline>
    <contour>
      <point x="686" y="1198" type="line"/>
      <point x="0" y="1198" type="line"/>
      <point x="0" y="1329" type="line"/>
      <point x="686" y="1329" type="line"/>
    </contour>
  </outline>
</glyph>
<glyph name="plusminus" format="2">
  <advance width="1024"/>
  <unicode hex="00B1"/>
  <outline>
    <contour>
      <point x="877" y="920" type="curve"/>
      <point x="874" y="885"/>
      <point x="856" y="868"/>
      <point x="825" y="868" type="curve" smooth="yes"/>
      <point x="545" y="868" type="line"/>
      <point x="545" y="588" type="line" smooth="yes"/>
      <point x="545" y="557"/>
      <point x="528" y="539"/>
      <point x="494" y="537" type="curve"/>
      <point x="459" y="539"/>
      <point x="442" y="557"/>
      <point x="442" y="588" type="curve" smooth="yes"/>
      <point x="442" y="868" type="line"/>
      <point x="162" y="868" type="line" smooth="yes"/>
      <point x="131" y="868"/>
      <point x="113" y="885"/>
      <point x="111" y="920" type="curve"/>
      <point x="113" y="954"/>
      <point x="131" y="971"/>
      <point x="162" y="971" type="curve" smooth="yes"/>
      <point x="442" y="971" type="line"/>
      <point x="442" y="1251" type="line" smooth="yes"/>
      <point x="442" y="1282"/>
      <point x="459" y="1300"/>
      <point x="494" y="1303" type="curve"/>
      <point x="528" y="1300"/>
      <point x="545" y="1282"/>
      <point x="545" y="1251" type="curve" smooth="yes"/>
      <point x="545" y="971" type="line"/>
      <point x="825" y="971" type="line" smooth="yes"/>
      <point x="856" y="971"/>
      <point x="874" y="954"/>
    </contour>
    <contour>
      <point x="913" y="256" type="curve"/>
      <point x="911" y="221"/>
      <point x="893" y="205"/>
      <point x="862" y="205" type="curve" smooth="yes"/>
      <point x="180" y="205" type="line" smooth="yes"/>
      <point x="150" y="205"/>
      <point x="131" y="221"/>
      <point x="129" y="256" type="curve"/>
      <point x="131" y="291"/>
      <point x="150" y="307"/>
      <point x="180" y="307" type="curve" smooth="yes"/>
      <point x="862" y="307" type="line" smooth="yes"/>
      <point x="893" y="307"/>
      <point x="911" y="291"/>
    </contour>
  </outline>
</glyph>
<glyph name="Icircumflex" format="2">
  <advance width="717"/>
  <unicode hex="00CE"/>
  <outline>
    <contour>
      <point x="500" y="1169" type="curve" smooth="yes"/>
      <point x="500" y="1145"/>
      <point x="471" y="1116"/>
      <point x="446" y="1116" type="curve" smooth="yes"/>
      <point x="434" y="1116"/>
      <point x="422.465" y="1122.44"/>
      <point x="412" y="1133" type="curve" smooth="yes"/>
      <point x="301" y="1245" type="line"/>
      <point x="190" y="1133" type="line" smooth="yes"/>
      <point x="179.535" y="1122.44"/>
      <point x="168" y="1116"/>
      <point x="156" y="1116" type="curve" smooth="yes"/>
      <point x="131" y="1116"/>
      <point x="102" y="1145"/>
      <point x="102" y="1169" type="curve" smooth="yes"/>
      <point x="102" y="1182"/>
      <point x="109.034" y="1193.97"/>
      <point x="119" y="1204" type="curve" smooth="yes"/>
      <point x="266" y="1352" type="line"/>
      <point x="303" y="1368" type="line"/>
      <point x="309" y="1366"/>
      <point x="322" y="1362"/>
      <point x="338" y="1352" type="curve"/>
      <point x="483" y="1204" type="line" smooth="yes"/>
      <point x="492.897" y="1193.9"/>
      <point x="500" y="1182"/>
    </contour>
    <contour>
      <point x="489" y="51" type="curve"/>
      <point x="487" y="16"/>
      <point x="469" y="0"/>
      <point x="438" y="0" type="curve" smooth="yes"/>
      <point x="164" y="0" type="line" smooth="yes"/>
      <point x="133" y="0"/>
      <point x="115" y="16"/>
      <point x="113" y="51" type="curve"/>
      <point x="115" y="86"/>
      <point x="133" y="102"/>
      <point x="164" y="102" type="curve" smooth="yes"/>
      <point x="250" y="102" type="line"/>
      <point x="250" y="1006" type="line"/>
      <point x="154" y="1006" type="line" smooth="yes"/>
      <point x="123" y="1006"/>
      <point x="104" y="1022"/>
      <point x="102" y="1057" type="curve"/>
      <point x="104" y="1092"/>
      <point x="123" y="1108"/>
      <point x="154" y="1108" type="curve" smooth="yes"/>
      <point x="428" y="1108" type="line" smooth="yes"/>
      <point x="459" y="1108"/>
      <point x="477" y="1092"/>
      <point x="479" y="1057" type="curve"/>
      <point x="477" y="1022"/>
      <point x="459" y="1006"/>
      <point x="428" y="1006" type="curve" smooth="yes"/>
      <point x="352" y="1006" type="line"/>
      <point x="352" y="102" type="line"/>
      <point x="438" y="102" type="line" smooth="yes"/>
      <point x="469" y="102"/>
      <point x="487" y="86"/>
    </contour>
  </outline>
</glyph>
<glyph name="Otilde" format="2">
  <advance width="1331"/>
  <unicode hex="00D5"/>
  <outline>
    <contour>
      <point x="944" y="1272" type="curve"/>
      <point x="874" y="1225"/>
      <point x="809" y="1200"/>
      <point x="748" y="1200" type="curve" smooth="yes"/>
      <point x="731" y="1200"/>
      <point x="701.897" y="1208.76"/>
      <point x="664" y="1225" type="curve" smooth="yes"/>
      <point x="624.895" y="1241.76"/>
      <point x="590" y="1249" name=".hr01"/>
      <point x="561" y="1249" type="curve" smooth="yes"/>
      <point x="518" y="1249"/>
      <point x="475" y="1235"/>
      <point x="436" y="1206" type="curve"/>
      <point x="412" y="1184"/>
      <point x="387" y="1186"/>
      <point x="365" y="1208" type="curve" smooth="yes"/>
      <point x="342" y="1231"/>
      <point x="342" y="1255"/>
      <point x="365" y="1280" type="curve"/>
      <point x="434" y="1327"/>
      <point x="500" y="1352"/>
      <point x="561" y="1352" type="curve" smooth="yes"/>
      <point x="592" y="1352"/>
      <point x="625.982" y="1342.96"/>
      <point x="666" y="1325" type="curve" smooth="yes"/>
      <point x="703.98" y="1307.96"/>
      <point x="733" y="1300" name=".hr02"/>
      <point x="748" y="1300" type="curve" smooth="yes"/>
      <point x="791" y="1300"/>
      <point x="834" y="1315"/>
      <point x="872" y="1343" type="curve"/>
      <point x="897" y="1366"/>
      <point x="921" y="1366"/>
      <point x="944" y="1343" type="curve" smooth="yes"/>
      <point x="967" y="1320"/>
      <point x="967" y="1296"/>
    </contour>
    <contour>
      <point x="1214" y="557" type="curve" smooth="yes"/>
      <point x="1214" y="401"/>
      <point x="1161" y="270.002"/>
      <point x="1053" y="162" type="curve" smooth="yes"/>
      <point x="943.997" y="52.9967"/>
      <point x="813.004" y="0"/>
      <point x="657" y="0" type="curve" smooth="yes"/>
      <point x="501.996" y="0"/>
      <point x="370" y="52.9943"/>
      <point x="262" y="162" type="curve" smooth="yes"/>
      <point x="154.996" y="270"/>
      <point x="102" y="401"/>
      <point x="102" y="557" type="curve" smooth="yes"/>
      <point x="102" y="713"/>
      <point x="154.996" y="844"/>
      <point x="262" y="952" type="curve" smooth="yes"/>
      <point x="370" y="1061.01"/>
      <point x="501.995" y="1114"/>
      <point x="657" y="1114" type="curve" smooth="yes"/>
      <point x="813.004" y="1114"/>
      <point x="943.997" y="1061"/>
      <point x="1053" y="952" type="curve" smooth="yes"/>
      <point x="1161" y="843.998"/>
      <point x="1214" y="713"/>
    </contour>
    <contour>
      <point x="1112" y="555" type="curve" smooth="yes"/>
      <point x="1112" y="682"/>
      <point x="1067.25" y="788.251"/>
      <point x="979" y="877" type="curve" smooth="yes"/>
      <point x="891.251" y="965.247"/>
      <point x="784" y="1010"/>
      <point x="657" y="1010" type="curve" smooth="yes"/>
      <point x="530" y="1010"/>
      <point x="423.749" y="965.248"/>
      <point x="336" y="877" type="curve" smooth="yes"/>
      <point x="247.752" y="788.251"/>
      <point x="205" y="682"/>
      <point x="205" y="555" type="curve" smooth="yes"/>
      <point x="205" y="428"/>
      <point x="247.752" y="321.749"/>
      <point x="336" y="233" type="curve" smooth="yes"/>
      <point x="423.749" y="144.753"/>
      <point x="530" y="102"/>
      <point x="657" y="102" type="curve" smooth="yes"/>
      <point x="784" y="102"/>
      <point x="891.251" y="144.752"/>
      <point x="979" y="233" type="curve" smooth="yes"/>
      <point x="1067.25" y="321.749"/>
      <point x="1112" y="428"/>
    </contour>
  </outline>
</glyph>
<glyph name="Ucircumflex" format="2">
  <advance width="1229"/>
  <unicode hex="00DB"/>
  <outline>
    <contour>
      <point x="782" y="1169" type="curve" smooth="yes"/>
      <point x="782" y="1145"/>
      <point x="754" y="1116"/>
      <point x="729" y="1116" type="curve" smooth="yes"/>
      <point x="717" y="1116"/>
      <point x="704.417" y="1122.39"/>
      <point x="694" y="1133" type="curve" smooth="yes"/>
      <point x="584" y="1245" type="line"/>
      <point x="473" y="1133" type="line" smooth="yes"/>
      <point x="462.535" y="1122.44"/>
      <point x="451" y="1116"/>
      <point x="438" y="1116" type="curve" smooth="yes"/>
      <point x="414" y="1116"/>
      <point x="385" y="1145"/>
      <point x="385" y="1169" type="curve" smooth="yes"/>
      <point x="385" y="1182"/>
      <point x="391" y="1194"/>
      <point x="401" y="1204" type="curve" smooth="yes"/>
      <point x="549" y="1352" type="line"/>
      <point x="586" y="1368" type="line"/>
      <point x="592" y="1366"/>
      <point x="604" y="1362"/>
      <point x="621" y="1352" type="curve"/>
      <point x="766" y="1204" type="line" smooth="yes"/>
      <point x="775.897" y="1193.9"/>
      <point x="782" y="1182"/>
    </contour>
    <contour>
      <point x="1065" y="479" type="line" smooth="yes"/>
      <point x="1065" y="345.998"/>
      <point x="1018" y="231.99"/>
      <point x="924" y="139" type="curve" smooth="yes"/>
      <point x="832.007" y="47.996"/>
      <point x="717" y="0"/>
      <point x="584" y="0" type="curve" smooth="yes"/>
      <point x="449" y="0"/>
      <point x="334" y="47"/>
      <point x="242" y="139" type="curve" smooth="yes"/>
      <point x="150" y="231"/>
      <point x="102" y="345.996"/>
      <point x="102" y="481" type="curve" smooth="yes"/>
      <point x="102" y="1047" type="line" smooth="yes"/>
      <point x="102" y="1077"/>
      <point x="119" y="1096"/>
      <point x="154" y="1098" type="curve"/>
      <point x="188" y="1096"/>
      <point x="205" y="1077"/>
      <point x="205" y="1047" type="curve" smooth="yes"/>
      <point x="205" y="481" type="line" smooth="yes"/>
      <point x="205" y="374.997"/>
      <point x="240.749" y="283.75"/>
      <point x="313" y="211" type="curve" smooth="yes"/>
      <point x="385.748" y="137.75"/>
      <point x="476.996" y="102"/>
      <point x="584" y="102" type="curve" smooth="yes"/>
      <point x="690.004" y="102"/>
      <point x="780.002" y="139.001"/>
      <point x="852" y="211" type="curve" smooth="yes"/>
      <point x="925.998" y="284.998"/>
      <point x="963" y="374.999"/>
      <point x="963" y="479" type="curve" smooth="yes"/>
      <point x="963" y="1044" type="line" smooth="yes"/>
      <point x="963" y="1075"/>
      <point x="979" y="1094"/>
      <point x="1014" y="1096" type="curve"/>
      <point x="1049" y="1094"/>
      <point x="1065" y="1075"/>
      <point x="1065" y="1044" type="curve" smooth="yes"/>
    </contour>
  </outline>
</glyph>
<glyph name="Udieresis" format="2">
  <advance width="1229"/>
  <unicode hex="00DC"/>
  <outline>
    <contour>
      <point x="805" y="1200" type="curve" smooth="yes"/>
      <point x="805" y="1159"/>
      <point x="784" y="1139"/>
      <point x="741" y="1139" type="curve" smooth="yes"/>
      <point x="700" y="1139"/>
      <point x="680" y="1159"/>
      <point x="680" y="1200" type="curve" smooth="yes"/>
      <point x="680" y="1243"/>
      <point x="700" y="1264"/>
      <point x="741" y="1264" type="curve" smooth="yes"/>
      <point x="784" y="1264"/>
      <point x="805" y="1243"/>
    </contour>
    <contour>
      <point x="487" y="1200" type="curve" smooth="yes"/>
      <point x="487" y="1159"/>
      <point x="467" y="1139"/>
      <point x="426" y="1139" type="curve" smooth="yes"/>
      <point x="383" y="1139"/>
      <point x="362" y="1159"/>
      <point x="362" y="1200" type="curve" smooth="yes"/>
      <point x="362" y="1243"/>
      <point x="383" y="1264"/>
      <point x="426" y="1264" type="curve" smooth="yes"/>
      <point x="467" y="1264"/>
      <point x="487" y="1243"/>
    </contour>
    <contour>
      <point x="1065" y="479" type="line" smooth="yes"/>
      <point x="1065" y="345.998"/>
      <point x="1018" y="231.99"/>
      <point x="924" y="139" type="curve" smooth="yes"/>
      <point x="832.007" y="47.996"/>
      <point x="717" y="0"/>
      <point x="584" y="0" type="curve" smooth="yes"/>
      <point x="449" y="0"/>
      <point x="334" y="47"/>
      <point x="242" y="139" type="curve" smooth="yes"/>
      <point x="150" y="231"/>
      <point x="102" y="345.996"/>
      <point x="102" y="481" type="curve" smooth="yes"/>
      <point x="102" y="1047" type="line" smooth="yes"/>
      <point x="102" y="1077"/>
      <point x="119" y="1096"/>
      <point x="154" y="1098" type="curve"/>
      <point x="188" y="1096"/>
      <point x="205" y="1077"/>
      <point x="205" y="1047" type="curve" smooth="yes"/>
      <point x="205" y="481" type="line" smooth="yes"/>
      <point x="205" y="374.997"/>
      <point x="240.749" y="283.75"/>
      <point x="313" y="211" type="curve" smooth="yes"/>
      <point x="385.748" y="137.75"/>
      <point x="476.996" y="102"/>
      <point x="584" y="102" type="curve" smooth="yes"/>
      <point x="690.004" y="102"/>
      <point x="780.002" y="139.001"/>
      <point x="852" y="211" type="curve" smooth="yes"/>
      <point x="925.998" y="284.998"/>
      <point x="963" y="374.999"/>
      <point x="963" y="479" type="curve" smooth="yes"/>
      <point x="963" y="1044" type="line" smooth="yes"/>
      <point x="963" y="1075"/>
      <point x="979" y="1094"/>
      <point x="1014" y="1096" type="curve"/>
      <point x="1049" y="1094"/>
      <point x="1065" y="1075"/>
      <point x="1065" y="1044" type="curve" smooth="yes"/>
    </contour>
  </outline>
</glyph>
<glyph name="ccedilla" format="2">
  <advance width="819"/>
  <unicode hex="00E7"/>
  <outline>
    <contour>
      <point x="680" y="182" type="curve" smooth="yes"/>
      <point x="627.135" y="73.9378"/>
      <point x="549" y="14"/>
      <point x="449" y="2" type="curve"/>
      <point x="438" y="-49" type="line"/>
      <point x="510" y="-55"/>
      <point x="561.607" y="-119.032"/>
      <point x="567" y="-186" type="curve" smooth="yes"/>
      <point x="573.607" y="-268.032"/>
      <point x="517.995" y="-341.939"/>
      <point x="430" y="-350" type="curve" smooth="yes"/>
      <point x="386.995" y="-353.939"/>
      <point x="346" y="-340"/>
      <point x="307" y="-307" type="curve"/>
      <point x="354" y="-246" type="line"/>
      <point x="373" y="-266"/>
      <point x="395.056" y="-277.464"/>
      <point x="422" y="-274" type="curve" smooth="yes"/>
      <point x="465.062" y="-268.464"/>
      <point x="494.867" y="-233.01"/>
      <point x="492" y="-190" type="curve" smooth="yes"/>
      <point x="488.868" y="-143.011"/>
      <point x="460.991" y="-121.584"/>
      <point x="410" y="-123" type="curve" smooth="yes"/>
      <point x="338" y="-125" type="line"/>
      <point x="365" y="4" type="line" name=".hr01"/>
      <point x="289" y="16"/>
      <point x="225.082" y="55.0617"/>
      <point x="176" y="121" type="curve" smooth="yes"/>
      <point x="126.082" y="188.062"/>
      <point x="102" y="262"/>
      <point x="102" y="342" type="curve" smooth="yes"/>
      <point x="102" y="432"/>
      <point x="130.451" y="512.614"/>
      <point x="188" y="580" type="curve" smooth="yes"/>
      <point x="247.451" y="649.613"/>
      <point x="322" y="684"/>
      <point x="410" y="684" type="curve" smooth="yes"/>
      <point x="508" y="684"/>
      <point x="589.732" y="638.816"/>
      <point x="653" y="547" type="curve" smooth="yes"/>
      <point x="671.733" y="519.815"/>
      <point x="669.951" y="495.059"/>
      <point x="645" y="475" type="curve" smooth="yes"/>
      <point x="618.953" y="454.06"/>
      <point x="593.597" y="456.681"/>
      <point x="573" y="483" type="curve" smooth="yes"/>
      <point x="521.595" y="548.685"/>
      <point x="467" y="582"/>
      <point x="410" y="582" type="curve" smooth="yes"/>
      <point x="352" y="582"/>
      <point x="303" y="557"/>
      <point x="264" y="506" type="curve" smooth="yes"/>
      <point x="225" y="455"/>
      <point x="205" y="401"/>
      <point x="205" y="342" type="curve" smooth="yes"/>
      <point x="205" y="283"/>
      <point x="225" y="229"/>
      <point x="264" y="178" type="curve" smooth="yes"/>
      <point x="303" y="127"/>
      <point x="352" y="102"/>
      <point x="410" y="102" type="curve" smooth="yes"/>
      <point x="492" y="102"/>
      <point x="550.991" y="143"/>
      <point x="588" y="225" type="curve" smooth="yes"/>
      <point x="601.993" y="256.004"/>
      <point x="624.913" y="263.81"/>
      <point x="655" y="250" type="curve" smooth="yes"/>
      <point x="685.914" y="235.81"/>
      <point x="695.134" y="212.936"/>
    </contour>
  </outline>
</glyph>
<glyph name="egrave" format="2">
  <advance width="819"/>
  <unicode hex="00E8"/>
  <outline>
    <contour>
      <point x="629" y="772" type="curve" smooth="yes"/>
      <point x="629" y="748"/>
      <point x="600" y="719"/>
      <point x="575" y="719" type="curve" smooth="yes"/>
      <point x="563" y="719"/>
      <point x="551" y="725"/>
      <point x="541" y="735" type="curve" smooth="yes"/>
      <point x="307" y="969" type="line" smooth="yes"/>
      <point x="297" y="979"/>
      <point x="291" y="991"/>
      <point x="291" y="1004" type="curve" smooth="yes"/>
      <point x="291" y="1030"/>
      <point x="317" y="1057"/>
      <point x="344" y="1057" type="curve" smooth="yes"/>
      <point x="356" y="1057"/>
      <point x="368" y="1051"/>
      <point x="379" y="1040" type="curve" smooth="yes"/>
      <point x="612" y="807" type="line" smooth="yes"/>
      <point x="623" y="796"/>
      <point x="629" y="784"/>
    </contour>
    <contour>
      <point x="717" y="342" type="curve"/>
      <point x="205" y="342" type="line"/>
      <point x="205" y="283"/>
      <point x="225" y="229"/>
      <point x="264" y="178" type="curve" smooth="yes"/>
      <point x="303" y="127"/>
      <point x="352" y="102"/>
      <point x="410" y="102" type="curve" smooth="yes"/>
      <point x="477" y="102"/>
      <point x="530" y="131"/>
      <point x="569" y="186" type="curve"/>
      <point x="584" y="217"/>
      <point x="606" y="225"/>
      <point x="637" y="211" type="curve" smooth="yes"/>
      <point x="668" y="197"/>
      <point x="676" y="174"/>
      <point x="662" y="143" type="curve"/>
      <point x="594" y="47"/>
      <point x="510" y="0"/>
      <point x="410" y="0" type="curve" smooth="yes"/>
      <point x="322" y="0"/>
      <point x="247.863" y="34.8812"/>
      <point x="188" y="106" type="curve" smooth="yes"/>
      <point x="130.86" y="173.884"/>
      <point x="102" y="252"/>
      <point x="102" y="342" type="curve" smooth="yes"/>
      <point x="102" y="432"/>
      <point x="130.451" y="512.614"/>
      <point x="188" y="580" type="curve" smooth="yes"/>
      <point x="247.451" y="649.613"/>
      <point x="322" y="684"/>
      <point x="410" y="684" type="curve" smooth="yes"/>
      <point x="500" y="684"/>
      <point x="573.234" y="649.199"/>
      <point x="633" y="578" type="curve" smooth="yes"/>
      <point x="688.236" y="512.196"/>
      <point x="717" y="434"/>
    </contour>
    <contour>
      <point x="592" y="444" type="line"/>
      <point x="553" y="537"/>
      <point x="492" y="582"/>
      <point x="410" y="582" type="curve" smooth="yes"/>
      <point x="328" y="582"/>
      <point x="266" y="537"/>
      <point x="227" y="444" type="curve"/>
    </contour>
  </outline>
</glyph>
<glyph name="ocircumflex" format="2">
  <advance width="819"/>
  <unicode hex="00F4"/>
  <outline>
    <contour>
      <point x="713" y="825" type="curve" smooth="yes"/>
      <point x="713" y="801"/>
      <point x="684" y="772"/>
      <point x="659" y="772" type="curve" smooth="yes"/>
      <point x="647" y="772"/>
      <point x="635" y="778"/>
      <point x="625" y="788" type="curve" smooth="yes"/>
      <point x="426" y="987" type="line"/>
      <point x="229" y="788" type="line" smooth="yes"/>
      <point x="219.05" y="777.949"/>
      <point x="207" y="772"/>
      <point x="195" y="772" type="curve" smooth="yes"/>
      <point x="170" y="772"/>
      <point x="141" y="801"/>
      <point x="141" y="825" type="curve" smooth="yes"/>
      <point x="141" y="838"/>
      <point x="147.511" y="849.465"/>
      <point x="158" y="860" type="curve" smooth="yes"/>
      <point x="391" y="1094" type="line" smooth="yes"/>
      <point x="400.979" y="1104.02"/>
      <point x="414" y="1110"/>
      <point x="426" y="1110" type="curve" smooth="yes"/>
      <point x="428" y="1110" type="line" smooth="yes"/>
      <point x="440" y="1110"/>
      <point x="453.021" y="1104.02"/>
      <point x="463" y="1094" type="curve" smooth="yes"/>
      <point x="696" y="860" type="line" smooth="yes"/>
      <point x="706.489" y="849.465"/>
      <point x="713" y="838"/>
    </contour>
    <contour>
      <point x="717" y="342" type="curve" smooth="yes"/>
      <point x="717" y="252"/>
      <point x="688.14" y="173.884"/>
      <point x="631" y="106" type="curve" smooth="yes"/>
      <point x="571.138" y="34.8812"/>
      <point x="498" y="0"/>
      <point x="410" y="0" type="curve" smooth="yes"/>
      <point x="322" y="0"/>
      <point x="247.863" y="34.8812"/>
      <point x="188" y="106" type="curve" smooth="yes"/>
      <point x="130.86" y="173.884"/>
      <point x="102" y="252"/>
      <point x="102" y="342" type="curve" smooth="yes"/>
      <point x="102" y="432"/>
      <point x="130.451" y="512.614"/>
      <point x="188" y="580" type="curve" smooth="yes"/>
      <point x="247.451" y="649.613"/>
      <point x="322" y="684"/>
      <point x="410" y="684" type="curve" smooth="yes"/>
      <point x="500" y="684"/>
      <point x="573.234" y="649.199"/>
      <point x="633" y="578" type="curve" smooth="yes"/>
      <point x="688.236" y="512.196"/>
      <point x="717" y="434"/>
    </contour>
    <contour>
      <point x="614" y="342" type="curve" smooth="yes"/>
      <point x="614" y="401"/>
      <point x="596.251" y="457.197"/>
      <point x="559" y="504" type="curve" smooth="yes"/>
      <point x="518.249" y="555.2"/>
      <point x="469" y="582"/>
      <point x="410" y="582" type="curve" smooth="yes"/>
      <point x="352" y="582"/>
      <point x="303" y="557"/>
      <point x="264" y="506" type="curve" smooth="yes"/>
      <point x="225" y="455"/>
      <point x="205" y="401"/>
      <point x="205" y="342" type="curve" smooth="yes"/>
      <point x="205" y="283"/>
      <point x="225" y="229"/>
      <point x="264" y="178" type="curve" smooth="yes"/>
      <point x="303" y="127"/>
      <point x="352" y="102"/>
      <point x="410" y="102" type="curve" smooth="yes"/>
      <point x="467" y="102"/>
      <point x="516" y="127"/>
      <point x="555" y="178" type="curve" smooth="yes"/>
      <point x="594" y="229"/>
      <point x="614" y="283"/>
    </contour>
  </outline>
</glyph>
<glyph name="divide" format="2">
  <advance width="1024"/>
  <unicode hex="00F7"/>
  <outline>
    <contour>
      <point x="594" y="989" type="curve" smooth="yes"/>
      <point x="594" y="942"/>
      <point x="559" y="905"/>
      <point x="512" y="905" type="curve" smooth="yes"/>
      <point x="465" y="905"/>
      <point x="428" y="942"/>
      <point x="428" y="989" type="curve" smooth="yes"/>
      <point x="428" y="1036"/>
      <point x="465" y="1071"/>
      <point x="512" y="1071" type="curve" smooth="yes"/>
      <point x="559" y="1071"/>
      <point x="594" y="1036"/>
    </contour>
    <contour>
      <point x="885" y="688" type="curve"/>
      <point x="883" y="653"/>
      <point x="864" y="637"/>
      <point x="834" y="637" type="curve" smooth="yes"/>
      <point x="190" y="637" type="line" smooth="yes"/>
      <point x="160" y="637"/>
      <point x="141" y="653"/>
      <point x="139" y="688" type="curve"/>
      <point x="141" y="723"/>
      <point x="160" y="739"/>
      <point x="190" y="739" type="curve" smooth="yes"/>
      <point x="834" y="739" type="line" smooth="yes"/>
      <point x="864" y="739"/>
      <point x="883" y="723"/>
    </contour>
    <contour>
      <point x="594" y="389" type="curve" smooth="yes"/>
      <point x="594" y="342"/>
      <point x="559" y="305"/>
      <point x="512" y="305" type="curve" smooth="yes"/>
      <point x="465" y="305"/>
      <point x="428" y="342"/>
      <point x="428" y="389" type="curve" smooth="yes"/>
      <point x="428" y="436"/>
      <point x="465" y="471"/>
      <point x="512" y="471" type="curve" smooth="yes"/>
      <point x="559" y="471"/>
      <point x="594" y="436"/>
    </contour>
  </outline>
</glyph>
<glyph name="ydieresis" format="2">
  <advance width="819"/>
  <unicode hex="00FF"/>
  <outline>
    <contour>
      <point x="621" y="885" type="curve" smooth="yes"/>
      <point x="621" y="842"/>
      <point x="600" y="821"/>
      <point x="557" y="821" type="curve" smooth="yes"/>
      <point x="516" y="821"/>
      <point x="496" y="842"/>
      <point x="496" y="885" type="curve" smooth="yes"/>
      <point x="496" y="926"/>
      <point x="516" y="946"/>
      <point x="557" y="946" type="curve" smooth="yes"/>
      <point x="600" y="946"/>
      <point x="621" y="926"/>
    </contour>
    <contour>
      <point x="303" y="885" type="curve" smooth="yes"/>
      <point x="303" y="842"/>
      <point x="283" y="821"/>
      <point x="240" y="821" type="curve" smooth="yes"/>
      <point x="199" y="821"/>
      <point x="178" y="842"/>
      <point x="178" y="885" type="curve" smooth="yes"/>
      <point x="178" y="926"/>
      <point x="199" y="946"/>
      <point x="240" y="946" type="curve" smooth="yes"/>
      <point x="283" y="946"/>
      <point x="303" y="926"/>
    </contour>
    <contour>
      <point x="717" y="629" type="curve" smooth="yes"/>
      <point x="717" y="625"/>
      <point x="717.063" y="620.975"/>
      <point x="715" y="616" type="curve" smooth="yes"/>
      <point x="197" y="-633" type="line" smooth="yes"/>
      <point x="184.122" y="-664.052"/>
      <point x="160.195" y="-673.591"/>
      <point x="129" y="-659" type="curve" smooth="yes"/>
      <point x="98.1885" y="-644.588"/>
      <point x="88.9445" y="-622.977"/>
      <point x="102" y="-592" type="curve" smooth="yes"/>
      <point x="373" y="51" type="line"/>
      <point x="137" y="610" type="line" smooth="yes"/>
      <point x="124.793" y="638.914"/>
      <point x="135" y="662"/>
      <point x="166" y="678" type="curve"/>
      <point x="199" y="688"/>
      <point x="221.031" y="678.015"/>
      <point x="233" y="649" type="curve" smooth="yes"/>
      <point x="424" y="186" type="line"/>
      <point x="616" y="649" type="line" smooth="yes"/>
      <point x="628.023" y="677.993"/>
      <point x="651" y="688"/>
      <point x="684" y="678" type="curve"/>
      <point x="707" y="668"/>
      <point x="717" y="651"/>
    </contour>
  </outline>
</glyph>
<glyph name="circumflex" format="2">
  <advance width="670"/>
  <unicode hex="02C6"/>
  <outline>
    <contour>
      <point x="670" y="1128" type="line"/>
      <point x="547" y="1128" type="line"/>
      <point x="336" y="1331" type="line"/>
      <point x="123" y="1128" type="line"/>
      <point x="0" y="1128" type="line"/>
      <point x="258" y="1475" type="line"/>
      <point x="412" y="1475" type="line"/>
    </contour>
  </outline>
</glyph>
<glyph name="uni1200" format="2">
  <advance width="900"/>
  <unicode hex="1200"/>
  <outline>
    <component base="bar"/>
    <contour>
      <point x="426" y="1017" type="line"/>
      <point x="405" y="1017" type="line"/>
      <point x="405" y="1118" type="line"/>
      <point x="398" y="1112"/>
      <point x="384" y="1105"/>
      <point x="376" y="1103" type="curve"/>
      <point x="376" y="1122" type="line"/>
      <point x="385" y="1126"/>
      <point x="401" y="1139"/>
      <point x="405" y="1143" type="curve"/>
      <point x="426" y="1143" type="line"/>
    </contour>
    <contour>
      <point x="669" y="1070" type="line"/>
      <point x="654" y="1061" type="line"/>
      <point x="708" y="904"/>
      <point x="634.723" y="609.139"/>
      <point x="577" y="472" type="curve" smooth="yes"/>
      <point x="477.706" y="236.096"/>
      <point x="352" y="132"/>
      <point x="311" y="132" type="curve" smooth="yes"/>
      <point x="217" y="132"/>
      <point x="163.926" y="195.009"/>
      <point x="183" y="297" type="curve"/>
      <point x="183" y="297"/>
      <point x="275" y="790"/>
      <point x="327" y="1067" type="curve"/>
      <point x="357" y="1061" type="line"/>
      <point x="305" y="784"/>
      <point x="212" y="292"/>
      <point x="212" y="292" type="curve"/>
      <point x="195.97" y="206.984"/>
      <point x="237" y="162"/>
      <point x="311" y="162" type="curve" smooth="yes"/>
      <point x="330" y="162"/>
      <point x="448.643" y="245.174"/>
      <point x="549" y="484" type="curve" smooth="yes"/>
      <point x="606.636" y="621.159"/>
      <point x="674" y="901"/>
      <point x="627" y="1046" type="curve"/>
      <point x="612" y="1037" type="line"/>
      <point x="612" y="1103" type="line"/>
    </contour>
    <contour>
      <point x="789" y="1175" type="curve" smooth="yes"/>
      <point x="901.238" y="970.165"/>
      <point x="804.291" y="572.889"/>
      <point x="734" y="406" type="curve" smooth="yes"/>
      <point x="641.286" y="185.875"/>
      <point x="477.026" y="-38"/>
      <point x="311" y="-38" type="curve" smooth="yes"/>
      <point x="93.979" y="-38"/>
      <point x="-22.125" y="125.829"/>
      <point x="15" y="324" type="curve"/>
      <point x="15" y="324"/>
      <point x="148.879" y="1037.02"/>
      <point x="160" y="1098" type="curve" smooth="yes"/>
      <point x="177.878" y="1196.02"/>
      <point x="326.103" y="1167.98"/>
      <point x="308" y="1071" type="curve" smooth="yes"/>
      <point x="256.092" y="792.918"/>
      <point x="163" y="301"/>
      <point x="163" y="301" type="curve"/>
      <point x="141.548" y="187.084"/>
      <point x="204" y="112"/>
      <point x="311" y="112" type="curve" smooth="yes"/>
      <point x="367" y="112"/>
      <point x="496.693" y="231.133"/>
      <point x="595" y="464" type="curve" smooth="yes"/>
      <point x="656.694" y="610.139"/>
      <point x="742.143" y="948.076"/>
      <point x="657" y="1103" type="curve" smooth="yes"/>
      <point x="609.141" y="1190.08"/>
      <point x="741.249" y="1262.15"/>
    </contour>
    <contour>
      <point x="754" y="1156" type="curve" smooth="yes"/>
      <point x="731.396" y="1197.23"/>
      <point x="669.635" y="1162.81"/>
      <point x="692" y="1122" type="curve" smooth="yes"/>
      <point x="783.654" y="954.771"/>
      <point x="699.529" y="608.205"/>
      <point x="632" y="449" type="curve" smooth="yes"/>
      <point x="534.531" y="219.206"/>
      <point x="396.008" y="72"/>
      <point x="311" y="72" type="curve" smooth="yes"/>
      <point x="172.985" y="72"/>
      <point x="98.2502" y="169.131"/>
      <point x="124" y="307" type="curve"/>
      <point x="124" y="307"/>
      <point x="220.685" y="827.054"/>
      <point x="268" y="1078" type="curve" smooth="yes"/>
      <point x="276.685" y="1124.06"/>
      <point x="207.585" y="1137.09"/>
      <point x="199" y="1091" type="curve" smooth="yes"/>
      <point x="55" y="318" type="line" smooth="yes"/>
      <point x="22.9195" y="145.79"/>
      <point x="126.988" y="2"/>
      <point x="311" y="2" type="curve" smooth="yes"/>
      <point x="448.003" y="2"/>
      <point x="602.279" y="197.892"/>
      <point x="697" y="421" type="curve" smooth="yes"/>
      <point x="768.284" y="588.906"/>
      <point x="856.396" y="969.229"/>
    </contour>
    <contour>
      <point x="252" y="1080" type="curve" smooth="yes"/>
      <point x="252" y="1066"/>
      <point x="241" y="1055"/>
      <point x="227" y="1055" type="curve" smooth="yes"/>
      <point x="213" y="1055"/>
      <point x="202" y="1066"/>
      <point x="202" y="1080" type="curve" smooth="yes"/>
      <point x="202" y="1094"/>
      <point x="213" y="1105"/>
      <point x="227" y="1105" type="curve" smooth="yes"/>
      <point x="241" y="1105"/>
      <point x="252" y="1094"/>
    </contour>
  </outline>
</glyph>
<glyph name="uni1201" format="2">
  <advance width="1291"/>
  <unicode hex="1201"/>
  <outline>
    <component base="bar"/>
    <contour>
      <point x="976" y="1001" type="curve" smooth="yes"/>
      <point x="976" y="972"/>
      <point x="949" y="952"/>
      <point x="909" y="926" type="curve"/>
      <point x="973" y="926" type="line"/>
      <point x="973" y="906" type="line"/>
      <point x="888" y="906" type="line"/>
      <point x="888" y="924" type="line"/>
      <point x="939" y="965"/>
      <point x="954" y="984"/>
      <point x="954" y="1001" type="curve" smooth="yes"/>
      <point x="954" y="1009"/>
      <point x="950" y="1021"/>
      <point x="935" y="1021" type="curve" smooth="yes"/>
      <point x="919" y="1021"/>
      <point x="913" y="1008"/>
      <point x="912" y="997" type="curve"/>
      <point x="890" y="997" type="line"/>
      <point x="892" y="1023"/>
      <point x="907" y="1036"/>
      <point x="935" y="1036" type="curve" smooth="yes"/>
      <point x="961" y="1036"/>
      <point x="976" y="1022"/>
    </contour>
    <contour>
      <point x="1177" y="867" type="line"/>
      <point x="1120" y="834" type="line"/>
      <point x="1120" y="852" type="line"/>
      <point x="871" y="852" type="line"/>
      <point x="871" y="882" type="line"/>
      <point x="1120" y="882" type="line"/>
      <point x="1120" y="900" type="line"/>
    </contour>
    <contour>
      <point x="426" y="1017" type="line"/>
      <point x="405" y="1017" type="line"/>
      <point x="405" y="1118" type="line"/>
      <point x="398" y="1112"/>
      <point x="384" y="1105"/>
      <point x="376" y="1103" type="curve"/>
      <point x="376" y="1122" type="line"/>
      <point x="385" y="1126"/>
      <point x="401" y="1139"/>
      <point x="405" y="1143" type="curve"/>
      <point x="426" y="1143" type="line"/>
    </contour>
    <contour>
      <point x="1231" y="738" type="curve" smooth="yes"/>
      <point x="1231" y="697"/>
      <point x="1198" y="662"/>
      <point x="1156" y="662" type="curve" smooth="yes"/>
      <point x="810" y="662" type="line"/>
      <point x="789" y="562"/>
      <point x="761.034" y="469.981"/>
      <point x="734" y="406" type="curve" smooth="yes"/>
      <point x="641.046" y="186.008"/>
      <point x="477.011" y="-38"/>
      <point x="311" y="-38" type="curve" smooth="yes"/>
      <point x="94.0038" y="-38"/>
      <point x="-22.125" y="125.829"/>
      <point x="15" y="324" type="curve"/>
      <point x="15" y="324"/>
      <point x="148.878" y="1037.02"/>
      <point x="160" y="1098" type="curve" smooth="yes"/>
      <point x="177.878" y="1196.02"/>
      <point x="326.103" y="1167.98"/>
      <point x="308" y="1071" type="curve" smooth="yes"/>
      <point x="256.097" y="792.949"/>
      <point x="163" y="301"/>
      <point x="163" y="301" type="curve"/>
      <point x="141.548" y="187.084"/>
      <point x="204" y="112"/>
      <point x="311" y="112" type="curve" smooth="yes"/>
      <point x="367" y="112"/>
      <point x="496.69" y="231.127"/>
      <point x="595" y="464" type="curve" smooth="yes"/>
      <point x="656.695" y="610.141"/>
      <point x="742.144" y="948.076"/>
      <point x="657" y="1103" type="curve" smooth="yes"/>
      <point x="609.141" y="1190.08"/>
      <point x="740.986" y="1262"/>
      <point x="789" y="1175" type="curve" smooth="yes"/>
      <point x="841.985" y="1079"/>
      <point x="847" y="942"/>
      <point x="834" y="812" type="curve"/>
      <point x="1156" y="812" type="line" smooth="yes"/>
      <point x="1195" y="812"/>
      <point x="1231" y="781"/>
    </contour>
    <contour>
      <point x="669" y="1070" type="line"/>
      <point x="654" y="1061" type="line"/>
      <point x="708" y="904"/>
      <point x="634.719" y="609.13"/>
      <point x="577" y="472" type="curve" smooth="yes"/>
      <point x="477.707" y="236.101"/>
      <point x="352" y="132"/>
      <point x="311" y="132" type="curve" smooth="yes"/>
      <point x="217" y="132"/>
      <point x="163.926" y="195.009"/>
      <point x="183" y="297" type="curve"/>
      <point x="183" y="297"/>
      <point x="275" y="790"/>
      <point x="327" y="1067" type="curve"/>
      <point x="357" y="1061" type="line"/>
      <point x="305" y="784"/>
      <point x="212" y="292"/>
      <point x="212" y="292" type="curve"/>
      <point x="195.972" y="206.993"/>
      <point x="237" y="162"/>
      <point x="311" y="162" type="curve" smooth="yes"/>
      <point x="330" y="162"/>
      <point x="448.643" y="245.174"/>
      <point x="549" y="484" type="curve" smooth="yes"/>
      <point x="606.636" y="621.159"/>
      <point x="674" y="901"/>
      <point x="627" y="1046" type="curve"/>
      <point x="612" y="1037" type="line"/>
      <point x="612" y="1103" type="line"/>
    </contour>
    <contour>
      <point x="1191" y="738" type="curve" smooth="yes"/>
      <point x="1191" y="757"/>
      <point x="1175" y="772"/>
      <point x="1156" y="772" type="curve" smooth="yes"/>
      <point x="789" y="772" type="line"/>
      <point x="803" y="888"/>
      <point x="814.352" y="1046.2"/>
      <point x="754" y="1156" type="curve" smooth="yes"/>
      <point x="731.356" y="1197.2"/>
      <point x="669.636" y="1162.8"/>
      <point x="692" y="1122" type="curve" smooth="yes"/>
      <point x="783.643" y="954.791"/>
      <point x="699.529" y="608.206"/>
      <point x="632" y="449" type="curve" smooth="yes"/>
      <point x="534.53" y="219.206"/>
      <point x="397" y="72"/>
      <point x="311" y="72" type="curve" smooth="yes"/>
      <point x="173" y="72"/>
      <point x="98.2503" y="169.131"/>
      <point x="124" y="307" type="curve"/>
      <point x="124" y="307"/>
      <point x="220.686" y="827.063"/>
      <point x="268" y="1078" type="curve" smooth="yes"/>
      <point x="276.685" y="1124.06"/>
      <point x="207.585" y="1137.08"/>
      <point x="199" y="1091" type="curve" smooth="yes"/>
      <point x="55" y="318" type="line" smooth="yes"/>
      <point x="22.9225" y="145.805"/>
      <point x="126.991" y="2"/>
      <point x="311" y="2" type="curve" smooth="yes"/>
      <point x="448.007" y="2"/>
      <point x="602.562" y="197.783"/>
      <point x="697" y="421" type="curve" smooth="yes"/>
      <point x="734.556" y="509.768"/>
      <point x="759" y="608"/>
      <point x="778" y="702" type="curve"/>
      <point x="1156" y="702" type="line" smooth="yes"/>
      <point x="1175" y="702"/>
      <point x="1191" y="719"/>
    </contour>
    <contour>
      <point x="252" y="1080" type="curve" smooth="yes"/>
      <point x="252" y="1066"/>
      <point x="241" y="1055"/>
      <point x="227" y="1055" type="curve" smooth="yes"/>
      <point x="213" y="1055"/>
      <point x="202" y="1066"/>
      <point x="202" y="1080" type="curve" smooth="yes"/>
      <point x="202" y="1094"/>
      <point x="213" y="1105"/>
      <point x="227" y="1105" type="curve" smooth="yes"/>
      <point x="241" y="1105"/>
      <point x="252" y="1094"/>
    </contour>
  </outline>
</glyph>
<glyph name="uni1207" format="2">
  <advance width="1810"/>
  <unicode hex="1207"/>
  <outline>
    <contour>
      <point x="1848" y="1077" type="curve" smooth="yes"/>
      <point x="1848" y="907"/>
      <point x="1676.01" y="767"/>
      <point x="1416" y="767" type="curve" smooth="yes"/>
      <point x="1403" y="767"/>
      <point x="1390" y="767"/>
      <point x="1377" y="768" type="curve"/>
      <point x="1351" y="477" type="line" smooth="yes"/>
      <point x="1327.41" y="212.95"/>
      <point x="1146" y="-40"/>
      <point x="782" y="-40" type="curve" smooth="yes"/>
      <point x="490" y="-40"/>
      <point x="449" y="216"/>
      <point x="449" y="348" type="curve" smooth="yes"/>
      <point x="449" y="384"/>
      <point x="461" y="504"/>
      <point x="474" y="626" type="curve"/>
      <point x="445" y="621" type="line"/>
      <point x="416" y="396"/>
      <point x="266" y="323"/>
      <point x="141" y="323" type="curve" smooth="yes"/>
      <point x="76" y="323"/>
      <point x="40" y="343"/>
      <point x="-11" y="382" type="curve"/>
      <point x="50" y="428"/>
      <point x="69" y="451"/>
      <point x="69" y="537" type="curve" smooth="yes"/>
      <point x="69" y="607"/>
      <point x="45" y="656"/>
      <point x="17" y="717" type="curve"/>
      <point x="491" y="782" type="line"/>
      <point x="498" y="846"/>
      <point x="503" y="896"/>
      <point x="503" y="915" type="curve" smooth="yes"/>
      <point x="503" y="964"/>
      <point x="484" y="972"/>
      <point x="445" y="984" type="curve"/>
      <point x="445" y="1068" type="line"/>
      <point x="510" y="1087"/>
      <point x="695" y="1142"/>
      <point x="751" y="1142" type="curve" smooth="yes"/>
      <point x="836" y="1142"/>
      <point x="853" y="1072"/>
      <point x="853" y="1010" type="curve" smooth="yes"/>
      <point x="853" y="950"/>
      <point x="791" y="383"/>
      <point x="791" y="240" type="curve" smooth="yes"/>
      <point x="791" y="143"/>
      <point x="835" y="122"/>
      <point x="878" y="122" type="curve" smooth="yes"/>
      <point x="924" y="122"/>
      <point x="975.722" y="170.021"/>
      <point x="990" y="328" type="curve" smooth="yes"/>
      <point x="1006.72" y="513.029"/>
      <point x="1024.82" y="698.018"/>
      <point x="1039" y="884" type="curve" smooth="yes"/>
      <point x="1042.81" y="934.014"/>
      <point x="1047" y="969"/>
      <point x="1047" y="981" type="curve" smooth="yes"/>
      <point x="1047" y="1048"/>
      <point x="1038" y="1074"/>
      <point x="982" y="1097" type="curve"/>
      <point x="982" y="1189" type="line"/>
      <point x="1178" y="1232"/>
      <point x="1373.06" y="1274.63"/>
      <point x="1569" y="1314" type="curve" smooth="yes"/>
      <point x="1592.08" y="1318.64"/>
      <point x="1618" y="1322"/>
      <point x="1636" y="1322" type="curve" smooth="yes"/>
      <point x="1738" y="1322"/>
      <point x="1848" y="1261"/>
    </contour>
    <contour>
      <point x="1808" y="1077" type="curve" smooth="yes"/>
      <point x="1808" y="1237" name=".hr01"/>
      <point x="1718" y="1282"/>
      <point x="1636" y="1282" type="curve" smooth="yes"/>
      <point x="1605" y="1282"/>
      <point x="1572.96" y="1274.19"/>
      <point x="1542" y="1268" type="curve" smooth="yes"/>
      <point x="1367.95" y="1233.19"/>
      <point x="1195" y="1195"/>
      <point x="1022" y="1157" type="curve"/>
      <point x="1022" y="1124" type="line"/>
      <point x="1075" y="1098"/>
      <point x="1087" y="1035"/>
      <point x="1087" y="981" type="curve" smooth="yes"/>
      <point x="1087" y="969"/>
      <point x="1082.87" y="932.013"/>
      <point x="1079" y="881" type="curve" smooth="yes"/>
      <point x="1064.87" y="695.009"/>
      <point x="1046.81" y="510.017"/>
      <point x="1030" y="324" type="curve" smooth="yes"/>
      <point x="1015.81" y="167.018"/>
      <point x="961" y="82"/>
      <point x="878" y="82" type="curve" smooth="yes"/>
      <point x="811" y="82"/>
      <point x="751" y="123"/>
      <point x="751" y="240" type="curve" smooth="yes" name=".hr02"/>
      <point x="751" y="383"/>
      <point x="813" y="950"/>
      <point x="813" y="1010" type="curve" smooth="yes"/>
      <point x="813" y="1071"/>
      <point x="798" y="1102"/>
      <point x="751" y="1102" type="curve" smooth="yes"/>
      <point x="705" y="1102"/>
      <point x="541" y="1054"/>
      <point x="485" y="1038" type="curve"/>
      <point x="485" y="1013" type="line"/>
      <point x="518" y="999"/>
      <point x="543" y="972"/>
      <point x="543" y="915" type="curve" smooth="yes"/>
      <point x="543" y="860"/>
      <point x="534" y="802"/>
      <point x="528" y="747" type="curve"/>
      <point x="76" y="685" type="line"/>
      <point x="96" y="638"/>
      <point x="109" y="588"/>
      <point x="109" y="537" type="curve" smooth="yes"/>
      <point x="109" y="454"/>
      <point x="86" y="413"/>
      <point x="55" y="384" type="curve"/>
      <point x="86" y="366" name=".hr03"/>
      <point x="114" y="363"/>
      <point x="141" y="363" type="curve" smooth="yes"/>
      <point x="314" y="363"/>
      <point x="392" y="495"/>
      <point x="408" y="656" type="curve"/>
      <point x="520" y="673" type="line"/>
      <point x="509" y="579"/>
      <point x="489" y="445"/>
      <point x="489" y="348" type="curve" smooth="yes" name=".hr04"/>
      <point x="489" y="217"/>
      <point x="529.008" y="0"/>
      <point x="782" y="0" type="curve" smooth="yes"/>
      <point x="1120.99" y="0"/>
      <point x="1288.45" y="232.966"/>
      <point x="1311" y="481" type="curve" smooth="yes"/>
      <point x="1341" y="811" type="line"/>
      <point x="1361" y="809" type="line" smooth="yes"/>
      <point x="1379.93" y="807.107"/>
      <point x="1398" y="807"/>
      <point x="1416" y="807" type="curve" smooth="yes"/>
      <point x="1665" y="807"/>
      <point x="1808" y="939"/>
    </contour>
    <contour>
      <point x="1524" y="1059" type="curve" smooth="yes" name=".hr05"/>
      <point x="1524" y="944"/>
      <point x="1456" y="881" name=".hr06"/>
      <point x="1345" y="871" type="curve"/>
      <point x="1348" y="900"/>
      <point x="1357.75" y="1084.12"/>
      <point x="1380" y="1128" type="curve" smooth="yes"/>
      <point x="1393.75" y="1155.12"/>
      <point x="1416" y="1161"/>
      <point x="1440" y="1161" type="curve" smooth="yes"/>
      <point x="1499" y="1161"/>
      <point x="1524" y="1113"/>
    </contour>
    <contour>
      <point x="1484" y="1059" type="curve" smooth="yes"/>
      <point x="1484" y="1102"/>
      <point x="1466" y="1121"/>
      <point x="1440" y="1121" type="curve" smooth="yes"/>
      <point x="1424" y="1121"/>
      <point x="1420.4" y="1118.81"/>
      <point x="1416" y="1110" type="curve" smooth="yes"/>
      <point x="1400.4" y="1078.8"/>
      <point x="1392" y="947"/>
      <point x="1389" y="917" type="curve"/>
      <point x="1453" y="934"/>
      <point x="1484" y="994"/>
    </contour>
  </outline>
</glyph>
<glyph name="uni1209" format="2">
  <advance width="1254"/>
  <unicode hex="1209"/>
  <outline>
    <component base="bar"/>
    <contour>
      <point x="615" y="1368" type="line"/>
      <point x="594" y="1368" type="line"/>
      <point x="594" y="1469" type="line"/>
      <point x="587" y="1463"/>
      <point x="573" y="1456"/>
      <point x="565" y="1454" type="curve"/>
      <point x="565" y="1473" type="line"/>
      <point x="574" y="1477"/>
      <point x="590" y="1490"/>
      <point x="594" y="1494" type="curve"/>
      <point x="615" y="1494" type="line"/>
    </contour>
    <contour>
      <point x="940" y="905" type="curve" smooth="yes"/>
      <point x="940" y="886"/>
      <point x="926" y="867"/>
      <point x="894" y="867" type="curve" smooth="yes"/>
      <point x="861" y="867"/>
      <point x="853" y="887"/>
      <point x="853" y="903" type="curve"/>
      <point x="875" y="903" type="line"/>
      <point x="875" y="891"/>
      <point x="883" y="883"/>
      <point x="895" y="883" type="curve" smooth="yes"/>
      <point x="907" y="883"/>
      <point x="918" y="891"/>
      <point x="918" y="905" type="curve" smooth="yes"/>
      <point x="918" y="910"/>
      <point x="914" y="927"/>
      <point x="896" y="927" type="curve" smooth="yes"/>
      <point x="885" y="927" type="line"/>
      <point x="885" y="941" type="line"/>
      <point x="913" y="941"/>
      <point x="915" y="953"/>
      <point x="915" y="963" type="curve" smooth="yes"/>
      <point x="915" y="972"/>
      <point x="911" y="982"/>
      <point x="898" y="982" type="curve" smooth="yes"/>
      <point x="884" y="982"/>
      <point x="878" y="976"/>
      <point x="877" y="964" type="curve"/>
      <point x="855" y="964" type="line"/>
      <point x="856" y="986"/>
      <point x="874" y="997"/>
      <point x="897" y="997" type="curve" smooth="yes"/>
      <point x="919" y="997"/>
      <point x="937" y="985"/>
      <point x="937" y="963" type="curve" smooth="yes"/>
      <point x="937" y="944"/>
      <point x="925" y="939"/>
      <point x="914" y="935" type="curve"/>
      <point x="925" y="932"/>
      <point x="940" y="923"/>
    </contour>
    <contour>
      <point x="1121" y="822" type="line"/>
      <point x="1067" y="785" type="line"/>
      <point x="1066" y="801" type="line"/>
      <point x="842" y="781" type="line"/>
      <point x="840" y="811" type="line"/>
      <point x="1063" y="830" type="line"/>
      <point x="1061" y="850" type="line"/>
    </contour>
    <contour>
      <point x="297" y="1339" type="curve" smooth="yes"/>
      <point x="297" y="1310"/>
      <point x="270" y="1290"/>
      <point x="230" y="1264" type="curve"/>
      <point x="294" y="1264" type="line"/>
      <point x="294" y="1244" type="line"/>
      <point x="209" y="1244" type="line"/>
      <point x="209" y="1262" type="line"/>
      <point x="260" y="1303"/>
      <point x="275" y="1322"/>
      <point x="275" y="1339" type="curve" smooth="yes"/>
      <point x="275" y="1347"/>
      <point x="271" y="1359"/>
      <point x="256" y="1359" type="curve" smooth="yes"/>
      <point x="240" y="1359"/>
      <point x="234" y="1346"/>
      <point x="233" y="1335" type="curve"/>
      <point x="211" y="1335" type="line"/>
      <point x="213" y="1361"/>
      <point x="228" y="1374"/>
      <point x="256" y="1374" type="curve" smooth="yes"/>
      <point x="282" y="1374"/>
      <point x="297" y="1360"/>
    </contour>
    <contour>
      <point x="829" y="57" type="line"/>
      <point x="796" y="0" type="line"/>
      <point x="763" y="57" type="line"/>
      <point x="782" y="57" type="line"/>
      <point x="782" y="835" type="line" smooth="yes"/>
      <point x="782" y="968.003"/>
      <point x="658" y="1196"/>
      <point x="490" y="1406" type="curve"/>
      <point x="513" y="1424" type="line"/>
      <point x="682" y="1215"/>
      <point x="812" y="980.003"/>
      <point x="812" y="835" type="curve" smooth="yes"/>
      <point x="812" y="57" type="line"/>
    </contour>
    <contour>
      <point x="1194" y="714" type="curve" smooth="yes"/>
      <point x="1197.91" y="672.991"/>
      <point x="1174.99" y="637.079"/>
      <point x="1130" y="633" type="curve"/>
      <point x="1130" y="633"/>
      <point x="880" y="610"/>
      <point x="766" y="600" type="curve"/>
      <point x="762" y="35" type="line" smooth="yes"/>
      <point x="761.71" y="-6"/>
      <point x="728" y="-40"/>
      <point x="687" y="-40" type="curve" smooth="yes"/>
      <point x="644" y="-40"/>
      <point x="612" y="-5"/>
      <point x="612" y="35" type="curve" smooth="yes"/>
      <point x="612" y="800" type="line" smooth="yes"/>
      <point x="612" y="923.001"/>
      <point x="535" y="1047"/>
      <point x="497" y="1101" type="curve"/>
      <point x="212" y="936"/>
      <point x="178.121" y="765.045"/>
      <point x="166" y="467" type="curve" smooth="yes"/>
      <point x="161.119" y="346.973"/>
      <point x="160.806" y="206"/>
      <point x="160" y="35" type="curve" smooth="yes"/>
      <point x="159.807" y="-6"/>
      <point x="126" y="-40"/>
      <point x="85" y="-40" type="curve" smooth="yes"/>
      <point x="44" y="-40"/>
      <point x="9.6975" y="-6.00225"/>
      <point x="10" y="35" type="curve" smooth="yes"/>
      <point x="11.6973" y="265.013"/>
      <point x="-2.8287" y="567.958"/>
      <point x="55" y="790" type="curve" smooth="yes"/>
      <point x="103.173" y="974.965"/>
      <point x="206" y="1109"/>
      <point x="413" y="1221" type="curve"/>
      <point x="381" y="1271"/>
      <point x="297.227" y="1347.72"/>
      <point x="369" y="1405" type="curve" smooth="yes"/>
      <point x="401.227" y="1430.72"/>
      <point x="447.64" y="1425.71"/>
      <point x="474" y="1393" type="curve" smooth="yes"/>
      <point x="642.632" y="1183.72"/>
      <point x="763.518" y="960.002"/>
      <point x="762" y="834" type="curve" smooth="yes"/>
      <point x="761" y="751" type="line"/>
      <point x="1108" y="783" type="line" smooth="yes"/>
      <point x="1157.04" y="787.523"/>
      <point x="1189.91" y="756.99"/>
    </contour>
    <contour>
      <point x="369" y="1219" type="line"/>
      <point x="42" y="1028"/>
      <point x="0.542" y="758.054"/>
      <point x="-9" y="416" type="curve" smooth="yes"/>
      <point x="-12.459" y="291.998"/>
      <point x="-9" y="167"/>
      <point x="-10" y="57" type="curve"/>
      <point x="9" y="57" type="line"/>
      <point x="-24" y="0" type="line"/>
      <point x="-57" y="57" type="line"/>
      <point x="-40" y="57" type="line"/>
      <point x="-39" y="302"/>
      <point x="-55.7083" y="563.924"/>
      <point x="7" y="803" type="curve" smooth="yes"/>
      <point x="56.2912" y="990.924"/>
      <point x="159" y="1131"/>
      <point x="354" y="1245" type="curve"/>
    </contour>
    <contour>
      <point x="1122" y="672" type="line" smooth="yes"/>
      <point x="1167.98" y="676.18"/>
      <point x="1161.99" y="746.065"/>
      <point x="1116" y="742" type="curve" smooth="yes"/>
      <point x="720" y="707" type="line"/>
      <point x="722" y="835" type="line" smooth="yes"/>
      <point x="723.265" y="915.995"/>
      <point x="594.99" y="1196"/>
      <point x="465" y="1353" type="curve" smooth="yes"/>
      <point x="440.994" y="1381.99"/>
      <point x="412.132" y="1388.84"/>
      <point x="394" y="1374" type="curve" smooth="yes"/>
      <point x="379.134" y="1361.84"/>
      <point x="376.069" y="1340.06"/>
      <point x="388" y="1325" type="curve" smooth="yes"/>
      <point x="418.072" y="1287.05"/>
      <point x="444" y="1247"/>
      <point x="469" y="1205" type="curve"/>
      <point x="119" y="1024"/>
      <point x="68.3952" y="814.984"/>
      <point x="55" y="460" type="curve" smooth="yes"/>
      <point x="50.3958" y="337.984"/>
      <point x="50.8948" y="197"/>
      <point x="50" y="35" type="curve" smooth="yes"/>
      <point x="49.8953" y="16"/>
      <point x="66" y="0"/>
      <point x="85" y="0" type="curve" smooth="yes"/>
      <point x="104" y="0"/>
      <point x="119.834" y="15.9987"/>
      <point x="120" y="35" type="curve" smooth="yes"/>
      <point x="121.834" y="245.014"/>
      <point x="108.371" y="565.897"/>
      <point x="164" y="768" type="curve" smooth="yes"/>
      <point x="217.37" y="961.896"/>
      <point x="338" y="1057"/>
      <point x="508" y="1153" type="curve"/>
      <point x="582" y="1055"/>
      <point x="652" y="928.001"/>
      <point x="652" y="800" type="curve" smooth="yes"/>
      <point x="652" y="35" type="line" smooth="yes"/>
      <point x="652" y="16"/>
      <point x="667" y="0"/>
      <point x="687" y="0" type="curve" smooth="yes"/>
      <point x="706" y="0"/>
      <point x="721.874" y="16"/>
      <point x="722" y="35" type="curve" smooth="yes"/>
      <point x="726" y="636" type="line"/>
    </contour>
    <contour>
      <point x="447" y="1340" type="curve" smooth="yes"/>
      <point x="447" y="1326"/>
      <point x="436" y="1315"/>
      <point x="422" y="1315" type="curve" smooth="yes"/>
      <point x="408" y="1315"/>
      <point x="397" y="1326"/>
      <point x="397" y="1340" type="curve" smooth="yes"/>
      <point x="397" y="1354"/>
      <point x="408" y="1365"/>
      <point x="422" y="1365" type="curve" smooth="yes"/>
      <point x="436" y="1365"/>
      <point x="447" y="1354"/>
    </contour>
  </outline>
</glyph>
<glyph name="uni120B" format="2">
  <advance width="819"/>
  <unicode hex="120B"/>
  <outline>
    <component base="bar"/>
    <contour>
      <point x="615" y="1368" type="line"/>
      <point x="594" y="1368" type="line"/>
      <point x="594" y="1469" type="line"/>
      <point x="587" y="1463"/>
      <point x="573" y="1456"/>
      <point x="565" y="1454" type="curve"/>
      <point x="565" y="1473" type="line"/>
      <point x="574" y="1477"/>
      <point x="590" y="1490"/>
      <point x="594" y="1494" type="curve"/>
      <point x="615" y="1494" type="line"/>
    </contour>
    <contour>
      <point x="297" y="1339" type="curve" smooth="yes"/>
      <point x="297" y="1310"/>
      <point x="270" y="1290"/>
      <point x="230" y="1264" type="curve"/>
      <point x="294" y="1264" type="line"/>
      <point x="294" y="1244" type="line"/>
      <point x="209" y="1244" type="line"/>
      <point x="209" y="1262" type="line"/>
      <point x="260" y="1303"/>
      <point x="275" y="1322"/>
      <point x="275" y="1339" type="curve" smooth="yes"/>
      <point x="275" y="1347"/>
      <point x="271" y="1359"/>
      <point x="256" y="1359" type="curve" smooth="yes"/>
      <point x="240" y="1359"/>
      <point x="234" y="1346"/>
      <point x="233" y="1335" type="curve"/>
      <point x="211" y="1335" type="line"/>
      <point x="213" y="1361"/>
      <point x="228" y="1374"/>
      <point x="256" y="1374" type="curve" smooth="yes"/>
      <point x="282" y="1374"/>
      <point x="297" y="1360"/>
    </contour>
    <contour>
      <point x="829" y="57" type="line"/>
      <point x="796" y="0" type="line"/>
      <point x="763" y="57" type="line"/>
      <point x="782" y="57" type="line"/>
      <point x="782" y="835" type="line" smooth="yes"/>
      <point x="782" y="968.003"/>
      <point x="658" y="1196"/>
      <point x="490" y="1406" type="curve"/>
      <point x="513" y="1424" type="line"/>
      <point x="682" y="1215"/>
      <point x="812" y="980.003"/>
      <point x="812" y="835" type="curve" smooth="yes"/>
      <point x="812" y="57" type="line"/>
    </contour>
    <contour>
      <point x="759" y="35" type="line" smooth="yes"/>
      <point x="759" y="-6"/>
      <point x="725" y="-40"/>
      <point x="684" y="-40" type="curve" smooth="yes"/>
      <point x="641" y="-40"/>
      <point x="609" y="-5"/>
      <point x="609" y="35" type="curve" smooth="yes"/>
      <point x="609" y="800" type="line" smooth="yes"/>
      <point x="609" y="923.001"/>
      <point x="533" y="1047"/>
      <point x="494" y="1101" type="curve"/>
      <point x="-38" y="793"/>
      <point x="288.998" y="308"/>
      <point x="86" y="308" type="curve" smooth="yes"/>
      <point x="41.9987" y="308"/>
      <point x="9.2095" y="347.993"/>
      <point x="10" y="387" type="curve" smooth="yes"/>
      <point x="18.209" y="792.001"/>
      <point x="66" y="1035"/>
      <point x="410" y="1221" type="curve"/>
      <point x="379" y="1271"/>
      <point x="294.837" y="1348.21"/>
      <point x="366" y="1405" type="curve" smooth="yes"/>
      <point x="398.836" y="1431.21"/>
      <point x="444.706" y="1425.77"/>
      <point x="471" y="1393" type="curve" smooth="yes"/>
      <point x="639.717" y="1182.75"/>
      <point x="759" y="960"/>
      <point x="759" y="835" type="curve" smooth="yes"/>
    </contour>
    <contour>
      <point x="369" y="1219" type="line"/>
      <point x="42" y="1028"/>
      <point x="1" y="758"/>
      <point x="-9" y="416" type="curve"/>
      <point x="10" y="416" type="line"/>
      <point x="-23" y="359" type="line"/>
      <point x="-56" y="416" type="line"/>
      <point x="-39" y="416" type="line"/>
      <point x="-35" y="547"/>
      <point x="-25.6143" y="678.906"/>
      <point x="7" y="803" type="curve" smooth="yes"/>
      <point x="56.379" y="990.882"/>
      <point x="159" y="1131"/>
      <point x="354" y="1245" type="curve"/>
    </contour>
    <contour>
      <point x="719" y="35" type="curve" smooth="yes"/>
      <point x="719" y="835" type="line" smooth="yes"/>
      <point x="719" y="916"/>
      <point x="591.99" y="1196"/>
      <point x="462" y="1353" type="curve" smooth="yes"/>
      <point x="437.994" y="1381.99"/>
      <point x="409.958" y="1389.05"/>
      <point x="391" y="1374" type="curve" smooth="yes"/>
      <point x="375.958" y="1362.05"/>
      <point x="372.898" y="1339.92"/>
      <point x="385" y="1325" type="curve" smooth="yes"/>
      <point x="415.896" y="1286.92"/>
      <point x="442" y="1247"/>
      <point x="467" y="1205" type="curve"/>
      <point x="91" y="1011"/>
      <point x="57.6285" y="776.017"/>
      <point x="50" y="386" type="curve" smooth="yes"/>
      <point x="49.6285" y="367.001"/>
      <point x="67" y="348"/>
      <point x="86" y="348" type="curve" smooth="yes"/>
      <point x="104" y="348"/>
      <point x="120.574" y="363.979"/>
      <point x="121" y="383" type="curve" smooth="yes"/>
      <point x="129.573" y="765.918"/>
      <point x="153" y="955"/>
      <point x="505" y="1153" type="curve"/>
      <point x="579" y="1055"/>
      <point x="649" y="928.001"/>
      <point x="649" y="800" type="curve" smooth="yes"/>
      <point x="649" y="35" type="line" smooth="yes"/>
      <point x="649" y="16"/>
      <point x="664" y="0"/>
      <point x="684" y="0" type="curve" smooth="yes"/>
      <point x="703" y="0"/>
      <point x="719" y="16"/>
    </contour>
    <contour>
      <point x="447" y="1340" type="curve" smooth="yes"/>
      <point x="447" y="1326"/>
      <point x="436" y="1315"/>
      <point x="422" y="1315" type="curve" smooth="yes"/>
      <point x="408" y="1315"/>
      <point x="397" y="1326"/>
      <point x="397" y="1340" type="curve" smooth="yes"/>
      <point x="397" y="1354"/>
      <point x="408" y="1365"/>
      <point x="422" y="1365" type="curve" smooth="yes"/>
      <point x="436" y="1365"/>
      <point x="447" y="1354"/>
    </contour>
  </outline>
</glyph>
<glyph name="uni120D" format="2">
  <advance width="822"/>
  <unicode hex="120D"/>
  <outline>
    <component base="bar"/>
    <contour>
      <point x="615" y="1368" type="line"/>
      <point x="594" y="1368" type="line"/>
      <point x="594" y="1469" type="line"/>
      <point x="587" y="1463"/>
      <point x="573" y="1456"/>
      <point x="565" y="1454" type="curve"/>
      <point x="565" y="1473" type="line"/>
      <point x="574" y="1477"/>
      <point x="590" y="1490"/>
      <point x="594" y="1494" type="curve"/>
      <point x="615" y="1494" type="line"/>
    </contour>
    <contour>
      <point x="297" y="1339" type="curve" smooth="yes"/>
      <point x="297" y="1310"/>
      <point x="270" y="1290"/>
      <point x="230" y="1264" type="curve"/>
      <point x="294" y="1264" type="line"/>
      <point x="294" y="1244" type="line"/>
      <point x="209" y="1244" type="line"/>
      <point x="209" y="1262" type="line"/>
      <point x="260" y="1303"/>
      <point x="275" y="1322"/>
      <point x="275" y="1339" type="curve" smooth="yes"/>
      <point x="275" y="1347"/>
      <point x="271" y="1359"/>
      <point x="256" y="1359" type="curve" smooth="yes"/>
      <point x="240" y="1359"/>
      <point x="234" y="1346"/>
      <point x="233" y="1335" type="curve"/>
      <point x="211" y="1335" type="line"/>
      <point x="213" y="1361"/>
      <point x="228" y="1374"/>
      <point x="256" y="1374" type="curve" smooth="yes"/>
      <point x="282" y="1374"/>
      <point x="297" y="1360"/>
    </contour>
    <contour>
      <point x="829" y="57" type="line"/>
      <point x="796" y="0" type="line"/>
      <point x="763" y="57" type="line"/>
      <point x="782" y="57" type="line"/>
      <point x="782" y="835" type="line" smooth="yes"/>
      <point x="782" y="968.003"/>
      <point x="658" y="1196"/>
      <point x="490" y="1406" type="curve"/>
      <point x="513" y="1424" type="line"/>
      <point x="682" y="1215"/>
      <point x="812" y="980.003"/>
      <point x="812" y="835" type="curve" smooth="yes"/>
      <point x="812" y="57" type="line"/>
    </contour>
    <contour>
      <point x="762" y="35" type="line" smooth="yes"/>
      <point x="762" y="-6"/>
      <point x="728" y="-40"/>
      <point x="687" y="-40" type="curve" smooth="yes"/>
      <point x="644" y="-40"/>
      <point x="612" y="-5"/>
      <point x="612" y="35" type="curve" smooth="yes"/>
      <point x="612" y="800" type="line" smooth="yes"/>
      <point x="612" y="923.001"/>
      <point x="535" y="1047"/>
      <point x="497" y="1101" type="curve"/>
      <point x="214" y="937"/>
      <point x="170" y="776"/>
      <point x="161" y="372" type="curve"/>
      <point x="183" y="380"/>
      <point x="207" y="384"/>
      <point x="232" y="384" type="curve" smooth="yes"/>
      <point x="349" y="384"/>
      <point x="444" y="289"/>
      <point x="444" y="172" type="curve" smooth="yes"/>
      <point x="444" y="55"/>
      <point x="349.008" y="-40"/>
      <point x="232" y="-40" type="curve" smooth="yes"/>
      <point x="117.992" y="-40"/>
      <point x="9.641" y="52"/>
      <point x="10" y="172" type="curve" smooth="yes"/>
      <point x="11.6405" y="720"/>
      <point x="16" y="1007"/>
      <point x="413" y="1221" type="curve"/>
      <point x="381" y="1271"/>
      <point x="297.227" y="1347.72"/>
      <point x="369" y="1405" type="curve" smooth="yes"/>
      <point x="401.227" y="1430.72"/>
      <point x="447.164" y="1426.13"/>
      <point x="474" y="1393" type="curve" smooth="yes"/>
      <point x="643.151" y="1184.15"/>
      <point x="762" y="960"/>
      <point x="762" y="835" type="curve" smooth="yes"/>
    </contour>
    <contour>
      <point x="369" y="1219" type="line"/>
      <point x="42" y="1028"/>
      <point x="1" y="758"/>
      <point x="-9" y="416" type="curve"/>
      <point x="10" y="416" type="line"/>
      <point x="-23" y="359" type="line"/>
      <point x="-56" y="416" type="line"/>
      <point x="-39" y="416" type="line"/>
      <point x="-35" y="547"/>
      <point x="-25.6143" y="678.906"/>
      <point x="7" y="803" type="curve" smooth="yes"/>
      <point x="56.379" y="990.882"/>
      <point x="159" y="1131"/>
      <point x="354" y="1245" type="curve"/>
    </contour>
    <contour>
      <point x="497" y="173" type="curve" smooth="yes"/>
      <point x="497" y="27.992"/>
      <point x="380.008" y="-89"/>
      <point x="235" y="-89" type="curve" smooth="yes"/>
      <point x="96.9925" y="-89"/>
      <point x="-37" y="22"/>
      <point x="-37" y="173" type="curve"/>
      <point x="-7" y="173" type="line"/>
      <point x="-7" y="40"/>
      <point x="111" y="-59"/>
      <point x="235" y="-59" type="curve" smooth="yes"/>
      <point x="363" y="-59"/>
      <point x="467" y="45"/>
      <point x="467" y="173" type="curve" smooth="yes"/>
      <point x="467" y="295"/>
      <point x="373" y="395"/>
      <point x="254" y="404" type="curve"/>
      <point x="254" y="386" type="line"/>
      <point x="197" y="419" type="line"/>
      <point x="254" y="452" type="line"/>
      <point x="254" y="434" type="line"/>
      <point x="390" y="425"/>
      <point x="497" y="311.007"/>
    </contour>
    <contour>
      <point x="-15" y="248" type="curve" smooth="yes"/>
      <point x="-15" y="229"/>
      <point x="-29" y="210"/>
      <point x="-61" y="210" type="curve" smooth="yes"/>
      <point x="-94" y="210"/>
      <point x="-102" y="230"/>
      <point x="-102" y="246" type="curve"/>
      <point x="-80" y="246" type="line"/>
      <point x="-80" y="234"/>
      <point x="-72" y="226"/>
      <point x="-60" y="226" type="curve" smooth="yes"/>
      <point x="-48" y="226"/>
      <point x="-37" y="234"/>
      <point x="-37" y="248" type="curve" smooth="yes"/>
      <point x="-37" y="253"/>
      <point x="-41" y="270"/>
      <point x="-59" y="270" type="curve" smooth="yes"/>
      <point x="-70" y="270" type="line"/>
      <point x="-70" y="284" type="line"/>
      <point x="-42" y="284"/>
      <point x="-40" y="296"/>
      <point x="-40" y="306" type="curve" smooth="yes"/>
      <point x="-40" y="315"/>
      <point x="-44" y="325"/>
      <point x="-57" y="325" type="curve" smooth="yes"/>
      <point x="-71" y="325"/>
      <point x="-77" y="319"/>
      <point x="-78" y="307" type="curve"/>
      <point x="-100" y="307" type="line"/>
      <point x="-99" y="329"/>
      <point x="-81" y="340"/>
      <point x="-58" y="340" type="curve" smooth="yes"/>
      <point x="-36" y="340"/>
      <point x="-18" y="328"/>
      <point x="-18" y="306" type="curve" smooth="yes"/>
      <point x="-18" y="287"/>
      <point x="-30" y="282"/>
      <point x="-41" y="278" type="curve"/>
      <point x="-30" y="275"/>
      <point x="-15" y="266"/>
    </contour>
    <contour>
      <point x="722" y="35" type="curve" smooth="yes"/>
      <point x="722" y="835" type="line" smooth="yes"/>
      <point x="722" y="916"/>
      <point x="595.492" y="1196.41"/>
      <point x="465" y="1353" type="curve" smooth="yes"/>
      <point x="440.489" y="1382.41"/>
      <point x="412.132" y="1388.84"/>
      <point x="394" y="1374" type="curve" smooth="yes"/>
      <point x="379.134" y="1361.84"/>
      <point x="376.069" y="1340.06"/>
      <point x="388" y="1325" type="curve" smooth="yes"/>
      <point x="418.072" y="1287.05"/>
      <point x="444" y="1247"/>
      <point x="469" y="1205" type="curve"/>
      <point x="11" y="968"/>
      <point x="50.8255" y="622.982"/>
      <point x="50" y="172" type="curve" smooth="yes"/>
      <point x="49.8263" y="76.9987"/>
      <point x="137" y="0"/>
      <point x="232" y="0" type="curve" smooth="yes"/>
      <point x="327" y="0"/>
      <point x="404" y="77"/>
      <point x="404" y="172" type="curve" smooth="yes"/>
      <point x="404" y="267"/>
      <point x="327" y="344"/>
      <point x="232" y="344" type="curve" smooth="yes"/>
      <point x="186" y="344"/>
      <point x="159" y="328"/>
      <point x="120" y="307" type="curve"/>
      <point x="127" y="717"/>
      <point x="126" y="938"/>
      <point x="508" y="1153" type="curve"/>
      <point x="582" y="1055"/>
      <point x="652" y="928.001"/>
      <point x="652" y="800" type="curve" smooth="yes"/>
      <point x="652" y="35" type="line" smooth="yes"/>
      <point x="652" y="16"/>
      <point x="667" y="0"/>
      <point x="687" y="0" type="curve" smooth="yes"/>
      <point x="706" y="0"/>
      <point x="722" y="16"/>
    </contour>
    <contour>
      <point x="447" y="1340" type="curve" smooth="yes"/>
      <point x="447" y="1326"/>
      <point x="436" y="1315"/>
      <point x="422" y="1315" type="curve" smooth="yes"/>
      <point x="408" y="1315"/>
      <point x="397" y="1326"/>
      <point x="397" y="1340" type="curve" smooth="yes"/>
      <point x="397" y="1354"/>
      <point x="408" y="1365"/>
      <point x="422" y="1365" type="curve" smooth="yes"/>
      <point x="436" y="1365"/>
      <point x="447" y="1354"/>
    </contour>
    <contour>
      <point x="334" y="172" type="curve" smooth="yes"/>
      <point x="334" y="116"/>
      <point x="288" y="70"/>
      <point x="232" y="70" type="curve" smooth="yes"/>
      <point x="176" y="70"/>
      <point x="130" y="116"/>
      <point x="130" y="172" type="curve" smooth="yes"/>
      <point x="130" y="228"/>
      <point x="176" y="274"/>
      <point x="232" y="274" type="curve" smooth="yes"/>
      <point x="288" y="274"/>
      <point x="334" y="228"/>
    </contour>
    <contour>
      <point x="294" y="172" type="curve" smooth="yes"/>
      <point x="294" y="206"/>
      <point x="266" y="234"/>
      <point x="232" y="234" type="curve" smooth="yes"/>
      <point x="198" y="234"/>
      <point x="170" y="206"/>
      <point x="170" y="172" type="curve" smooth="yes"/>
      <point x="170" y="138"/>
      <point x="198" y="110"/>
      <point x="232" y="110" type="curve" smooth="yes"/>
      <point x="266" y="110"/>
      <point x="294" y="138"/>
    </contour>
  </outline>
</glyph>
<glyph name="uni120E" format="2">
  <advance width="1426"/>
  <unicode hex="120E"/>
  <outline>
    <component base="bar"/>
    <contour>
      <point x="615" y="1368" type="line"/>
      <point x="594" y="1368" type="line"/>
      <point x="594" y="1469" type="line"/>
      <point x="587" y="1463"/>
      <point x="573" y="1456"/>
      <point x="565" y="1454" type="curve"/>
      <point x="565" y="1473" type="line"/>
      <point x="574" y="1477"/>
      <point x="590" y="1490"/>
      <point x="594" y="1494" type="curve"/>
      <point x="615" y="1494" type="line"/>
    </contour>
    <contour>
      <point x="1415" y="917" type="curve" smooth="yes"/>
      <point x="1427.71" y="772.974"/>
      <point x="1320.95" y="646.671"/>
      <point x="1177" y="634" type="curve" smooth="yes"/>
      <point x="1036.94" y="621.671"/>
      <point x="919" y="720"/>
      <point x="896" y="848" type="curve"/>
      <point x="876" y="848" type="line"/>
      <point x="909" y="905" type="line"/>
      <point x="942" y="848" type="line"/>
      <point x="927" y="848" type="line"/>
      <point x="949" y="737"/>
      <point x="1052.04" y="652.332"/>
      <point x="1174" y="663" type="curve" smooth="yes"/>
      <point x="1475.06" y="689.334"/>
      <point x="1445.95" y="1161.74"/>
      <point x="1131" y="1137" type="curve"/>
      <point x="1131" y="1137"/>
      <point x="940" y="1122"/>
      <point x="800" y="1111" type="curve"/>
      <point x="798" y="1141" type="line"/>
      <point x="938" y="1152"/>
      <point x="1129" y="1167"/>
      <point x="1129" y="1167" type="curve"/>
      <point x="1278.95" y="1178.78"/>
      <point x="1400.71" y="1078.97"/>
    </contour>
    <contour>
      <point x="813" y="1209" type="curve" smooth="yes"/>
      <point x="813" y="1190"/>
      <point x="799" y="1171"/>
      <point x="767" y="1171" type="curve" smooth="yes"/>
      <point x="734" y="1171"/>
      <point x="726" y="1191"/>
      <point x="726" y="1207" type="curve"/>
      <point x="748" y="1207" type="line"/>
      <point x="748" y="1195"/>
      <point x="756" y="1187"/>
      <point x="768" y="1187" type="curve" smooth="yes"/>
      <point x="780" y="1187"/>
      <point x="791" y="1195"/>
      <point x="791" y="1209" type="curve" smooth="yes"/>
      <point x="791" y="1214"/>
      <point x="787" y="1231"/>
      <point x="769" y="1231" type="curve" smooth="yes"/>
      <point x="758" y="1231" type="line"/>
      <point x="758" y="1245" type="line"/>
      <point x="786" y="1245"/>
      <point x="788" y="1257"/>
      <point x="788" y="1267" type="curve" smooth="yes"/>
      <point x="788" y="1276"/>
      <point x="784" y="1286"/>
      <point x="771" y="1286" type="curve" smooth="yes"/>
      <point x="757" y="1286"/>
      <point x="751" y="1280"/>
      <point x="750" y="1268" type="curve"/>
      <point x="728" y="1268" type="line"/>
      <point x="729" y="1290"/>
      <point x="747" y="1301"/>
      <point x="770" y="1301" type="curve" smooth="yes"/>
      <point x="792" y="1301"/>
      <point x="810" y="1289"/>
      <point x="810" y="1267" type="curve" smooth="yes"/>
      <point x="810" y="1248"/>
      <point x="798" y="1243"/>
      <point x="787" y="1239" type="curve"/>
      <point x="798" y="1236"/>
      <point x="813" y="1227"/>
    </contour>
    <contour>
      <point x="297" y="1339" type="curve" smooth="yes"/>
      <point x="297" y="1310"/>
      <point x="270" y="1290"/>
      <point x="230" y="1264" type="curve"/>
      <point x="294" y="1264" type="line"/>
      <point x="294" y="1244" type="line"/>
      <point x="209" y="1244" type="line"/>
      <point x="209" y="1262" type="line"/>
      <point x="260" y="1303"/>
      <point x="275" y="1322"/>
      <point x="275" y="1339" type="curve" smooth="yes"/>
      <point x="275" y="1347"/>
      <point x="271" y="1359"/>
      <point x="256" y="1359" type="curve" smooth="yes"/>
      <point x="240" y="1359"/>
      <point x="234" y="1346"/>
      <point x="233" y="1335" type="curve"/>
      <point x="211" y="1335" type="line"/>
      <point x="213" y="1361"/>
      <point x="228" y="1374"/>
      <point x="256" y="1374" type="curve" smooth="yes"/>
      <point x="282" y="1374"/>
      <point x="297" y="1360"/>
    </contour>
    <contour>
      <point x="1365" y="913" type="curve" smooth="yes"/>
      <point x="1375.21" y="796.011"/>
      <point x="1289.07" y="693.461"/>
      <point x="1173" y="683" type="curve" smooth="yes"/>
      <point x="1056.03" y="672.458"/>
      <point x="953.473" y="759.048"/>
      <point x="943" y="876" type="curve" smooth="yes"/>
      <point x="941.474" y="893.048"/>
      <point x="943" y="923"/>
      <point x="950" y="953" type="curve"/>
      <point x="750" y="937" type="line"/>
      <point x="760" y="904"/>
      <point x="761" y="870"/>
      <point x="761" y="835" type="curve" smooth="yes"/>
      <point x="761" y="35" type="line" smooth="yes"/>
      <point x="761" y="-6"/>
      <point x="727" y="-40"/>
      <point x="686" y="-40" type="curve" smooth="yes"/>
      <point x="643" y="-40"/>
      <point x="611" y="-5"/>
      <point x="611" y="35" type="curve" smooth="yes"/>
      <point x="611" y="800" type="line" smooth="yes"/>
      <point x="611" y="889"/>
      <point x="550" y="1024"/>
      <point x="497" y="1101" type="curve"/>
      <point x="212" y="936"/>
      <point x="178.121" y="765.045"/>
      <point x="166" y="467" type="curve" smooth="yes"/>
      <point x="161.119" y="346.973"/>
      <point x="160.806" y="206"/>
      <point x="160" y="35" type="curve" smooth="yes"/>
      <point x="159.807" y="-6"/>
      <point x="126" y="-40"/>
      <point x="85" y="-40" type="curve" smooth="yes"/>
      <point x="44" y="-40"/>
      <point x="9.6975" y="-6.00225"/>
      <point x="10" y="35" type="curve" smooth="yes"/>
      <point x="11.6973" y="265.013"/>
      <point x="-2.8287" y="567.958"/>
      <point x="55" y="790" type="curve" smooth="yes"/>
      <point x="103.173" y="974.965"/>
      <point x="206" y="1109"/>
      <point x="413" y="1221" type="curve"/>
      <point x="380" y="1270"/>
      <point x="296.227" y="1347.72"/>
      <point x="368" y="1405" type="curve" smooth="yes"/>
      <point x="400.227" y="1430.72"/>
      <point x="446.757" y="1425.8"/>
      <point x="473" y="1393" type="curve" smooth="yes"/>
      <point x="550.752" y="1295.81"/>
      <point x="609" y="1187"/>
      <point x="673" y="1082" type="curve"/>
      <point x="753" y="1088"/>
      <point x="1133" y="1117"/>
      <point x="1133" y="1117" type="curve"/>
      <point x="1254.98" y="1126.28"/>
      <point x="1353.21" y="1048.03"/>
    </contour>
    <contour>
      <point x="829" y="57" type="line"/>
      <point x="796" y="0" type="line"/>
      <point x="763" y="57" type="line"/>
      <point x="782" y="57" type="line"/>
      <point x="782" y="835" type="line" smooth="yes"/>
      <point x="782" y="968.003"/>
      <point x="658" y="1196"/>
      <point x="490" y="1406" type="curve"/>
      <point x="513" y="1424" type="line"/>
      <point x="682" y="1215"/>
      <point x="812" y="980.003"/>
      <point x="812" y="835" type="curve" smooth="yes"/>
      <point x="812" y="57" type="line"/>
    </contour>
    <contour>
      <point x="369" y="1219" type="line"/>
      <point x="42" y="1028"/>
      <point x="0.542" y="758.054"/>
      <point x="-9" y="416" type="curve" smooth="yes"/>
      <point x="-12.459" y="291.998"/>
      <point x="-9" y="167"/>
      <point x="-10" y="57" type="curve"/>
      <point x="9" y="57" type="line"/>
      <point x="-24" y="0" type="line"/>
      <point x="-57" y="57" type="line"/>
      <point x="-40" y="57" type="line"/>
      <point x="-39" y="302"/>
      <point x="-55.7083" y="563.924"/>
      <point x="7" y="803" type="curve" smooth="yes"/>
      <point x="56.2912" y="990.924"/>
      <point x="159" y="1131"/>
      <point x="354" y="1245" type="curve"/>
    </contour>
    <contour>
      <point x="1325" y="910" type="curve" smooth="yes"/>
      <point x="1316.55" y="1003.97"/>
      <point x="1233" y="1083.04"/>
      <point x="1138" y="1076" type="curve" smooth="yes"/>
      <point x="652" y="1040" type="line"/>
      <point x="583" y="1150"/>
      <point x="523.974" y="1267"/>
      <point x="442" y="1368" type="curve" smooth="yes"/>
      <point x="411.983" y="1404.99"/>
      <point x="359.118" y="1360.09"/>
      <point x="387" y="1325" type="curve" smooth="yes"/>
      <point x="417.118" y="1287.09"/>
      <point x="444" y="1247"/>
      <point x="469" y="1205" type="curve"/>
      <point x="119" y="1024"/>
      <point x="68.3952" y="814.984"/>
      <point x="55" y="460" type="curve" smooth="yes"/>
      <point x="50.3958" y="337.984"/>
      <point x="50.8948" y="197"/>
      <point x="50" y="35" type="curve" smooth="yes"/>
      <point x="49.8953" y="16"/>
      <point x="66" y="0"/>
      <point x="85" y="0" type="curve" smooth="yes"/>
      <point x="104" y="0"/>
      <point x="119.834" y="15.9987"/>
      <point x="120" y="35" type="curve" smooth="yes"/>
      <point x="121.834" y="245.014"/>
      <point x="108.371" y="565.897"/>
      <point x="164" y="768" type="curve" smooth="yes"/>
      <point x="217.37" y="961.896"/>
      <point x="338" y="1057"/>
      <point x="508" y="1153" type="curve"/>
      <point x="574" y="1066"/>
      <point x="651" y="913.001"/>
      <point x="651" y="800" type="curve" smooth="yes"/>
      <point x="651" y="35" type="line" smooth="yes"/>
      <point x="651" y="16"/>
      <point x="666" y="0"/>
      <point x="686" y="0" type="curve" smooth="yes"/>
      <point x="705" y="0"/>
      <point x="721" y="16"/>
      <point x="721" y="35" type="curve" smooth="yes"/>
      <point x="721" y="835" type="line" smooth="yes"/>
      <point x="721" y="901"/>
      <point x="718" y="913"/>
      <point x="692" y="973" type="curve"/>
      <point x="1009" y="997" type="line"/>
      <point x="994" y="960"/>
      <point x="979.38" y="921.035"/>
      <point x="983" y="880" type="curve" smooth="yes"/>
      <point x="991.379" y="785.034"/>
      <point x="1074" y="715"/>
      <point x="1169" y="723" type="curve" smooth="yes"/>
      <point x="1264" y="731"/>
      <point x="1333.55" y="814.951"/>
    </contour>
    <contour>
      <point x="1255" y="903" type="curve" smooth="yes"/>
      <point x="1259.92" y="847.993"/>
      <point x="1219" y="798.956"/>
      <point x="1163" y="794" type="curve" smooth="yes"/>
      <point x="1106.01" y="788.957"/>
      <point x="1056.74" y="829.976"/>
      <point x="1052" y="886" type="curve" smooth="yes"/>
      <point x="1040.74" y="1018.98"/>
      <point x="1242.92" y="1038"/>
    </contour>
    <contour>
      <point x="447" y="1340" type="curve" smooth="yes"/>
      <point x="447" y="1326"/>
      <point x="436" y="1315"/>
      <point x="422" y="1315" type="curve" smooth="yes"/>
      <point x="408" y="1315"/>
      <point x="397" y="1326"/>
      <point x="397" y="1340" type="curve" smooth="yes"/>
      <point x="397" y="1354"/>
      <point x="408" y="1365"/>
      <point x="422" y="1365" type="curve" smooth="yes"/>
      <point x="436" y="1365"/>
      <point x="447" y="1354"/>
    </contour>
    <contour>
      <point x="1215" y="900" type="curve" smooth="yes"/>
      <point x="1207.96" y="981.996"/>
      <point x="1084.91" y="970.996"/>
      <point x="1092" y="889" type="curve" smooth="yes"/>
      <point x="1098.91" y="808.993"/>
      <point x="1221.96" y="818.997"/>
    </contour>
  </outline>
</glyph>
<glyph name="uni120F" format="2">
  <advance width="1446"/>
  <unicode hex="120F"/>
  <outline>
    <contour>
      <point x="1887" y="1582" type="line"/>
      <point x="1539" y="1474" type="line"/>
      <point x="1774" y="1191" type="line"/>
      <point x="1449" y="1363" type="line"/>
      <point x="1415" y="1000" type="line"/>
      <point x="1307" y="1348" type="line"/>
      <point x="1024" y="1113" type="line"/>
      <point x="1196" y="1438" type="line"/>
      <point x="833" y="1472" type="line"/>
      <point x="1181" y="1580" type="line"/>
      <point x="946" y="1863" type="line"/>
      <point x="1271" y="1691" type="line"/>
      <point x="1305" y="2054" type="line"/>
      <point x="1413" y="1706" type="line"/>
      <point x="1696" y="1941" type="line"/>
      <point x="1524" y="1616" type="line"/>
    </contour>
    <contour>
      <point x="1427" y="-82" type="curve"/>
      <point x="1374" y="-126"/>
      <point x="1347" y="-144"/>
      <point x="1272" y="-144" type="curve" smooth="yes"/>
      <point x="1146" y="-144"/>
      <point x="1023" y="-81"/>
      <point x="998" y="62" type="curve"/>
      <point x="557" y="35" type="line"/>
      <point x="551" y="-111"/>
      <point x="396.006" y="-204"/>
      <point x="256" y="-204" type="curve" smooth="yes"/>
      <point x="206.998" y="-204"/>
      <point x="158" y="-199"/>
      <point x="110" y="-195" type="curve"/>
      <point x="161" y="-100"/>
      <point x="181" y="-52"/>
      <point x="181" y="63" type="curve" smooth="yes"/>
      <point x="181" y="93"/>
      <point x="163" y="143"/>
      <point x="157" y="164" type="curve"/>
      <point x="592" y="191" type="line"/>
      <point x="575" y="261"/>
      <point x="574" y="355"/>
      <point x="574" y="450" type="curve" smooth="yes"/>
      <point x="574" y="504" type="line" smooth="yes"/>
      <point x="574" y="665"/>
      <point x="569" y="821"/>
      <point x="518" y="927" type="curve"/>
      <point x="441" y="844"/>
      <point x="402" y="742"/>
      <point x="402" y="584" type="curve" smooth="yes"/>
      <point x="402" y="559"/>
      <point x="404" y="544"/>
      <point x="423" y="531" type="curve"/>
      <point x="423" y="449" type="line"/>
      <point x="229" y="418" type="line" smooth="yes"/>
      <point x="213.894" y="415.586"/>
      <point x="200" y="413"/>
      <point x="185" y="413" type="curve" smooth="yes"/>
      <point x="84" y="413"/>
      <point x="56" y="490.997"/>
      <point x="56" y="594" type="curve" smooth="yes"/>
      <point x="56" y="794.005"/>
      <point x="109" y="1023"/>
      <point x="363" y="1183" type="curve"/>
      <point x="275" y="1333" type="line"/>
      <point x="600" y="1444" type="line"/>
      <point x="720" y="1202" type="line"/>
      <point x="1037" y="961"/>
      <point x="870" y="322"/>
      <point x="963" y="211" type="curve"/>
      <point x="1403" y="239" type="line"/>
      <point x="1384" y="184"/>
      <point x="1373" y="153"/>
      <point x="1373" y="94" type="curve" smooth="yes"/>
      <point x="1373" y="8"/>
      <point x="1379" y="-19"/>
    </contour>
    <contour>
      <point x="1685" y="1561" type="line"/>
      <point x="1461" y="1582" type="line"/>
      <point x="1566" y="1781" type="line"/>
      <point x="1393" y="1637" type="line"/>
      <point x="1326" y="1852" type="line"/>
      <point x="1305" y="1628" type="line"/>
      <point x="1106" y="1733" type="line"/>
      <point x="1250" y="1560" type="line"/>
      <point x="1035" y="1493" type="line"/>
      <point x="1259" y="1472" type="line"/>
      <point x="1154" y="1273" type="line"/>
      <point x="1327" y="1417" type="line"/>
      <point x="1394" y="1202" type="line"/>
      <point x="1415" y="1426" type="line"/>
      <point x="1614" y="1321" type="line"/>
      <point x="1470" y="1494" type="line"/>
    </contour>
    <contour>
      <point x="1372" y="-76" type="curve"/>
      <point x="1338" y="-27"/>
      <point x="1333" y="36"/>
      <point x="1333" y="94" type="curve" smooth="yes"/>
      <point x="1333" y="128"/>
      <point x="1337" y="162"/>
      <point x="1346" y="195" type="curve"/>
      <point x="949" y="170" type="line"/>
      <point x="903" y="206"/>
      <point x="897.624" y="280.042"/>
      <point x="894" y="330" type="curve" smooth="yes"/>
      <point x="874.625" y="597.034"/>
      <point x="932" y="995"/>
      <point x="688" y="1176" type="curve"/>
      <point x="580" y="1395" type="line"/>
      <point x="334" y="1311" type="line"/>
      <point x="418" y="1169" type="line"/>
      <point x="186" y="1031"/>
      <point x="96" y="850.998"/>
      <point x="96" y="594" type="curve" smooth="yes"/>
      <point x="96" y="493.998"/>
      <point x="121" y="453"/>
      <point x="185" y="453" type="curve" smooth="yes"/>
      <point x="198" y="453"/>
      <point x="210.018" y="454.89"/>
      <point x="223" y="457" type="curve" smooth="yes"/>
      <point x="383" y="483" type="line"/>
      <point x="383" y="512" type="line"/>
      <point x="369" y="527"/>
      <point x="362" y="554"/>
      <point x="362" y="584" type="curve" smooth="yes"/>
      <point x="362" y="759.007"/>
      <point x="402" y="871"/>
      <point x="526" y="992" type="curve"/>
      <point x="615" y="845"/>
      <point x="614" y="669"/>
      <point x="614" y="504" type="curve" smooth="yes"/>
      <point x="614" y="450" type="line" smooth="yes"/>
      <point x="614" y="348"/>
      <point x="613" y="251"/>
      <point x="645" y="154" type="curve"/>
      <point x="209" y="127" type="line"/>
      <point x="215" y="106"/>
      <point x="221" y="86"/>
      <point x="221" y="63" type="curve" smooth="yes"/>
      <point x="221" y="-16"/>
      <point x="209" y="-90"/>
      <point x="174" y="-160" type="curve"/>
      <point x="201" y="-162"/>
      <point x="228" y="-164"/>
      <point x="256" y="-164" type="curve" smooth="yes"/>
      <point x="388" y="-164"/>
      <point x="517" y="-76"/>
      <point x="517" y="43" type="curve" smooth="yes"/>
      <point x="517" y="53"/>
      <point x="516" y="63"/>
      <point x="515" y="72" type="curve"/>
      <point x="1033" y="104" type="line"/>
      <point x="1048" y="-35"/>
      <point x="1136" y="-104"/>
      <point x="1272" y="-104" type="curve" smooth="yes"/>
      <point x="1309" y="-104"/>
      <point x="1343" y="-98"/>
    </contour>
  </outline>
</glyph>
<glyph name="uni1213" format="2">
  <advance width="1100"/>
  <unicode hex="1213"/>
  <outline>
    <component base="bar"/>
    <contour>
      <point x="411" y="1244" type="line"/>
      <point x="390" y="1244" type="line"/>
      <point x="390" y="1345" type="line"/>
      <point x="383" y="1339"/>
      <point x="369" y="1332"/>
      <point x="361" y="1330" type="curve"/>
      <point x="361" y="1349" type="line"/>
      <point x="370" y="1353"/>
      <point x="386" y="1366"/>
      <point x="390" y="1370" type="curve"/>
      <point x="411" y="1370" type="line"/>
    </contour>
    <contour>
      <point x="361" y="1041" type="curve" smooth="yes"/>
      <point x="361" y="1012"/>
      <point x="334" y="992"/>
      <point x="294" y="966" type="curve"/>
      <point x="358" y="966" type="line"/>
      <point x="358" y="946" type="line"/>
      <point x="273" y="946" type="line"/>
      <point x="273" y="964" type="line"/>
      <point x="324" y="1005"/>
      <point x="339" y="1024"/>
      <point x="339" y="1041" type="curve" smooth="yes"/>
      <point x="339" y="1049"/>
      <point x="335" y="1061"/>
      <point x="320" y="1061" type="curve" smooth="yes"/>
      <point x="304" y="1061"/>
      <point x="298" y="1048"/>
      <point x="297" y="1037" type="curve"/>
      <point x="275" y="1037" type="line"/>
      <point x="277" y="1063"/>
      <point x="292" y="1076"/>
      <point x="320" y="1076" type="curve" smooth="yes"/>
      <point x="346" y="1076"/>
      <point x="361" y="1062"/>
    </contour>
    <contour>
      <point x="485" y="1360" type="line"/>
      <point x="406" y="456" type="line"/>
      <point x="422" y="455" type="line"/>
      <point x="384" y="401" type="line"/>
      <point x="356" y="461" type="line"/>
      <point x="376" y="459" type="line"/>
      <point x="455" y="1363" type="line"/>
    </contour>
    <contour>
      <point x="714" y="547" type="curve" smooth="yes"/>
      <point x="714" y="528"/>
      <point x="700" y="509"/>
      <point x="668" y="509" type="curve" smooth="yes"/>
      <point x="635" y="509"/>
      <point x="627" y="529"/>
      <point x="627" y="545" type="curve"/>
      <point x="649" y="545" type="line"/>
      <point x="649" y="533"/>
      <point x="657" y="525"/>
      <point x="669" y="525" type="curve" smooth="yes"/>
      <point x="681" y="525"/>
      <point x="692" y="533"/>
      <point x="692" y="547" type="curve" smooth="yes"/>
      <point x="692" y="552"/>
      <point x="688" y="569"/>
      <point x="670" y="569" type="curve" smooth="yes"/>
      <point x="659" y="569" type="line"/>
      <point x="659" y="583" type="line"/>
      <point x="687" y="583"/>
      <point x="689" y="595"/>
      <point x="689" y="605" type="curve" smooth="yes"/>
      <point x="689" y="614"/>
      <point x="685" y="624"/>
      <point x="672" y="624" type="curve" smooth="yes"/>
      <point x="658" y="624"/>
      <point x="652" y="618"/>
      <point x="651" y="606" type="curve"/>
      <point x="629" y="606" type="line"/>
      <point x="630" y="628"/>
      <point x="648" y="639"/>
      <point x="671" y="639" type="curve" smooth="yes"/>
      <point x="693" y="639"/>
      <point x="711" y="627"/>
      <point x="711" y="605" type="curve" smooth="yes"/>
      <point x="711" y="586"/>
      <point x="699" y="581"/>
      <point x="688" y="577" type="curve"/>
      <point x="699" y="574"/>
      <point x="714" y="565"/>
    </contour>
    <contour>
      <point x="1040" y="35" type="line" smooth="yes"/>
      <point x="1040" y="-6"/>
      <point x="1006" y="-40"/>
      <point x="965" y="-40" type="curve" smooth="yes"/>
      <point x="922" y="-40"/>
      <point x="890" y="-5.00175"/>
      <point x="890" y="35" type="curve" smooth="yes"/>
      <point x="890" y="582" type="line" smooth="yes"/>
      <point x="890" y="712.005"/>
      <point x="853.014" y="736.384"/>
      <point x="679" y="734" type="curve" smooth="yes"/>
      <point x="606" y="733" type="line"/>
      <point x="597" y="623"/>
      <point x="576" y="382"/>
      <point x="576" y="382" type="curve"/>
      <point x="572.152" y="336.983"/>
      <point x="536.006" y="313.048"/>
      <point x="495" y="317" type="curve" smooth="yes"/>
      <point x="453.005" y="321.048"/>
      <point x="422.289" y="348.976"/>
      <point x="426" y="393" type="curve"/>
      <point x="426" y="393"/>
      <point x="446" y="629"/>
      <point x="455" y="737" type="curve"/>
      <point x="103" y="708"/>
      <point x="227.129" y="320.576"/>
      <point x="67" y="354" type="curve" smooth="yes"/>
      <point x="21.1135" y="363.578"/>
      <point x="2.6015" y="407.856"/>
      <point x="14" y="456" type="curve" smooth="yes"/>
      <point x="78.6018" y="728.859"/>
      <point x="227" y="874"/>
      <point x="468" y="887" type="curve"/>
      <point x="511" y="1374" type="line" smooth="yes"/>
      <point x="519.744" y="1473.03"/>
      <point x="669.326" y="1458.07"/>
      <point x="661" y="1361" type="curve" smooth="yes"/>
      <point x="620" y="883" type="line"/>
      <point x="675" y="885" type="line" smooth="yes"/>
      <point x="854.938" y="891.543"/>
      <point x="1040" y="859.007"/>
      <point x="1040" y="613" type="curve" smooth="yes"/>
    </contour>
    <contour>
      <point x="871" y="57" type="line"/>
      <point x="838" y="0" type="line"/>
      <point x="805" y="57" type="line"/>
      <point x="824" y="57" type="line"/>
      <point x="824" y="582" type="line" smooth="yes"/>
      <point x="824" y="635"/>
      <point x="821.042" y="656.053"/>
      <point x="805" y="668" type="curve" smooth="yes"/>
      <point x="774.038" y="691.056"/>
      <point x="678" y="684"/>
      <point x="639" y="683" type="curve"/>
      <point x="638" y="713" type="line"/>
      <point x="685" y="715"/>
      <point x="781.659" y="721.545"/>
      <point x="822" y="692" type="curve" smooth="yes"/>
      <point x="852.667" y="669.54"/>
      <point x="854" y="631"/>
      <point x="854" y="582" type="curve" smooth="yes"/>
      <point x="854" y="57" type="line"/>
    </contour>
    <contour>
      <point x="389" y="897" type="line"/>
      <point x="194" y="862"/>
      <point x="72" y="730"/>
      <point x="9" y="514" type="curve"/>
      <point x="26" y="508" type="line"/>
      <point x="-23" y="464" type="line"/>
      <point x="-37" y="528" type="line"/>
      <point x="-20" y="523" type="line"/>
      <point x="45" y="748"/>
      <point x="172" y="888"/>
      <point x="383" y="927" type="curve"/>
    </contour>
    <contour>
      <point x="1000" y="35" type="curve" smooth="yes"/>
      <point x="1000" y="613" type="line" smooth="yes"/>
      <point x="1000" y="879.007"/>
      <point x="752" y="847"/>
      <point x="576" y="842" type="curve"/>
      <point x="621" y="1364" type="line" smooth="yes"/>
      <point x="624.88" y="1409.01"/>
      <point x="555.14" y="1416.98"/>
      <point x="551" y="1370" type="curve" smooth="yes"/>
      <point x="505" y="848" type="line"/>
      <point x="238" y="841"/>
      <point x="112.365" y="697.918"/>
      <point x="53" y="447" type="curve" smooth="yes"/>
      <point x="37.363" y="380.907"/>
      <point x="106" y="376.999"/>
      <point x="115" y="422" type="curve" smooth="yes"/>
      <point x="161" y="652.002"/>
      <point x="261" y="770"/>
      <point x="499" y="779" type="curve"/>
      <point x="465" y="395" type="line" smooth="yes"/>
      <point x="461.015" y="349.995"/>
      <point x="531.829" y="342.014"/>
      <point x="536" y="389" type="curve" smooth="yes"/>
      <point x="570" y="772" type="line"/>
      <point x="678" y="774" type="line" smooth="yes"/>
      <point x="861.988" y="777.407"/>
      <point x="930" y="746.007"/>
      <point x="930" y="582" type="curve" smooth="yes"/>
      <point x="930" y="35" type="line" smooth="yes"/>
      <point x="930" y="16"/>
      <point x="945" y="0"/>
      <point x="965" y="0" type="curve" smooth="yes"/>
      <point x="984" y="0"/>
      <point x="1000" y="16"/>
    </contour>
    <contour>
      <point x="613" y="1362" type="curve" smooth="yes"/>
      <point x="613" y="1348"/>
      <point x="602" y="1337"/>
      <point x="588" y="1337" type="curve" smooth="yes"/>
      <point x="574" y="1337"/>
      <point x="563" y="1348"/>
      <point x="563" y="1362" type="curve" smooth="yes"/>
      <point x="563" y="1376"/>
      <point x="574" y="1387"/>
      <point x="588" y="1387" type="curve" smooth="yes"/>
      <point x="602" y="1387"/>
      <point x="613" y="1376"/>
    </contour>
  </outline>
</glyph>
<glyph name="uni1214" format="2">
  <advance width="1401"/>
  <unicode hex="1214"/>
  <outline>
    <component base="bar"/>
    <contour>
      <point x="445" y="1244" type="line"/>
      <point x="424" y="1244" type="line"/>
      <point x="424" y="1345" type="line"/>
      <point x="417" y="1339"/>
      <point x="403" y="1332"/>
      <point x="395" y="1330" type="curve"/>
      <point x="395" y="1349" type="line"/>
      <point x="404" y="1353"/>
      <point x="420" y="1366"/>
      <point x="424" y="1370" type="curve"/>
      <point x="445" y="1370" type="line"/>
    </contour>
    <contour>
      <point x="1341" y="171" type="curve" smooth="yes"/>
      <point x="1341" y="54"/>
      <point x="1246" y="-40"/>
      <point x="1129" y="-40" type="curve" smooth="yes"/>
      <point x="1016" y="-40"/>
      <point x="906.684" y="50.9925"/>
      <point x="907" y="171" type="curve" smooth="yes"/>
      <point x="908" y="550" type="line" smooth="yes"/>
      <point x="908.403" y="703.018"/>
      <point x="882.009" y="735.811"/>
      <point x="767" y="734" type="curve" smooth="yes"/>
      <point x="640" y="732" type="line"/>
      <point x="579" y="31" type="line" smooth="yes"/>
      <point x="570.383" y="-68.0303"/>
      <point x="419.454" y="-52.9478"/>
      <point x="428" y="44" type="curve" smooth="yes"/>
      <point x="489" y="736" type="line"/>
      <point x="271" y="718"/>
      <point x="154.127" y="551.018"/>
      <point x="160" y="35" type="curve" smooth="yes"/>
      <point x="161.127" y="-63.9893"/>
      <point x="11.0935" y="-65.9918"/>
      <point x="10" y="34" type="curve" smooth="yes"/>
      <point x="4.09375" y="574.032"/>
      <point x="150" y="868"/>
      <point x="502" y="887" type="curve"/>
      <point x="545" y="1373" type="line" smooth="yes"/>
      <point x="553.754" y="1471.94"/>
      <point x="703.527" y="1457.05"/>
      <point x="695" y="1360" type="curve" smooth="yes"/>
      <point x="653" y="882" type="line"/>
      <point x="764" y="885" type="line" smooth="yes"/>
      <point x="964.952" y="890.431"/>
      <point x="1058.69" y="779"/>
      <point x="1058" y="613" type="curve" smooth="yes"/>
      <point x="1057" y="371" type="line"/>
      <point x="1080" y="379"/>
      <point x="1104" y="383"/>
      <point x="1129" y="383" type="curve" smooth="yes"/>
      <point x="1246" y="383"/>
      <point x="1341" y="288"/>
    </contour>
    <contour>
      <point x="395" y="1041" type="curve" smooth="yes"/>
      <point x="395" y="1012"/>
      <point x="368" y="992"/>
      <point x="328" y="966" type="curve"/>
      <point x="392" y="966" type="line"/>
      <point x="392" y="946" type="line"/>
      <point x="307" y="946" type="line"/>
      <point x="307" y="964" type="line"/>
      <point x="358" y="1005"/>
      <point x="373" y="1024"/>
      <point x="373" y="1041" type="curve" smooth="yes"/>
      <point x="373" y="1049"/>
      <point x="369" y="1061"/>
      <point x="354" y="1061" type="curve" smooth="yes"/>
      <point x="338" y="1061"/>
      <point x="332" y="1048"/>
      <point x="331" y="1037" type="curve"/>
      <point x="309" y="1037" type="line"/>
      <point x="311" y="1063"/>
      <point x="326" y="1076"/>
      <point x="354" y="1076" type="curve" smooth="yes"/>
      <point x="380" y="1076"/>
      <point x="395" y="1062"/>
    </contour>
    <contour>
      <point x="1393" y="175" type="curve" smooth="yes"/>
      <point x="1393" y="29.992"/>
      <point x="1276.01" y="-87"/>
      <point x="1131" y="-87" type="curve" smooth="yes"/>
      <point x="992.992" y="-87"/>
      <point x="859" y="24"/>
      <point x="859" y="175" type="curve"/>
      <point x="889" y="175" type="line"/>
      <point x="889" y="42"/>
      <point x="1007" y="-57"/>
      <point x="1131" y="-57" type="curve" smooth="yes"/>
      <point x="1259" y="-57"/>
      <point x="1363" y="47"/>
      <point x="1363" y="175" type="curve" smooth="yes"/>
      <point x="1363" y="297"/>
      <point x="1269" y="397"/>
      <point x="1150" y="406" type="curve"/>
      <point x="1150" y="388" type="line"/>
      <point x="1093" y="421" type="line"/>
      <point x="1150" y="454" type="line"/>
      <point x="1150" y="436" type="line"/>
      <point x="1286" y="427"/>
      <point x="1393" y="313.007"/>
    </contour>
    <contour>
      <point x="905" y="334" type="line"/>
      <point x="872" y="277" type="line"/>
      <point x="839" y="334" type="line"/>
      <point x="858" y="334" type="line"/>
      <point x="858" y="582" type="line" smooth="yes"/>
      <point x="858" y="635"/>
      <point x="855.042" y="656.054"/>
      <point x="839" y="668" type="curve" smooth="yes"/>
      <point x="808.038" y="691.056"/>
      <point x="712" y="684"/>
      <point x="673" y="683" type="curve"/>
      <point x="672" y="713" type="line"/>
      <point x="719" y="715"/>
      <point x="815.659" y="721.545"/>
      <point x="856" y="692" type="curve" smooth="yes"/>
      <point x="886.667" y="669.54"/>
      <point x="888" y="631"/>
      <point x="888" y="582" type="curve" smooth="yes"/>
      <point x="888" y="334" type="line"/>
    </contour>
    <contour>
      <point x="748" y="547" type="curve" smooth="yes"/>
      <point x="748" y="528"/>
      <point x="734" y="509"/>
      <point x="702" y="509" type="curve" smooth="yes"/>
      <point x="669" y="509"/>
      <point x="661" y="529"/>
      <point x="661" y="545" type="curve"/>
      <point x="683" y="545" type="line"/>
      <point x="683" y="533"/>
      <point x="691" y="525"/>
      <point x="703" y="525" type="curve" smooth="yes"/>
      <point x="715" y="525"/>
      <point x="726" y="533"/>
      <point x="726" y="547" type="curve" smooth="yes"/>
      <point x="726" y="552"/>
      <point x="722" y="569"/>
      <point x="704" y="569" type="curve" smooth="yes"/>
      <point x="693" y="569" type="line"/>
      <point x="693" y="583" type="line"/>
      <point x="721" y="583"/>
      <point x="723" y="595"/>
      <point x="723" y="605" type="curve" smooth="yes"/>
      <point x="723" y="614"/>
      <point x="719" y="624"/>
      <point x="706" y="624" type="curve" smooth="yes"/>
      <point x="692" y="624"/>
      <point x="686" y="618"/>
      <point x="685" y="606" type="curve"/>
      <point x="663" y="606" type="line"/>
      <point x="664" y="628"/>
      <point x="682" y="639"/>
      <point x="705" y="639" type="curve" smooth="yes"/>
      <point x="727" y="639"/>
      <point x="745" y="627"/>
      <point x="745" y="605" type="curve" smooth="yes"/>
      <point x="745" y="586"/>
      <point x="733" y="581"/>
      <point x="722" y="577" type="curve"/>
      <point x="733" y="574"/>
      <point x="748" y="565"/>
    </contour>
    <contour>
      <point x="519" y="1360" type="line"/>
      <point x="409" y="58" type="line"/>
      <point x="425" y="57" type="line"/>
      <point x="388" y="3" type="line"/>
      <point x="360" y="63" type="line"/>
      <point x="380" y="61" type="line"/>
      <point x="489" y="1363" type="line"/>
    </contour>
    <contour>
      <point x="830" y="115" type="line"/>
      <point x="817" y="115" type="line"/>
      <point x="817" y="88" type="line"/>
      <point x="796" y="88" type="line"/>
      <point x="796" y="115" type="line"/>
      <point x="736" y="115" type="line"/>
      <point x="736" y="140" type="line"/>
      <point x="788" y="215" type="line"/>
      <point x="817" y="215" type="line"/>
      <point x="817" y="134" type="line"/>
      <point x="830" y="134" type="line"/>
    </contour>
    <contour>
      <point x="423" y="897" type="line"/>
      <point x="116" y="841"/>
      <point x="-11" y="546"/>
      <point x="-10" y="60" type="curve"/>
      <point x="8" y="60" type="line"/>
      <point x="-25" y="3" type="line"/>
      <point x="-58" y="60" type="line"/>
      <point x="-40" y="60" type="line"/>
      <point x="-41" y="547"/>
      <point x="86" y="866"/>
      <point x="417" y="927" type="curve"/>
    </contour>
    <contour>
      <point x="1301" y="171" type="curve" smooth="yes"/>
      <point x="1301" y="266"/>
      <point x="1224" y="343"/>
      <point x="1129" y="343" type="curve" smooth="yes"/>
      <point x="1082" y="343"/>
      <point x="1056" y="328"/>
      <point x="1017" y="306" type="curve"/>
      <point x="1018" y="613" type="line" smooth="yes"/>
      <point x="1018.86" y="877.007"/>
      <point x="790" y="846"/>
      <point x="610" y="841" type="curve"/>
      <point x="655" y="1363" type="line" smooth="yes"/>
      <point x="658.88" y="1408.01"/>
      <point x="587.974" y="1416.1"/>
      <point x="584" y="1370" type="curve" smooth="yes"/>
      <point x="539" y="848" type="line"/>
      <point x="78" y="835"/>
      <point x="45.6025" y="370.01"/>
      <point x="50" y="34" type="curve" smooth="yes"/>
      <point x="50.602" y="-12.009"/>
      <point x="120.543" y="-12.0037"/>
      <point x="120" y="35" type="curve" smooth="yes"/>
      <point x="116.544" y="333.992"/>
      <point x="118" y="763"/>
      <point x="533" y="778" type="curve"/>
      <point x="468" y="41" type="line" smooth="yes"/>
      <point x="464.031" y="-4.0025"/>
      <point x="535.011" y="-12.0012"/>
      <point x="539" y="34" type="curve" smooth="yes"/>
      <point x="603" y="772" type="line"/>
      <point x="766" y="774" type="line" smooth="yes"/>
      <point x="913" y="775.804"/>
      <point x="948.432" y="714.018"/>
      <point x="948" y="550" type="curve" smooth="yes"/>
      <point x="947" y="171" type="line" smooth="yes"/>
      <point x="946.75" y="75.994"/>
      <point x="1034" y="0"/>
      <point x="1129" y="0" type="curve" smooth="yes"/>
      <point x="1224" y="0"/>
      <point x="1301" y="76"/>
    </contour>
    <contour>
      <point x="796" y="134" type="line"/>
      <point x="796" y="199" type="line"/>
      <point x="751" y="134" type="line"/>
    </contour>
    <contour>
      <point x="641" y="1362" type="curve" smooth="yes"/>
      <point x="641" y="1348"/>
      <point x="630" y="1337"/>
      <point x="616" y="1337" type="curve" smooth="yes"/>
      <point x="602" y="1337"/>
      <point x="591" y="1348"/>
      <point x="591" y="1362" type="curve" smooth="yes"/>
      <point x="591" y="1376"/>
      <point x="602" y="1387"/>
      <point x="616" y="1387" type="curve" smooth="yes"/>
      <point x="630" y="1387"/>
      <point x="641" y="1376"/>
    </contour>
    <contour>
      <point x="1231" y="171" type="curve" smooth="yes"/>
      <point x="1231" y="115"/>
      <point x="1185" y="70"/>
      <point x="1129" y="70" type="curve" smooth="yes"/>
      <point x="1073" y="70"/>
      <point x="1027" y="115"/>
      <point x="1027" y="171" type="curve" smooth="yes"/>
      <point x="1027" y="228"/>
      <point x="1073" y="273"/>
      <point x="1129" y="273" type="curve" smooth="yes"/>
      <point x="1185" y="273"/>
      <point x="1231" y="228"/>
    </contour>
    <contour>
      <point x="1191" y="171" type="curve" smooth="yes"/>
      <point x="1191" y="206"/>
      <point x="1163" y="233"/>
      <point x="1129" y="233" type="curve" smooth="yes"/>
      <point x="1095" y="233"/>
      <point x="1067" y="206"/>
      <point x="1067" y="171" type="curve" smooth="yes"/>
      <point x="1067" y="138"/>
      <point x="1095" y="110"/>
      <point x="1129" y="110" type="curve" smooth="yes"/>
      <point x="1164" y="110"/>
      <point x="1191" y="138"/>
    </contour>
  </outline>
</glyph>
<glyph name="uni1217" format="2">
  <advance width="1997"/>
  <unicode hex="1217"/>
  <outline>
    <contour>
      <point x="1887" y="1582" type="line"/>
      <point x="1539" y="1474" type="line"/>
      <point x="1774" y="1191" type="line"/>
      <point x="1449" y="1363" type="line"/>
      <point x="1415" y="1000" type="line"/>
      <point x="1307" y="1348" type="line"/>
      <point x="1024" y="1113" type="line"/>
      <point x="1196" y="1438" type="line"/>
      <point x="833" y="1472" type="line"/>
      <point x="1181" y="1580" type="line"/>
      <point x="946" y="1863" type="line"/>
      <point x="1271" y="1691" type="line"/>
      <point x="1305" y="2054" type="line"/>
      <point x="1413" y="1706" type="line"/>
      <point x="1696" y="1941" type="line"/>
      <point x="1524" y="1616" type="line"/>
    </contour>
    <contour>
      <point x="1968" y="-37" type="curve"/>
      <point x="1911" y="-78"/>
      <point x="1886" y="-97"/>
      <point x="1810" y="-97" type="curve" smooth="yes"/>
      <point x="1684" y="-97"/>
      <point x="1561" y="-34"/>
      <point x="1537" y="110" type="curve"/>
      <point x="1095" y="82" type="line"/>
      <point x="1089" y="-63"/>
      <point x="937.006" y="-157"/>
      <point x="795" y="-157" type="curve" smooth="yes"/>
      <point x="745.998" y="-157"/>
      <point x="697" y="-152"/>
      <point x="649" y="-148" type="curve"/>
      <point x="700" y="-53"/>
      <point x="720" y="-5"/>
      <point x="720" y="111" type="curve" smooth="yes"/>
      <point x="720" y="140"/>
      <point x="701" y="193"/>
      <point x="696" y="211" type="curve"/>
      <point x="1128" y="238" type="line"/>
      <point x="1110" y="219" type="line"/>
      <point x="1110" y="223"/>
      <point x="1110" y="228"/>
      <point x="1110" y="235" type="curve" smooth="yes"/>
      <point x="1110" y="364"/>
      <point x="1092.03" y="544.997"/>
      <point x="1086" y="641" type="curve" smooth="yes"/>
      <point x="1080.03" y="736.005"/>
      <point x="1043" y="770"/>
      <point x="973" y="770" type="curve" smooth="yes"/>
      <point x="971" y="770"/>
      <point x="968" y="770"/>
      <point x="966" y="770" type="curve"/>
      <point x="961" y="734"/>
      <point x="941" y="605"/>
      <point x="941" y="547" type="curve" smooth="yes"/>
      <point x="941" y="508"/>
      <point x="976" y="516"/>
      <point x="1007" y="513" type="curve"/>
      <point x="1007" y="411" type="line"/>
      <point x="936" y="398"/>
      <point x="840.033" y="377.817"/>
      <point x="758" y="365" type="curve" smooth="yes"/>
      <point x="744.027" y="362.817"/>
      <point x="729" y="361"/>
      <point x="713" y="361" type="curve" smooth="yes"/>
      <point x="611" y="361"/>
      <point x="572" y="402"/>
      <point x="572" y="471" type="curve" smooth="yes"/>
      <point x="572" y="516"/>
      <point x="600" y="681"/>
      <point x="604" y="711" type="curve"/>
      <point x="502" y="686"/>
      <point x="450" y="594"/>
      <point x="450" y="555" type="curve" smooth="yes"/>
      <point x="450" y="544"/>
      <point x="449" y="498"/>
      <point x="454" y="488" type="curve"/>
      <point x="464" y="486"/>
      <point x="477" y="485"/>
      <point x="486" y="484" type="curve"/>
      <point x="486" y="383" type="line"/>
      <point x="257" y="342" type="line" smooth="yes"/>
      <point x="232.868" y="337.68"/>
      <point x="212" y="335"/>
      <point x="194" y="335" type="curve" smooth="yes"/>
      <point x="101" y="335"/>
      <point x="56" y="391.998"/>
      <point x="56" y="496" type="curve" smooth="yes"/>
      <point x="56" y="700.997"/>
      <point x="321" y="866"/>
      <point x="627" y="877" type="curve"/>
      <point x="665" y="1181" type="line" smooth="yes"/>
      <point x="667.263" y="1199.11"/>
      <point x="671" y="1229"/>
      <point x="671" y="1247" type="curve" smooth="yes"/>
      <point x="671" y="1282"/>
      <point x="642" y="1285"/>
      <point x="615" y="1293" type="curve"/>
      <point x="615" y="1393" type="line"/>
      <point x="874" y="1429" type="line" smooth="yes"/>
      <point x="903.978" y="1433.17"/>
      <point x="918" y="1435"/>
      <point x="940" y="1435" type="curve" smooth="yes"/>
      <point x="1016" y="1435"/>
      <point x="1044" y="1391"/>
      <point x="1044" y="1343" type="curve" smooth="yes"/>
      <point x="1044" y="1292"/>
      <point x="1029.9" y="1237.01"/>
      <point x="1023" y="1187" type="curve" smooth="yes"/>
      <point x="987" y="926" type="line"/>
      <point x="1059" y="938"/>
      <point x="1142" y="958"/>
      <point x="1217" y="958" type="curve" smooth="yes"/>
      <point x="1339" y="958"/>
      <point x="1430.98" y="881.003"/>
      <point x="1447" y="697" type="curve" smooth="yes"/>
      <point x="1459.98" y="547.995"/>
      <point x="1483" y="409.272"/>
      <point x="1483" y="262" type="curve" smooth="yes"/>
      <point x="1483" y="259" type="line"/>
      <point x="1933" y="285" type="line"/>
      <point x="1923" y="233"/>
      <point x="1912" y="193"/>
      <point x="1912" y="141" type="curve" smooth="yes"/>
      <point x="1912" y="53"/>
      <point x="1918" y="27"/>
    </contour>
    <contour>
      <point x="1685" y="1561" type="line"/>
      <point x="1461" y="1582" type="line"/>
      <point x="1566" y="1781" type="line"/>
      <point x="1393" y="1637" type="line"/>
      <point x="1326" y="1852" type="line"/>
      <point x="1305" y="1628" type="line"/>
      <point x="1106" y="1733" type="line"/>
      <point x="1250" y="1560" type="line"/>
      <point x="1035" y="1493" type="line"/>
      <point x="1259" y="1472" type="line"/>
      <point x="1154" y="1273" type="line"/>
      <point x="1327" y="1417" type="line"/>
      <point x="1394" y="1202" type="line"/>
      <point x="1415" y="1426" type="line"/>
      <point x="1614" y="1321" type="line"/>
      <point x="1470" y="1494" type="line"/>
    </contour>
    <contour>
      <point x="1911" y="-29" type="curve"/>
      <point x="1877" y="20"/>
      <point x="1872" y="83"/>
      <point x="1872" y="141" type="curve" smooth="yes"/>
      <point x="1872" y="176"/>
      <point x="1877" y="208"/>
      <point x="1884" y="242" type="curve"/>
      <point x="1446" y="217" type="line"/>
      <point x="1441" y="256"/>
      <point x="1441.46" y="296.036"/>
      <point x="1438" y="336" type="curve" smooth="yes"/>
      <point x="1407" y="694" type="line" smooth="yes"/>
      <point x="1392.45" y="862.04"/>
      <point x="1314" y="918"/>
      <point x="1217" y="918" type="curve" smooth="yes"/>
      <point x="1143" y="918"/>
      <point x="985" y="885"/>
      <point x="940" y="877" type="curve"/>
      <point x="958" y="1010"/>
      <point x="975.69" y="1141.04"/>
      <point x="995" y="1273" type="curve" smooth="yes"/>
      <point x="999.69" y="1305.05"/>
      <point x="1004" y="1335"/>
      <point x="1004" y="1343" type="curve" smooth="yes"/>
      <point x="1004" y="1370"/>
      <point x="993" y="1395"/>
      <point x="940" y="1395" type="curve" smooth="yes"/>
      <point x="920" y="1395"/>
      <point x="907.018" y="1392.88"/>
      <point x="879" y="1389" type="curve" smooth="yes"/>
      <point x="655" y="1358" type="line"/>
      <point x="655" y="1322" type="line"/>
      <point x="696" y="1307"/>
      <point x="711" y="1281"/>
      <point x="711" y="1247" type="curve" smooth="yes"/>
      <point x="711" y="1228"/>
      <point x="707.411" y="1194.95"/>
      <point x="705" y="1176" type="curve" smooth="yes"/>
      <point x="662" y="838" type="line"/>
      <point x="515" y="835"/>
      <point x="96" y="758"/>
      <point x="96" y="496" type="curve" smooth="yes"/>
      <point x="96" y="408"/>
      <point x="129" y="375"/>
      <point x="194" y="375" type="curve" smooth="yes"/>
      <point x="210" y="375"/>
      <point x="228.955" y="377.242"/>
      <point x="250" y="381" type="curve" smooth="yes"/>
      <point x="446" y="416" type="line"/>
      <point x="446" y="450" type="line"/>
      <point x="402" y="461"/>
      <point x="410" y="520"/>
      <point x="410" y="555" type="curve" smooth="yes" name=".hr01"/>
      <point x="410" y="674"/>
      <point x="557" y="747"/>
      <point x="651" y="759" type="curve"/>
      <point x="640" y="682"/>
      <point x="630.427" y="605.939"/>
      <point x="619" y="529" type="curve" smooth="yes"/>
      <point x="615.426" y="504.933"/>
      <point x="612" y="481"/>
      <point x="612" y="471" type="curve" smooth="yes"/>
      <point x="612" y="430"/>
      <point x="627" y="401"/>
      <point x="713" y="401" type="curve" smooth="yes"/>
      <point x="736" y="401"/>
      <point x="759.039" y="405.78"/>
      <point x="782" y="410" type="curve" smooth="yes"/>
      <point x="967" y="444" type="line"/>
      <point x="967" y="477" type="line"/>
      <point x="923" y="483"/>
      <point x="901" y="499"/>
      <point x="901" y="547" type="curve" smooth="yes"/>
      <point x="901" y="613"/>
      <point x="926" y="777"/>
      <point x="930" y="807" type="curve"/>
      <point x="944" y="809"/>
      <point x="959" y="810"/>
      <point x="973" y="810" type="curve" smooth="yes"/>
      <point x="1070" y="810"/>
      <point x="1119.13" y="754.005"/>
      <point x="1126" y="643" type="curve" smooth="yes"/>
      <point x="1132.13" y="544.013"/>
      <point x="1150" y="365"/>
      <point x="1150" y="235" type="curve" smooth="yes"/>
      <point x="1150" y="223"/>
      <point x="1149" y="211"/>
      <point x="1148" y="199" type="curve"/>
      <point x="748" y="174" type="line"/>
      <point x="754" y="153"/>
      <point x="760" y="133"/>
      <point x="760" y="111" type="curve" smooth="yes"/>
      <point x="760" y="32"/>
      <point x="748" y="-43"/>
      <point x="713" y="-113" type="curve"/>
      <point x="740" y="-115"/>
      <point x="767" y="-117"/>
      <point x="795" y="-117" type="curve" smooth="yes"/>
      <point x="931" y="-117"/>
      <point x="1061" y="-31"/>
      <point x="1054" y="119" type="curve"/>
      <point x="1572" y="152" type="line"/>
      <point x="1587" y="13"/>
      <point x="1673" y="-57"/>
      <point x="1810" y="-57" type="curve" smooth="yes"/>
      <point x="1850" y="-57"/>
      <point x="1879" y="-50"/>
    </contour>
  </outline>
</glyph>
<glyph name="uni121C" format="2">
  <advance width="1524"/>
  <unicode hex="121C"/>
  <outline>
    <component base="bar"/>
    <contour>
      <point x="907" y="1571" type="curve" smooth="yes"/>
      <point x="907" y="1542"/>
      <point x="880" y="1522"/>
      <point x="840" y="1496" type="curve"/>
      <point x="904" y="1496" type="line"/>
      <point x="904" y="1476" type="line"/>
      <point x="819" y="1476" type="line"/>
      <point x="819" y="1494" type="line"/>
      <point x="870" y="1535"/>
      <point x="885" y="1554"/>
      <point x="885" y="1571" type="curve" smooth="yes"/>
      <point x="885" y="1579"/>
      <point x="881" y="1591"/>
      <point x="866" y="1591" type="curve" smooth="yes"/>
      <point x="850" y="1591"/>
      <point x="844" y="1578"/>
      <point x="843" y="1567" type="curve"/>
      <point x="821" y="1567" type="line"/>
      <point x="823" y="1593"/>
      <point x="838" y="1606"/>
      <point x="866" y="1606" type="curve" smooth="yes"/>
      <point x="892" y="1606"/>
      <point x="907" y="1592"/>
    </contour>
    <contour>
      <point x="623" y="1473" type="line"/>
      <point x="602" y="1473" type="line"/>
      <point x="602" y="1574" type="line"/>
      <point x="595" y="1568"/>
      <point x="581" y="1561"/>
      <point x="573" y="1559" type="curve"/>
      <point x="573" y="1578" type="line"/>
      <point x="582" y="1582"/>
      <point x="598" y="1595"/>
      <point x="602" y="1599" type="curve"/>
      <point x="623" y="1599" type="line"/>
    </contour>
    <contour>
      <point x="1306" y="1108" type="curve" smooth="yes"/>
      <point x="1306" y="901.992"/>
      <point x="1233.03" y="613.14"/>
      <point x="973" y="598" type="curve" smooth="yes"/>
      <point x="837.971" y="590.138"/>
      <point x="674" y="619"/>
      <point x="659" y="783" type="curve"/>
      <point x="638" y="783" type="line"/>
      <point x="671" y="840" type="line"/>
      <point x="704" y="783" type="line"/>
      <point x="689" y="783" type="line"/>
      <point x="704" y="640"/>
      <point x="854.007" y="620.94"/>
      <point x="971" y="628" type="curve" smooth="yes"/>
      <point x="1202" y="641.939"/>
      <point x="1276" y="900"/>
      <point x="1276" y="1108" type="curve" smooth="yes"/>
      <point x="1276" y="1328"/>
      <point x="1154.99" y="1413.96"/>
      <point x="961" y="1418" type="curve" smooth="yes"/>
      <point x="914.998" y="1418.96"/>
      <point x="803" y="1416"/>
      <point x="758" y="1415" type="curve"/>
      <point x="757" y="1445" type="line"/>
      <point x="854" y="1447"/>
      <point x="1017.89" y="1456.7"/>
      <point x="1112" y="1424" type="curve" smooth="yes"/>
      <point x="1230.9" y="1382.69"/>
      <point x="1306" y="1281.01"/>
    </contour>
    <contour>
      <point x="1040" y="559" type="line"/>
      <point x="1020" y="356" type="line"/>
      <point x="1035" y="355" type="line"/>
      <point x="1000" y="299" type="line"/>
      <point x="969" y="357" type="line"/>
      <point x="990" y="357" type="line"/>
      <point x="1010" y="561" type="line"/>
    </contour>
    <contour>
      <point x="982" y="459" type="curve" smooth="yes"/>
      <point x="982" y="440"/>
      <point x="968" y="421"/>
      <point x="936" y="421" type="curve" smooth="yes"/>
      <point x="903" y="421"/>
      <point x="895" y="441"/>
      <point x="895" y="457" type="curve"/>
      <point x="917" y="457" type="line"/>
      <point x="917" y="445"/>
      <point x="925" y="437"/>
      <point x="937" y="437" type="curve" smooth="yes"/>
      <point x="949" y="437"/>
      <point x="960" y="445"/>
      <point x="960" y="459" type="curve" smooth="yes"/>
      <point x="960" y="464"/>
      <point x="956" y="481"/>
      <point x="938" y="481" type="curve" smooth="yes"/>
      <point x="927" y="481" type="line"/>
      <point x="927" y="495" type="line"/>
      <point x="955" y="495"/>
      <point x="957" y="507"/>
      <point x="957" y="517" type="curve" smooth="yes"/>
      <point x="957" y="526"/>
      <point x="953" y="536"/>
      <point x="940" y="536" type="curve" smooth="yes"/>
      <point x="926" y="536"/>
      <point x="920" y="530"/>
      <point x="919" y="518" type="curve"/>
      <point x="897" y="518" type="line"/>
      <point x="898" y="540"/>
      <point x="916" y="551"/>
      <point x="939" y="551" type="curve" smooth="yes"/>
      <point x="961" y="551"/>
      <point x="979" y="539"/>
      <point x="979" y="517" type="curve" smooth="yes"/>
      <point x="979" y="498"/>
      <point x="967" y="493"/>
      <point x="956" y="489" type="curve"/>
      <point x="967" y="486"/>
      <point x="982" y="477"/>
    </contour>
    <contour>
      <point x="1508" y="172" type="curve" smooth="yes"/>
      <point x="1508" y="27.9913"/>
      <point x="1391" y="-90"/>
      <point x="1247" y="-90" type="curve" smooth="yes"/>
      <point x="1021" y="-90"/>
      <point x="965" y="126"/>
      <point x="987" y="265" type="curve"/>
      <point x="1017" y="260" type="line"/>
      <point x="996" y="127"/>
      <point x="1050.99" y="-60"/>
      <point x="1247" y="-60" type="curve" smooth="yes"/>
      <point x="1374.01" y="-60"/>
      <point x="1478" y="44"/>
      <point x="1478" y="172" type="curve" smooth="yes"/>
      <point x="1478" y="274"/>
      <point x="1412" y="362"/>
      <point x="1320" y="392" type="curve"/>
      <point x="1314" y="377" type="line"/>
      <point x="1272" y="427" type="line"/>
      <point x="1336" y="439" type="line"/>
      <point x="1330" y="420" type="line"/>
      <point x="1433" y="386"/>
      <point x="1508" y="287.007"/>
    </contour>
    <contour>
      <point x="1463" y="154" type="curve" smooth="yes"/>
      <point x="1453.04" y="37.9905"/>
      <point x="1351.08" y="-48.1738"/>
      <point x="1235" y="-38" type="curve" smooth="yes"/>
      <point x="1100.07" y="-26.1735"/>
      <point x="1018.5" y="69.0485"/>
      <point x="1031" y="189" type="curve"/>
      <point x="1031" y="189"/>
      <point x="1075" y="609"/>
      <point x="1083" y="688" type="curve"/>
      <point x="970" y="620"/>
      <point x="716.251" y="628.996"/>
      <point x="713" y="807" type="curve" smooth="yes"/>
      <point x="705" y="1245" type="line"/>
      <point x="687" y="1244" type="line"/>
      <point x="570" y="719" type="line" smooth="yes"/>
      <point x="534.114" y="557.975"/>
      <point x="10" y="538.988"/>
      <point x="10" y="857" type="curve" smooth="yes"/>
      <point x="10" y="1357.02"/>
      <point x="463.956" y="1389.4"/>
      <point x="828" y="1399" type="curve" smooth="yes"/>
      <point x="919" y="1401.4"/>
      <point x="1013.19" y="1413.54"/>
      <point x="1101" y="1383" type="curve" smooth="yes"/>
      <point x="1197.18" y="1349.54"/>
      <point x="1261.92" y="1268"/>
      <point x="1261" y="1112" type="curve" smooth="yes"/>
      <point x="1259.92" y="930"/>
      <point x="1218" y="538"/>
      <point x="1200" y="378" type="curve"/>
      <point x="1223" y="384"/>
      <point x="1247.01" y="386.056"/>
      <point x="1271" y="384" type="curve" smooth="yes"/>
      <point x="1386.99" y="374.058"/>
      <point x="1473.04" y="271.006"/>
    </contour>
    <contour>
      <point x="664" y="1408" type="line"/>
      <point x="332" y="1386"/>
      <point x="-15" y="1297.02"/>
      <point x="-15" y="853" type="curve" smooth="yes"/>
      <point x="-15" y="521.991"/>
      <point x="511" y="524"/>
      <point x="580" y="694" type="curve"/>
      <point x="563" y="698" type="line"/>
      <point x="610" y="745" type="line"/>
      <point x="627" y="681" type="line"/>
      <point x="609" y="686" type="line"/>
      <point x="533" y="482"/>
      <point x="-45" y="486.97"/>
      <point x="-45" y="853" type="curve" smooth="yes"/>
      <point x="-45" y="1325.02"/>
      <point x="330" y="1416"/>
      <point x="662" y="1438" type="curve"/>
    </contour>
    <contour>
      <point x="952" y="168" type="line"/>
      <point x="939" y="168" type="line"/>
      <point x="939" y="141" type="line"/>
      <point x="918" y="141" type="line"/>
      <point x="918" y="168" type="line"/>
      <point x="858" y="168" type="line"/>
      <point x="858" y="193" type="line"/>
      <point x="910" y="268" type="line"/>
      <point x="939" y="268" type="line"/>
      <point x="939" y="187" type="line"/>
      <point x="952" y="187" type="line"/>
    </contour>
    <contour>
      <point x="1423" y="158" type="curve" smooth="yes"/>
      <point x="1431.5" y="253.044"/>
      <point x="1360.99" y="336.03"/>
      <point x="1268" y="344" type="curve" smooth="yes"/>
      <point x="1221" y="348.028"/>
      <point x="1193" y="334"/>
      <point x="1153" y="315" type="curve"/>
      <point x="1177" y="537"/>
      <point x="1220.12" y="894.001"/>
      <point x="1221" y="1113" type="curve" smooth="yes"/>
      <point x="1222.12" y="1390"/>
      <point x="1019.01" y="1363.98"/>
      <point x="830" y="1359" type="curve" smooth="yes"/>
      <point x="487.96" y="1349.98"/>
      <point x="50" y="1327.99"/>
      <point x="50" y="857" type="curve" smooth="yes"/>
      <point x="50" y="584.991"/>
      <point x="506.34" y="615.93"/>
      <point x="531" y="727" type="curve" smooth="yes"/>
      <point x="654" y="1281" type="line"/>
      <point x="744" y="1288" type="line"/>
      <point x="753" y="808" type="line" smooth="yes"/>
      <point x="755.213" y="690"/>
      <point x="888.005" y="686.866"/>
      <point x="973" y="692" type="curve" smooth="yes"/>
      <point x="1037.01" y="695.866"/>
      <point x="1085" y="737"/>
      <point x="1132" y="775" type="curve"/>
      <point x="1072" y="188" type="line" smooth="yes"/>
      <point x="1062.39" y="93.9553"/>
      <point x="1142.95" y="9.549"/>
      <point x="1238" y="1" type="curve" smooth="yes"/>
      <point x="1331.97" y="-7.45175"/>
      <point x="1414.5" y="63.036"/>
    </contour>
    <contour>
      <point x="918" y="187" type="line"/>
      <point x="918" y="252" type="line"/>
      <point x="873" y="187" type="line"/>
    </contour>
    <contour>
      <point x="1151" y="1112" type="curve" smooth="yes"/>
      <point x="1151" y="921.992"/>
      <point x="1111.01" y="742.049"/>
      <point x="889" y="761" type="curve" smooth="yes"/>
      <point x="865.004" y="763.048"/>
      <point x="822.435" y="760.002"/>
      <point x="822" y="796" type="curve" smooth="yes"/>
      <point x="816" y="1293" type="line"/>
      <point x="855" y="1292"/>
      <point x="894" y="1292.24"/>
      <point x="933" y="1292" type="curve" smooth="yes"/>
      <point x="1058" y="1291.24"/>
      <point x="1151" y="1273.01"/>
    </contour>
    <contour>
      <point x="647" y="1315" type="curve" smooth="yes"/>
      <point x="647" y="1301"/>
      <point x="636" y="1290"/>
      <point x="622" y="1290" type="curve" smooth="yes"/>
      <point x="608" y="1290"/>
      <point x="597" y="1301"/>
      <point x="597" y="1315" type="curve" smooth="yes"/>
      <point x="597" y="1329"/>
      <point x="608" y="1340"/>
      <point x="622" y="1340" type="curve" smooth="yes"/>
      <point x="636" y="1340"/>
      <point x="647" y="1329"/>
    </contour>
    <contour>
      <point x="1354" y="164" type="curve" smooth="yes"/>
      <point x="1349.5" y="107.96"/>
      <point x="1300" y="66.0445"/>
      <point x="1244" y="71" type="curve" smooth="yes"/>
      <point x="1187.01" y="76.0433"/>
      <point x="1145.96" y="126.008"/>
      <point x="1151" y="182" type="curve" smooth="yes"/>
      <point x="1155.95" y="237"/>
      <point x="1204.96" y="278.543"/>
      <point x="1262" y="274" type="curve" smooth="yes"/>
      <point x="1317.97" y="269.543"/>
      <point x="1358.5" y="219.964"/>
    </contour>
    <contour>
      <point x="580" y="1279" type="curve"/>
      <point x="468" y="768" type="line" smooth="yes"/>
      <point x="455.948" y="713.011"/>
      <point x="368.995" y="717.242"/>
      <point x="328" y="716" type="curve" smooth="yes"/>
      <point x="203.988" y="712.243"/>
      <point x="120" y="770.997"/>
      <point x="120" y="856" type="curve" smooth="yes"/>
      <point x="120" y="1156.01"/>
      <point x="318" y="1256"/>
    </contour>
    <contour>
      <point x="1111" y="1112" type="curve" smooth="yes"/>
      <point x="1111" y="1247"/>
      <point x="1036" y="1251.19"/>
      <point x="932" y="1252" type="curve" smooth="yes"/>
      <point x="907" y="1252.19"/>
      <point x="882" y="1251"/>
      <point x="857" y="1252" type="curve"/>
      <point x="862" y="803" type="line"/>
      <point x="1068" y="770"/>
      <point x="1111" y="915.003"/>
    </contour>
    <contour>
      <point x="1314" y="167" type="curve" smooth="yes"/>
      <point x="1317.04" y="201.996"/>
      <point x="1292" y="232"/>
      <point x="1258" y="235" type="curve" smooth="yes"/>
      <point x="1224" y="238"/>
      <point x="1194" y="212"/>
      <point x="1191" y="178" type="curve" smooth="yes"/>
      <point x="1188" y="144"/>
      <point x="1213.01" y="114.087"/>
      <point x="1248" y="111" type="curve" smooth="yes"/>
      <point x="1281.01" y="108.088"/>
      <point x="1311.04" y="132.996"/>
    </contour>
    <contour>
      <point x="529" y="1234" type="line"/>
      <point x="301" y="1207"/>
      <point x="160" y="1096.01"/>
      <point x="160" y="856" type="curve" smooth="yes"/>
      <point x="160" y="804.997"/>
      <point x="211.986" y="752.519"/>
      <point x="326" y="756" type="curve" smooth="yes"/>
      <point x="342.993" y="756.519"/>
      <point x="424.395" y="754.909"/>
      <point x="429" y="776" type="curve" smooth="yes"/>
    </contour>
  </outline>
</glyph>
<glyph name="uni121E" format="2">
  <advance width="1321"/>
  <unicode hex="121E"/>
  <outline>
    <component base="bar"/>
    <contour>
      <point x="907" y="1571" type="curve" smooth="yes"/>
      <point x="907" y="1542"/>
      <point x="880" y="1522"/>
      <point x="840" y="1496" type="curve"/>
      <point x="904" y="1496" type="line"/>
      <point x="904" y="1476" type="line"/>
      <point x="819" y="1476" type="line"/>
      <point x="819" y="1494" type="line"/>
      <point x="870" y="1535"/>
      <point x="885" y="1554"/>
      <point x="885" y="1571" type="curve" smooth="yes"/>
      <point x="885" y="1579"/>
      <point x="881" y="1591"/>
      <point x="866" y="1591" type="curve" smooth="yes"/>
      <point x="850" y="1591"/>
      <point x="844" y="1578"/>
      <point x="843" y="1567" type="curve"/>
      <point x="821" y="1567" type="line"/>
      <point x="823" y="1593"/>
      <point x="838" y="1606"/>
      <point x="866" y="1606" type="curve" smooth="yes"/>
      <point x="892" y="1606"/>
      <point x="907" y="1592"/>
    </contour>
    <contour>
      <point x="623" y="1473" type="line"/>
      <point x="602" y="1473" type="line"/>
      <point x="602" y="1574" type="line"/>
      <point x="595" y="1568"/>
      <point x="581" y="1561"/>
      <point x="573" y="1559" type="curve"/>
      <point x="573" y="1578" type="line"/>
      <point x="582" y="1582"/>
      <point x="598" y="1595"/>
      <point x="602" y="1599" type="curve"/>
      <point x="623" y="1599" type="line"/>
    </contour>
    <contour>
      <point x="1306" y="1108" type="curve" smooth="yes"/>
      <point x="1306" y="901.992"/>
      <point x="1233.03" y="613.14"/>
      <point x="973" y="598" type="curve" smooth="yes"/>
      <point x="837.971" y="590.138"/>
      <point x="674" y="619"/>
      <point x="659" y="783" type="curve"/>
      <point x="638" y="783" type="line"/>
      <point x="671" y="840" type="line"/>
      <point x="704" y="783" type="line"/>
      <point x="689" y="783" type="line"/>
      <point x="704" y="640"/>
      <point x="854.007" y="620.94"/>
      <point x="971" y="628" type="curve" smooth="yes"/>
      <point x="1202" y="641.939"/>
      <point x="1276" y="900"/>
      <point x="1276" y="1108" type="curve" smooth="yes"/>
      <point x="1276" y="1328"/>
      <point x="1154.99" y="1413.96"/>
      <point x="961" y="1418" type="curve" smooth="yes"/>
      <point x="914.998" y="1418.96"/>
      <point x="800" y="1416"/>
      <point x="755" y="1415" type="curve"/>
      <point x="754" y="1445" type="line"/>
      <point x="851" y="1447"/>
      <point x="1017.89" y="1456.7"/>
      <point x="1112" y="1424" type="curve" smooth="yes"/>
      <point x="1230.9" y="1382.69"/>
      <point x="1306" y="1281.01"/>
    </contour>
    <contour>
      <point x="1261" y="1112" type="curve" smooth="yes"/>
      <point x="1261" y="903.996"/>
      <point x="1186.98" y="665.352"/>
      <point x="975" y="652" type="curve" smooth="yes"/>
      <point x="932.977" y="649.353"/>
      <point x="870.058" y="648.154"/>
      <point x="816" y="667" type="curve" smooth="yes"/>
      <point x="761.051" y="686.156"/>
      <point x="714.461" y="727.005"/>
      <point x="713" y="807" type="curve" smooth="yes"/>
      <point x="705" y="1245" type="line"/>
      <point x="687" y="1244" type="line"/>
      <point x="431" y="19" type="line" smooth="yes"/>
      <point x="410.741" y="-77.9433"/>
      <point x="264.381" y="-46.877"/>
      <point x="284" y="49" type="curve" smooth="yes"/>
      <point x="399" y="611" type="line"/>
      <point x="238" y="585"/>
      <point x="10" y="647"/>
      <point x="10" y="857" type="curve" smooth="yes"/>
      <point x="10" y="1087"/>
      <point x="155.001" y="1369.49"/>
      <point x="533" y="1386" type="curve" smooth="yes"/>
      <point x="612.989" y="1389.49"/>
      <point x="841.987" y="1404.57"/>
      <point x="961" y="1403" type="curve" smooth="yes"/>
      <point x="1146" y="1400.57"/>
      <point x="1261" y="1323"/>
    </contour>
    <contour>
      <point x="664" y="1408" type="line"/>
      <point x="332" y="1386"/>
      <point x="-15" y="1297.02"/>
      <point x="-15" y="853" type="curve" smooth="yes"/>
      <point x="-15" y="521.991"/>
      <point x="511" y="524"/>
      <point x="580" y="694" type="curve"/>
      <point x="563" y="698" type="line"/>
      <point x="610" y="745" type="line"/>
      <point x="627" y="681" type="line"/>
      <point x="609" y="686" type="line"/>
      <point x="533" y="482"/>
      <point x="-45" y="486.97"/>
      <point x="-45" y="853" type="curve" smooth="yes"/>
      <point x="-45" y="1325.02"/>
      <point x="330" y="1416"/>
      <point x="662" y="1438" type="curve"/>
    </contour>
    <contour>
      <point x="724" y="545" type="curve" smooth="yes"/>
      <point x="724" y="526"/>
      <point x="710" y="507"/>
      <point x="678" y="507" type="curve" smooth="yes"/>
      <point x="645" y="507"/>
      <point x="637" y="527"/>
      <point x="637" y="543" type="curve"/>
      <point x="659" y="543" type="line"/>
      <point x="659" y="531"/>
      <point x="667" y="523"/>
      <point x="679" y="523" type="curve" smooth="yes"/>
      <point x="691" y="523"/>
      <point x="702" y="531"/>
      <point x="702" y="545" type="curve" smooth="yes"/>
      <point x="702" y="550"/>
      <point x="698" y="567"/>
      <point x="680" y="567" type="curve" smooth="yes"/>
      <point x="669" y="567" type="line"/>
      <point x="669" y="581" type="line"/>
      <point x="697" y="581"/>
      <point x="699" y="593"/>
      <point x="699" y="603" type="curve" smooth="yes"/>
      <point x="699" y="612"/>
      <point x="695" y="622"/>
      <point x="682" y="622" type="curve" smooth="yes"/>
      <point x="668" y="622"/>
      <point x="662" y="616"/>
      <point x="661" y="604" type="curve"/>
      <point x="639" y="604" type="line"/>
      <point x="640" y="626"/>
      <point x="658" y="637"/>
      <point x="681" y="637" type="curve" smooth="yes"/>
      <point x="703" y="637"/>
      <point x="721" y="625"/>
      <point x="721" y="603" type="curve" smooth="yes"/>
      <point x="721" y="584"/>
      <point x="709" y="579"/>
      <point x="698" y="575" type="curve"/>
      <point x="709" y="572"/>
      <point x="724" y="563"/>
    </contour>
    <contour>
      <point x="613" y="555" type="line"/>
      <point x="511" y="73" type="line"/>
      <point x="526" y="71" type="line"/>
      <point x="485" y="19" type="line"/>
      <point x="461" y="81" type="line"/>
      <point x="481" y="78" type="line"/>
      <point x="583" y="561" type="line"/>
    </contour>
    <contour>
      <point x="1221" y="1112" type="curve" smooth="yes"/>
      <point x="1221" y="1386"/>
      <point x="1020.04" y="1367.37"/>
      <point x="830" y="1359" type="curve" smooth="yes"/>
      <point x="535" y="1346" type="line" smooth="yes"/>
      <point x="182.947" y="1330.49"/>
      <point x="50" y="1072"/>
      <point x="50" y="857" type="curve" smooth="yes"/>
      <point x="50" y="666"/>
      <point x="278.021" y="622.871"/>
      <point x="420" y="656" type="curve" smooth="yes"/>
      <point x="450" y="663" type="line"/>
      <point x="323" y="41" type="line" smooth="yes"/>
      <point x="314.015" y="-3.0055"/>
      <point x="382.165" y="-19.036"/>
      <point x="392" y="28" type="curve" smooth="yes"/>
      <point x="654" y="1281" type="line"/>
      <point x="744" y="1288" type="line"/>
      <point x="753" y="808" type="line" smooth="yes"/>
      <point x="754.106" y="749"/>
      <point x="786.099" y="720.291"/>
      <point x="830" y="705" type="curve" smooth="yes"/>
      <point x="875.102" y="689.29"/>
      <point x="930.965" y="689.458"/>
      <point x="973" y="692" type="curve" smooth="yes"/>
      <point x="1145.99" y="702.46"/>
      <point x="1221" y="902"/>
    </contour>
    <contour>
      <point x="1151" y="1112" type="curve" smooth="yes"/>
      <point x="1151" y="921.992"/>
      <point x="1111.01" y="742.049"/>
      <point x="889" y="761" type="curve" smooth="yes"/>
      <point x="865.004" y="763.048"/>
      <point x="822.435" y="760.002"/>
      <point x="822" y="796" type="curve" smooth="yes"/>
      <point x="816" y="1293" type="line"/>
      <point x="855" y="1292"/>
      <point x="894" y="1292.24"/>
      <point x="933" y="1292" type="curve" smooth="yes"/>
      <point x="1058" y="1291.24"/>
      <point x="1151" y="1273.01"/>
    </contour>
    <contour>
      <point x="647" y="1315" type="curve" smooth="yes"/>
      <point x="647" y="1301"/>
      <point x="636" y="1290"/>
      <point x="622" y="1290" type="curve" smooth="yes"/>
      <point x="608" y="1290"/>
      <point x="597" y="1301"/>
      <point x="597" y="1315" type="curve" smooth="yes"/>
      <point x="597" y="1329"/>
      <point x="608" y="1340"/>
      <point x="622" y="1340" type="curve" smooth="yes"/>
      <point x="636" y="1340"/>
      <point x="647" y="1329"/>
    </contour>
    <contour>
      <point x="580" y="1279" type="curve"/>
      <point x="468" y="768" type="line" smooth="yes"/>
      <point x="455.948" y="713.011"/>
      <point x="368.995" y="717.242"/>
      <point x="328" y="716" type="curve" smooth="yes"/>
      <point x="203.988" y="712.243"/>
      <point x="120" y="770.997"/>
      <point x="120" y="856" type="curve" smooth="yes"/>
      <point x="120" y="1130.01"/>
      <point x="302" y="1262"/>
    </contour>
    <contour>
      <point x="1111" y="1112" type="curve" smooth="yes"/>
      <point x="1111" y="1247"/>
      <point x="1036" y="1251.19"/>
      <point x="932" y="1252" type="curve" smooth="yes"/>
      <point x="907" y="1252.19"/>
      <point x="882" y="1251"/>
      <point x="857" y="1252" type="curve"/>
      <point x="862" y="803" type="line"/>
      <point x="1068" y="770"/>
      <point x="1111" y="915.003"/>
    </contour>
    <contour>
      <point x="529" y="1235" type="line"/>
      <point x="205" y="1208"/>
      <point x="160" y="975.008"/>
      <point x="160" y="856" type="curve" smooth="yes"/>
      <point x="160" y="727.992"/>
      <point x="422.904" y="748.02"/>
      <point x="429" y="776" type="curve" smooth="yes"/>
    </contour>
  </outline>
</glyph>
<glyph name="uni121F" format="2">
  <advance width="1909"/>
  <unicode hex="121F"/>
  <outline>
    <contour>
      <point x="1887" y="1582" type="line"/>
      <point x="1539" y="1474" type="line"/>
      <point x="1774" y="1191" type="line"/>
      <point x="1449" y="1363" type="line"/>
      <point x="1415" y="1000" type="line"/>
      <point x="1307" y="1348" type="line"/>
      <point x="1024" y="1113" type="line"/>
      <point x="1196" y="1438" type="line"/>
      <point x="833" y="1472" type="line"/>
      <point x="1181" y="1580" type="line"/>
      <point x="946" y="1863" type="line"/>
      <point x="1271" y="1691" type="line"/>
      <point x="1305" y="2054" type="line"/>
      <point x="1413" y="1706" type="line"/>
      <point x="1696" y="1941" type="line"/>
      <point x="1524" y="1616" type="line"/>
    </contour>
    <contour>
      <point x="1903" y="-121" type="curve"/>
      <point x="1841" y="-165"/>
      <point x="1810" y="-187"/>
      <point x="1729" y="-187" type="curve" smooth="yes"/>
      <point x="1603" y="-187"/>
      <point x="1480" y="-130"/>
      <point x="1446" y="10" type="curve"/>
      <point x="987" y="-30" type="line"/>
      <point x="982" y="-178"/>
      <point x="819.006" y="-282"/>
      <point x="678" y="-282" type="curve" smooth="yes"/>
      <point x="625.998" y="-282"/>
      <point x="573" y="-276"/>
      <point x="522" y="-272" type="curve"/>
      <point x="594" y="-182"/>
      <point x="626" y="-139"/>
      <point x="626" y="-14" type="curve" smooth="yes"/>
      <point x="626" y="9"/>
      <point x="602" y="81"/>
      <point x="601" y="84" type="curve"/>
      <point x="1039" y="124" type="line"/>
      <point x="1039" y="130"/>
      <point x="1039" y="135"/>
      <point x="1039" y="141" type="curve" smooth="yes"/>
      <point x="1039" y="184" type="line" smooth="yes"/>
      <point x="1039" y="338"/>
      <point x="1195" y="754"/>
      <point x="1208" y="795" type="curve"/>
      <point x="1142" y="784"/>
      <point x="1072" y="775"/>
      <point x="1044" y="775" type="curve" smooth="yes"/>
      <point x="933" y="775"/>
      <point x="843" y="822"/>
      <point x="843" y="952" type="curve" smooth="yes"/>
      <point x="843" y="973"/>
      <point x="841" y="982"/>
      <point x="841" y="994" type="curve" smooth="yes"/>
      <point x="841" y="1039"/>
      <point x="864" y="1133"/>
      <point x="869" y="1162" type="curve"/>
      <point x="815" y="1156" type="line"/>
      <point x="779" y="884" type="line" smooth="yes"/>
      <point x="759.128" y="733.851"/>
      <point x="689" y="638"/>
      <point x="557" y="638" type="curve" smooth="yes"/>
      <point x="537" y="638"/>
      <point x="492" y="646"/>
      <point x="457" y="646" type="curve" smooth="yes"/>
      <point x="375" y="646"/>
      <point x="310" y="568"/>
      <point x="209" y="568" type="curve" smooth="yes"/>
      <point x="84" y="568"/>
      <point x="40" y="652"/>
      <point x="40" y="784" type="curve" smooth="yes"/>
      <point x="40" y="924"/>
      <point x="57.2202" y="1044.76"/>
      <point x="168" y="1149" type="curve" smooth="yes"/>
      <point x="294.22" y="1267.76"/>
      <point x="437.976" y="1295.23"/>
      <point x="680" y="1308" type="curve" smooth="yes"/>
      <point x="817" y="1315.23"/>
      <point x="988" y="1330"/>
      <point x="1126" y="1330" type="curve" smooth="yes"/>
      <point x="1158" y="1330"/>
      <point x="1185" y="1320"/>
      <point x="1203" y="1310" type="curve"/>
      <point x="1275" y="1348"/>
      <point x="1343" y="1363"/>
      <point x="1386" y="1363" type="curve" smooth="yes"/>
      <point x="1534.01" y="1363"/>
      <point x="1637" y="1248"/>
      <point x="1637" y="1112" type="curve" smooth="yes"/>
      <point x="1637" y="1011"/>
      <point x="1579.91" y="839.032"/>
      <point x="1551" y="741" type="curve" smooth="yes"/>
      <point x="1418" y="290" type="line" smooth="yes"/>
      <point x="1404.75" y="245.07"/>
      <point x="1394" y="197"/>
      <point x="1394" y="168" type="curve" smooth="yes"/>
      <point x="1394" y="164"/>
      <point x="1394" y="161"/>
      <point x="1394" y="157" type="curve"/>
      <point x="1836" y="199" type="line"/>
      <point x="1830" y="149"/>
      <point x="1822" y="102"/>
      <point x="1822" y="53" type="curve" smooth="yes"/>
      <point x="1822" y="-41"/>
      <point x="1836" y="-67"/>
    </contour>
    <contour>
      <point x="1685" y="1561" type="line"/>
      <point x="1461" y="1582" type="line"/>
      <point x="1566" y="1781" type="line"/>
      <point x="1393" y="1637" type="line"/>
      <point x="1326" y="1852" type="line"/>
      <point x="1305" y="1628" type="line"/>
      <point x="1106" y="1733" type="line"/>
      <point x="1250" y="1560" type="line"/>
      <point x="1035" y="1493" type="line"/>
      <point x="1259" y="1472" type="line"/>
      <point x="1154" y="1273" type="line"/>
      <point x="1327" y="1417" type="line"/>
      <point x="1394" y="1202" type="line"/>
      <point x="1415" y="1426" type="line"/>
      <point x="1614" y="1321" type="line"/>
      <point x="1470" y="1494" type="line"/>
    </contour>
    <contour>
      <point x="1837" y="-118" type="curve"/>
      <point x="1792" y="-75"/>
      <point x="1782" y="-7"/>
      <point x="1782" y="53" type="curve" smooth="yes"/>
      <point x="1782" y="87"/>
      <point x="1786" y="120"/>
      <point x="1790" y="154" type="curve"/>
      <point x="1351" y="113" type="line"/>
      <point x="1352" y="131"/>
      <point x="1354" y="150"/>
      <point x="1354" y="168" type="curve" smooth="yes" name=".hr01"/>
      <point x="1354" y="203"/>
      <point x="1366.75" y="256.07"/>
      <point x="1380" y="301" type="curve" smooth="yes"/>
      <point x="1513" y="752" type="line" smooth="yes"/>
      <point x="1540.12" y="843.969"/>
      <point x="1597" y="1016"/>
      <point x="1597" y="1112" type="curve" smooth="yes"/>
      <point x="1597" y="1227"/>
      <point x="1511" y="1323"/>
      <point x="1386" y="1323" type="curve" smooth="yes"/>
      <point x="1325" y="1323"/>
      <point x="1254" y="1292"/>
      <point x="1202" y="1264" type="curve"/>
      <point x="1178" y="1279"/>
      <point x="1156" y="1290"/>
      <point x="1126" y="1290" type="curve" smooth="yes"/>
      <point x="990" y="1290"/>
      <point x="817.994" y="1275.21"/>
      <point x="682" y="1268" type="curve" smooth="yes"/>
      <point x="440.994" y="1255.21"/>
      <point x="310.188" y="1228.82"/>
      <point x="195" y="1120" type="curve" smooth="yes"/>
      <point x="93.1768" y="1023.81"/>
      <point x="80" y="912.004"/>
      <point x="80" y="784" type="curve" smooth="yes"/>
      <point x="80" y="660.996"/>
      <point x="117" y="608"/>
      <point x="209" y="608" type="curve" smooth="yes"/>
      <point x="300" y="608"/>
      <point x="362" y="686"/>
      <point x="457" y="686" type="curve" smooth="yes"/>
      <point x="492" y="686"/>
      <point x="537" y="678"/>
      <point x="557" y="678" type="curve" smooth="yes"/>
      <point x="660" y="678"/>
      <point x="719.922" y="748.005"/>
      <point x="739" y="889" type="curve" smooth="yes"/>
      <point x="780" y="1192" type="line"/>
      <point x="918" y="1208" type="line"/>
      <point x="887" y="1040" type="line" smooth="yes"/>
      <point x="882.585" y="1016.07"/>
      <point x="881" y="1005"/>
      <point x="881" y="994" type="curve" smooth="yes"/>
      <point x="881" y="982"/>
      <point x="883" y="973"/>
      <point x="883" y="952" type="curve" smooth="yes"/>
      <point x="883" y="853"/>
      <point x="945" y="815"/>
      <point x="1044" y="815" type="curve" smooth="yes"/>
      <point x="1117" y="815"/>
      <point x="1195" y="833"/>
      <point x="1266" y="846" type="curve"/>
      <point x="1217" y="682"/>
      <point x="1161.17" y="513.961"/>
      <point x="1110" y="356" type="curve" smooth="yes"/>
      <point x="1092.16" y="300.943"/>
      <point x="1079" y="231"/>
      <point x="1079" y="184" type="curve" smooth="yes"/>
      <point x="1079" y="141" type="line" smooth="yes"/>
      <point x="1079" y="123"/>
      <point x="1080" y="106"/>
      <point x="1082" y="88" type="curve"/>
      <point x="653" y="49" type="line"/>
      <point x="659" y="28"/>
      <point x="666" y="8"/>
      <point x="666" y="-14" type="curve" smooth="yes"/>
      <point x="666" y="-96"/>
      <point x="648" y="-173"/>
      <point x="599" y="-238" type="curve"/>
      <point x="626" y="-240"/>
      <point x="652" y="-242"/>
      <point x="678" y="-242" type="curve" smooth="yes"/>
      <point x="814" y="-242"/>
      <point x="955" y="-144"/>
      <point x="945" y="6" type="curve"/>
      <point x="1478" y="53" type="line"/>
      <point x="1503" y="-85"/>
      <point x="1593" y="-147"/>
      <point x="1729" y="-147" type="curve" smooth="yes"/>
      <point x="1767" y="-147"/>
      <point x="1805" y="-139"/>
    </contour>
    <contour>
      <point x="1313" y="1112" type="curve" smooth="yes"/>
      <point x="1313" y="1062" name=".hr02"/>
      <point x="1289" y="958"/>
      <point x="1280" y="912" type="curve"/>
      <point x="1270" y="911"/>
      <point x="1259" y="909"/>
      <point x="1249" y="909" type="curve" smooth="yes"/>
      <point x="1196" y="909"/>
      <point x="1141" y="950"/>
      <point x="1141" y="1038" type="curve" smooth="yes"/>
      <point x="1141" y="1081"/>
      <point x="1155" y="1129"/>
      <point x="1169" y="1169" type="curve"/>
      <point x="1172" y="1172" type="line" smooth="yes"/>
      <point x="1187.51" y="1187.51"/>
      <point x="1208" y="1200"/>
      <point x="1235" y="1200" type="curve" smooth="yes"/>
      <point x="1286" y="1200"/>
      <point x="1313" y="1161"/>
    </contour>
    <contour>
      <point x="542" y="1189" type="line"/>
      <point x="481" y="856" type="line" smooth="yes"/>
      <point x="470.396" y="798.109"/>
      <point x="455" y="745"/>
      <point x="387" y="745" type="curve" smooth="yes"/>
      <point x="371" y="745"/>
      <point x="356.922" y="755.953"/>
      <point x="349" y="769" type="curve" smooth="yes"/>
      <point x="339.922" y="783.952"/>
      <point x="334" y="804"/>
      <point x="334" y="831" type="curve" smooth="yes"/>
      <point x="334" y="941"/>
      <point x="385.136" y="1152.4" name=".hr03"/>
      <point x="512" y="1182" type="curve" smooth="yes"/>
    </contour>
    <contour>
      <point x="1273" y="1112" type="curve" smooth="yes"/>
      <point x="1273" y="1146"/>
      <point x="1257" y="1160"/>
      <point x="1235" y="1160" type="curve" smooth="yes"/>
      <point x="1222" y="1160"/>
      <point x="1212" y="1155"/>
      <point x="1204" y="1147" type="curve"/>
      <point x="1190" y="1109"/>
      <point x="1181" y="1068"/>
      <point x="1181" y="1038" type="curve" smooth="yes"/>
      <point x="1181" y="973"/>
      <point x="1217" y="950"/>
      <point x="1246" y="949" type="curve"/>
      <point x="1261" y="1024"/>
      <point x="1273" y="1093"/>
    </contour>
    <contour>
      <point x="490" y="1131" type="line"/>
      <point x="412" y="1083"/>
      <point x="374" y="916"/>
      <point x="374" y="831" type="curve" smooth="yes"/>
      <point x="374" y="810"/>
      <point x="379" y="797"/>
      <point x="383" y="791" type="curve" smooth="yes"/>
      <point x="385" y="788"/>
      <point x="387" y="786"/>
      <point x="388" y="785" type="curve"/>
      <point x="430" y="785"/>
      <point x="435.707" y="827.866"/>
      <point x="442" y="863" type="curve" smooth="yes"/>
    </contour>
  </outline>
</glyph>
